<svg width="65" height="24" viewBox="0 0 65 24" fill="none" xmlns="http://www.w3.org/2000/svg">
<path fill-rule="evenodd" clip-rule="evenodd" d="M20 3C16.6863 3 14 5.68629 14 9C14 12.3137 16.6863 15 20 15C23.3137 15 26 12.3137 26 9C26 5.68629 23.3137 3 20 3ZM12 9C12 4.58172 15.5817 1 20 1C24.4183 1 28 4.58172 28 9C28 13.4183 24.4183 17 20 17C15.5817 17 12 13.4183 12 9Z" fill="#0066CC"/>
<path fill-rule="evenodd" clip-rule="evenodd" d="M19.722 17C18.1287 17 16.535 17.5581 15.0995 18.664C13.6597 19.7733 12.4321 21.3951 11.568 23.3927C11.4086 23.7611 11.0421 24 10.6364 24H1.01299C0.45353 24 0 23.5523 0 23C0 22.4477 0.45353 22 1.01299 22H9.98217C10.943 20.0053 12.2622 18.313 13.853 17.0873C15.6073 15.7357 17.632 15 19.722 15C21.8121 15 23.8367 15.7357 25.591 17.0873C27.1819 18.313 28.501 20.0053 29.4619 22H37.987C38.5465 22 39 22.4477 39 23C39 23.5523 38.5465 24 37.987 24H28.8077C28.402 24 28.0354 23.7611 27.8761 23.3927C27.0119 21.3951 25.7843 19.7733 24.3445 18.664C22.9091 17.5581 21.3153 17 19.722 17Z" fill="#0066CC"/>
<path fill-rule="evenodd" clip-rule="evenodd" d="M45.5 7.8C44.0088 7.8 42.8 9.00883 42.8 10.5C42.8 11.9912 44.0088 13.2 45.5 13.2C46.9912 13.2 48.2 11.9912 48.2 10.5C48.2 9.00883 46.9912 7.8 45.5 7.8ZM41 10.5C41 8.01472 43.0147 6 45.5 6C47.9853 6 50 8.01472 50 10.5C50 12.9853 47.9853 15 45.5 15C43.0147 15 41 12.9853 41 10.5Z" fill="#0066CC"/>
<path fill-rule="evenodd" clip-rule="evenodd" d="M45.5 2C43.3866 2 41.3544 2.86085 39.852 4.40173C38.3488 5.94347 37.5 8.03978 37.5 10.2308C37.5 15.3124 41.1974 19.7663 43.8375 22.2751C44.1341 22.5569 44.2291 22.9909 44.0773 23.3709C43.9256 23.7508 43.5578 24 43.1487 24H36C35.4477 24 35 23.5523 35 23C35 22.4477 35.4477 22 36 22H40.7806C38.2891 19.2275 35.5 15.058 35.5 10.2308C35.5 7.52545 36.5476 4.926 38.42 3.00553C40.2933 1.0842 42.8395 0 45.5 0C48.1605 0 50.7067 1.0842 52.58 3.00553C54.4524 4.926 55.5 7.52545 55.5 10.2308C55.5 15.058 52.7109 19.2275 50.2194 22H64C64.5523 22 65 22.4477 65 23C65 23.5523 64.5523 24 64 24H47.8513C47.4422 24 47.0744 23.7508 46.9227 23.3709C46.7709 22.9909 46.8659 22.5569 47.1625 22.2751C49.8026 19.7663 53.5 15.3124 53.5 10.2308C53.5 8.03978 52.6512 5.94347 51.148 4.40173C49.6456 2.86085 47.6134 2 45.5 2Z" fill="#0066CC"/>
</svg>
