<svg width="17" height="16" viewBox="0 0 17 16" fill="none" xmlns="http://www.w3.org/2000/svg">
<g id="Frame 589">
<g id="Funnel">
<path id="Vector" d="M1.63879 1H15.3612C15.4852 1.00004 15.6064 1.03577 15.7102 1.10284C15.814 1.16991 15.8959 1.26542 15.9458 1.37774C15.9958 1.49006 16.0116 1.61434 15.9915 1.73544C15.9714 1.85654 15.9161 1.96922 15.8325 2.05977L10.5847 7.7778C10.4755 7.89356 10.4154 8.04648 10.417 8.20488V12.6812C10.418 12.7864 10.3921 12.8901 10.3419 12.9827C10.2916 13.0753 10.2185 13.1539 10.1294 13.2111L7.57346 14.8957C7.47758 14.9582 7.36646 14.994 7.25178 14.9993C7.1371 15.0046 7.02309 14.9792 6.92175 14.9258C6.8204 14.8724 6.73546 14.7929 6.67585 14.6958C6.61625 14.5986 6.58418 14.4874 6.58301 14.3737V8.20488C6.58456 8.04648 6.5245 7.89356 6.41528 7.7778L1.16753 2.05977C1.08387 1.96922 1.02861 1.85654 1.00848 1.73544C0.988354 1.61434 1.00423 1.49006 1.05418 1.37774C1.10412 1.26542 1.18598 1.16991 1.28978 1.10284C1.39359 1.03577 1.51485 1.00004 1.63879 1V1Z" stroke="#333333" stroke-linecap="round" stroke-linejoin="round"/>
</g>
</g>
</svg>
