<svg width="160" height="406" viewBox="0 0 160 406" fill="none" xmlns="http://www.w3.org/2000/svg">
<path fill-rule="evenodd" clip-rule="evenodd" d="M83.4376 61.1969C99.1903 46.5073 101.682 23.676 89.0032 10.2018C76.3244 -3.27234 53.276 -2.287 37.5233 12.4026C21.7706 27.0923 19.2788 49.9235 31.9576 63.3977C39.8458 71.7806 51.7476 74.5667 63.4091 71.9379L72.3506 82.002L73.6971 68.1294C77.1291 66.3259 80.4174 64.0132 83.4376 61.1969Z" fill="#EF8062"/>
<path d="M82 289.618L56.5279 293L56 277.829L63.4145 269L80.5925 271.538L82 289.618Z" fill="#6E66B3"/>
<path d="M60.1245 269.419L88.9524 357.22L88.466 349.546L80.4616 398.735L76.3572 447L100.964 445.844L121.314 355.201L122 352.102L120.827 347.527L105.048 255.375L95.0887 237L53 249.8L60.1245 269.419Z" fill="#6E66B3"/>
<path d="M21.6569 266.149L23.2988 287.301L24.8277 308.46C25.8726 322.568 26.7284 336.68 27.6857 350.794C28.6387 364.91 29.4052 379.019 30.26 393.138L31.384 414.318L32.3611 435.503L32.9374 447.999L57.1978 448L61.1386 393.138L61.1386 371.732L61.7706 361.098C61.9864 357.552 62.0132 354.011 62.1438 350.467C62.5919 336.294 62.9386 322.12 63.4742 307.941L64.2393 286.67L65.1173 265.392L66 244L20 244.801L21.6569 266.149Z" fill="#6E66B3"/>
<path d="M50.0256 255.466L92 254L92.3974 263.992L50.423 265.458L50.0256 255.466Z" fill="#312220"/>
<path d="M76.1157 167.434L76.1158 167.434C78.4905 163.396 82.4778 160.793 86.8587 160L93.8993 160.814C94.4511 160.921 95.0633 161.092 95.7178 161.316L95.6862 160.912L115.354 167.254L149.312 178.204C152.511 179.51 155.057 181.752 156.737 184.488L157.66 186.259C158.995 189.235 159.381 192.623 158.597 195.974C158.54 196.218 158.495 196.462 158.425 196.706C155.868 205.645 145.95 210.374 137.242 206.804L133.209 205.495L130.217 204.525L83.6554 189.419C74.9158 185.836 71.3714 175.501 76.1157 167.434Z" fill="#6E66B3"/>
<path d="M79.7486 152L52 153.002L56.2438 162L80 159.704L79.7486 152Z" fill="#CCB2F1"/>
<path d="M94 138.072L100.532 122.012C100.532 122.012 112.42 121.067 114.992 135.663C115.139 136.497 113.208 140.121 112.555 140.715L104.572 145.531C103.263 146.321 101.557 146.094 100.518 144.991L94 138.072Z" fill="#FFBB9C"/>
<path d="M113.644 136L123 149.803L112.499 158L104 145.706L113.644 136Z" fill="#FFBB9C"/>
<path d="M79 122.631L79.4193 120L97.0775 121.582L111 132.197L110.505 135L92.3964 128.353L79 122.631Z" fill="black"/>
<path d="M101.937 139.71L110.191 132.7C111.166 132.079 111.28 130.746 110.424 129.98L90.3078 111.388C89.798 110.932 89.0291 110.871 88.4485 111.241L79.6729 118.584C78.8623 119.101 78.7673 120.209 79.4792 120.846L99.7017 139.533C100.315 140.082 101.239 140.155 101.937 139.71Z" fill="black"/>
<path d="M101.937 142.71L110.191 135.7C111.166 135.079 111.28 133.746 110.424 132.98L90.3078 114.388C89.798 113.932 89.029 113.871 88.4487 114.241L79.6729 121.584C78.8622 122.101 78.7673 123.209 79.4793 123.846L99.7018 142.533C100.315 143.082 101.239 143.155 101.937 142.71Z" fill="white"/>
<path d="M107.996 143.665C107.452 144.529 104.809 146.571 101.161 145.848C96.3613 144.896 92.9169 142.146 92.9169 142.146C91.431 141.203 90.7627 140.203 91.0754 138.908C91.414 137.507 93.0603 136.735 94.1199 137.083L97.3666 138.861C97.3666 138.861 101.812 137.613 108 141.593L107.996 143.665Z" fill="#FFBB9C"/>
<path d="M154 176L153 174C153.36 174.626 153.689 175.3 154 176Z" fill="#F66390"/>
<path d="M69.3149 155L86 160.099C86 160.099 82.581 165.108 68.6556 167.472C65.0283 168.087 61.3164 168.189 57.6776 167.65C53.3775 167.013 48.6061 165.437 48 161.604L59.7103 155.338L69.3149 155Z" fill="#D08864"/>
<path d="M85.039 159C75.3994 171.609 48 161.611 48 161.611L49.6729 256L89 254.673L85.039 159Z" fill="#CCB2F1"/>
<path d="M47.3207 158.043L58.216 198.41L59 288L28.3953 282.078C28.3953 282.078 28.7983 207.106 22.6728 184.924C18.9922 171.596 20.5673 158.845 35.7535 158.33L45.4691 158L47.3207 158.043Z" fill="#6E66B3"/>
<path d="M60 288L59.2161 204L58.1576 204.011L58.9296 286.725L29.2037 280.958L29 281.986L60 288Z" fill="#454584"/>
<path d="M102 151.395L109.069 160L125 147.347L118.143 139L102 151.395Z" fill="#CCB2F1"/>
<path d="M74.1054 138.012L75.9467 159.587C76.4916 165.786 72.816 165.497 66.9949 165.952C62.0259 166.341 56.3634 164.378 56.1115 158.893L55 131L74.1054 138.012Z" fill="#ECB6A2"/>
<path d="M76 153L58 143.021L74.8414 140L76 153Z" fill="#DDA290"/>
<path d="M78.0016 121.618C78.084 125.759 81.284 129.064 85.1491 128.999C89.0141 128.934 92.0805 125.524 91.9984 121.382C91.9161 117.241 88.7159 113.936 84.8511 114.001C80.986 114.066 77.9193 117.476 78.0016 121.618Z" fill="#DDA290"/>
<path d="M69.8603 143.997C79.8697 143.149 87.4213 134.379 86.9817 126.011L85.9666 108.509C85.4157 98.0205 76.8132 89.832 66.5251 90.0026C55.9927 90.1774 45.7856 99.0636 46.0034 109.812L46.9618 123.441C47.8104 135.712 57.8122 144.196 69.8603 143.997Z" fill="#ECB6A2"/>
<path d="M38.0016 123.618C38.084 127.759 41.284 131.064 45.1491 130.999C49.0142 130.934 52.0807 127.524 51.9984 123.382C51.916 119.241 48.716 115.936 44.8509 116.001C40.9858 116.066 37.9195 119.476 38.0016 123.618Z" fill="#ECB6A2"/>
<path d="M47.5942 125C47.6099 125 47.6261 124.999 47.6418 124.997C47.8645 124.97 48.0235 124.766 47.9972 124.541C47.9845 124.431 47.6656 121.855 45.7437 120.625C44.5613 119.869 43.0585 119.798 41.2747 120.415C41.0626 120.488 40.9498 120.722 41.0216 120.937C41.094 121.152 41.3269 121.266 41.5359 121.193C43.0752 120.661 44.3451 120.703 45.3114 121.32C46.9094 122.343 47.1898 124.614 47.1923 124.636C47.2166 124.846 47.3918 125 47.5942 125Z" fill="#312220"/>
<path d="M86.5832 121.878C86.5832 121.878 86.6967 128.124 83.2914 129.333C80.2377 130.418 78.4482 128.439 74.3583 128.724C69.0316 129.096 65.6792 129.628 60.2003 132.582C55.6178 135.052 48.6298 123.035 47.8528 115.167C47.7703 114.331 46 116.904 46 116.904L47.8282 129.19C47.8282 129.19 50.8512 147.438 70.9361 145.909C91.0208 144.38 86.5832 121.878 86.5832 121.878Z" fill="#332C30"/>
<path d="M45 106.219L46.0472 117.178L46.9348 121L49 106L45 106.219Z" fill="#332C30"/>
<path d="M71.4843 127C71.4922 127 71.4995 126.999 71.5068 126.999L74.537 126.873C74.6787 126.866 74.8101 126.804 74.8973 126.701C74.9839 126.598 75.0184 126.466 74.9906 126.338L74.1276 122.361C74.0749 122.118 73.8212 121.958 73.5572 122.01C73.2944 122.058 73.1242 122.294 73.1769 122.536L73.929 126.002L71.4632 126.105C71.1955 126.116 70.9884 126.326 71.0005 126.572C71.0126 126.813 71.227 127 71.4843 127Z" fill="#312220"/>
<path d="M76.0057 111.564C76.0057 111.564 75.7939 113.131 77.9581 112.991C79.6014 112.885 80.6401 112.795 81.6093 112.942C82.1597 113.025 82.7119 112.749 82.9181 112.29C83.0846 111.92 82.9942 111.505 82.6749 111.236C82.0277 110.69 80.7342 109.904 78.7328 110.01C76.1625 110.146 76.0057 111.564 76.0057 111.564Z" fill="#332C30"/>
<path d="M66.9664 112.668C66.9664 112.668 67.461 114.603 64.6534 114.648C62.5217 114.681 61.171 114.675 59.9432 114.956C59.246 115.116 58.4957 114.827 58.1652 114.275C57.8983 113.829 57.956 113.302 58.3292 112.934C59.0857 112.187 60.6407 111.074 63.2338 111.003C66.5638 110.913 66.9664 112.668 66.9664 112.668Z" fill="#332C30"/>
<path d="M63.7653 122C64.7289 122 65.8334 121.753 66.8224 120.919C67.0073 120.763 67.0559 120.45 66.9298 120.22C66.8036 119.99 66.5523 119.931 66.3664 120.087C64.3424 121.792 61.5756 120.546 61.5472 120.533C61.3365 120.437 61.1044 120.569 61.0259 120.829C60.9474 121.089 61.0533 121.379 61.263 121.476C61.338 121.511 62.4116 122 63.7653 122Z" fill="#312220"/>
<path d="M79.2774 121C80.1041 121 81.0511 120.77 81.8399 119.969C82.0197 119.787 82.053 119.447 81.9147 119.211C81.7764 118.975 81.5188 118.93 81.34 119.112C79.8833 120.591 77.5667 119.573 77.5426 119.563C77.3295 119.465 77.0955 119.618 77.0222 119.9C76.949 120.183 77.0627 120.49 77.2768 120.587C77.3393 120.615 78.2079 121 79.2774 121Z" fill="#312220"/>
<path d="M72.0061 133C73.2994 133 74.7042 132.727 75.8298 131.83C76.0087 131.687 76.054 131.403 75.9301 131.196C75.8056 130.991 75.5609 130.938 75.3804 131.08C72.8936 133.065 68.5596 131.494 68.5154 131.479C68.309 131.403 68.0854 131.533 68.0191 131.773C67.9523 132.013 68.0665 132.269 68.274 132.346C68.3893 132.389 70.0721 133 72.0061 133Z" fill="white"/>
<path d="M47.1479 118.214L43.7393 111.783C40.3361 102.126 49.2242 91.9329 59.3053 89.7997C63.2935 88.9557 65.2564 89.2113 68.4252 89.0286C77.4727 88.5072 85.4099 95.1631 85.8768 104.146L86 106.517C85.9191 105.248 84.5156 105.997 84.2066 103.903C83.804 101.173 81.7638 98.9282 79.1463 98.0013C70.2523 94.8519 60.4685 97.7912 55.7501 101.524C52.5181 104.081 52.5181 107.07 53.4788 108.942C53.9572 109.874 53.8334 111.813 53.5644 113.947C53.1792 117.004 51.7756 119.85 49.5525 122V122L47.1479 118.214Z" fill="#312220"/>
<path d="M127.277 145L155.458 178.307L156.768 179.816C158.762 182.403 159.942 185.614 159.991 189.064C159.994 189.315 160.001 189.564 160 189.818C159.948 201.119 151.197 209.268 141.978 207.837L141.756 207.792C140.122 207.461 138.577 206.79 137.222 205.822L136.169 205.07C135.244 204.409 134.436 203.598 133.781 202.669L111.582 171.242L105 161.403L127.277 145Z" fill="#716DC6"/>
<path d="M74 170.715L67.0677 166L60 172.031L68.4721 179L74 170.715Z" fill="#312220"/>
<path d="M69.1752 175L79 234.093L71.564 252L64 234.605L67.7861 176.125L69.1752 175Z" fill="#312220"/>
<path d="M86.6972 287C86.5147 270.508 85.7322 235.327 85 208.338L86.2685 245.085L96.5111 191.762L87.3806 183.587L97.5477 177.308L96.2875 161C102.469 163.141 112.485 170.227 111.953 175.589L104.693 221.304L112 272.533L86.6972 287Z" fill="#6E66B3"/>
<path d="M85.7347 288L112 271.786L111.442 270.65L86.8337 285.751C86.7358 276.178 86.4957 260.521 86.1204 242L85 242.031C85.3906 261.281 85.634 277.321 85.7243 286.883L85.7347 288Z" fill="#454584"/>
<path d="M84.5826 196.604L84.6243 195C84.7457 199.464 84.872 204.165 85 209L84.5826 196.604Z" fill="#4E4AA0"/>
<path d="M96 161L94 160C94.6729 160.259 95.3422 160.577 96 161Z" fill="#6E66B3"/>
<path d="M94.1526 160.36L87 159.323C89.1841 158.827 91.4605 158.894 93.6931 159.579L95.9679 160.485L96 161C95.3351 160.714 94.7132 160.497 94.1526 160.36Z" fill="#4E4AA0"/>
<path d="M86.7726 183.363L95.9573 191.556L85.6539 245L84.3778 208.169C84.2491 203.443 84.1221 198.849 84 194.487L84.5336 159L93.9096 160.218C94.4627 160.326 95.0764 160.498 95.7324 160.724L97 177.069L86.7726 183.363Z" fill="#4E4AA0"/>
<path d="M67 165.909L74.383 177L86 159.845L79.5776 152L67 165.909Z" fill="#F3E9FE"/>
<path d="M97.5438 281L112 272.253L104.434 220.407L110.02 183.179L108.943 183L103.33 220.405L110.809 271.649L97 280.006L97.5438 281Z" fill="#454584"/>
<path d="M62.514 268L83 267.283L82.4866 252L62 252.719L62.514 268ZM78.4186 262.915L66.7913 263.322L66.5814 257.085L78.2092 256.678L78.4186 262.915Z" fill="#AF6B64"/>
<path d="M51.5629 153L40 159.128L61.1091 179L67 166.092L51.5629 153Z" fill="#F3E9FE"/>
<path d="M35.9999 160.967C23.778 153.586 13.5788 176.643 7.85736 186.968L-9.04679 217.474C-10.4544 220.545 -10.7681 223.856 -10.1329 226.947L-9.60335 228.838C-8.55988 231.871 -6.56195 234.57 -3.75403 236.463C-3.54954 236.601 -3.3528 236.746 -3.13976 236.875C4.68487 241.615 14.9408 238.417 18.7639 230.046L20.7661 226.417L22.2514 223.725L45.3674 181.831C49.2045 173.429 44.8008 163.621 35.9999 160.967Z" fill="#6E66B3"/>
<path d="M38.0208 158.443L31 159.838L45.8043 182.637L52.5889 185.642L47.6528 195.335L59.2923 246L63 189.987L45.4645 157L38.0208 158.443Z" fill="#4E4AA0"/>
<path d="M26.6754 276L15 260.126L27.5614 250L44 267.79L26.6754 276Z" fill="#FFBB9C"/>
<path d="M51 282L49.25 264L23 270.84L26.0996 278.639L51 282Z" fill="#6E66B3"/>
<path d="M31.0045 261.832C31.6556 260.784 34.8191 258.307 39.1851 259.185C44.93 260.34 46.0492 263.391 46.0492 263.391C48.797 264.916 53.3526 265.222 52.9783 266.791C52.6199 270.191 48.8809 270.239 47.6127 269.816L43.7268 267.659C43.7268 267.659 38.4057 269.174 31 264.346L31.0045 261.832Z" fill="#FFBB9C"/>
<path d="M19.9329 270L-7.11235 237.284L-8.2336 235.999C-9.9402 233.796 -10.9507 231.062 -10.9919 228.124C-10.995 227.91 -11.0009 227.698 -10.9999 227.482C-10.9551 217.859 -3.46509 210.92 4.42532 212.139L4.61573 212.177C6.01366 212.459 7.33608 213.031 8.49656 213.855L9.39743 214.495C10.1894 215.057 10.8806 215.748 11.4418 216.539L30.442 243.299L39 256.033L19.9329 270Z" fill="#6E66B3"/>
<path d="M37.029 200.983L20.7925 229.421L30.2008 242.241L39.9985 255.84L20.6016 270.034" stroke="#454584"/>
<path d="M73.0696 27.2441V27.1863C71.3649 22.1715 67.517 18.1621 62.557 16.2331C57.5976 14.3035 52.033 14.6519 47.3557 17.1844H47.2741C45.9647 17.9081 44.7528 18.794 43.6673 19.8206H43.5857C39.8069 23.3968 37.776 28.4272 38.0196 33.6075C38.2627 38.788 40.7565 43.6083 44.8541 46.8195C45.1138 47.0219 45.2743 47.3249 45.2962 47.6521C45.3175 47.983 45.1949 48.3072 44.959 48.5421C43.4527 49.9399 41.747 51.1086 39.8979 52.0109C44.1623 53.4155 48.7836 53.3215 52.9874 51.7451C53.6787 51.4782 54.3544 51.1736 55.0116 50.8319C55.1944 50.7349 55.398 50.6833 55.6053 50.6812H56.0359C60.7782 50.6605 65.3205 48.7851 68.6822 45.4619C72.0438 42.1382 73.9542 37.6333 74 32.9209C74.0031 30.9909 73.6893 29.0736 73.0696 27.2441Z" fill="white"/>
<rect x="54" y="24" width="3" height="17" rx="1.5" fill="#EF8062"/>
<rect x="47" y="34" width="3" height="17" rx="1.5" transform="rotate(-90 47 34)" fill="#EF8062"/>
<path d="M78.0946 55.9092C77.9409 55.7486 77.864 55.5326 77.8819 55.314C77.8998 55.0954 78.0114 54.8942 78.1889 54.7598C81.064 52.5486 82.8139 49.231 82.9861 45.6656C83.1577 42.1001 81.7349 38.6369 79.0851 36.1727C78.2962 35.4538 77.4163 34.8354 76.4663 34.3336H76.3958L75.9239 34C75.6091 38.2905 73.8935 42.3701 71.0283 45.6424C68.1632 48.9143 64.2986 51.207 60 52.1847C62.3596 55.477 66.2237 57.4348 70.3447 57.4265H70.439C70.6396 57.4003 70.8434 57.428 71.0288 57.5066C74.3105 59.1594 78.1376 59.4534 81.6447 58.323C80.3546 57.7323 79.1619 56.9574 78.1061 56.024L78.0946 55.9092Z" fill="white"/>
</svg>
