<svg width="231" height="406" viewBox="0 0 231 406" fill="none" xmlns="http://www.w3.org/2000/svg">
<path fill-rule="evenodd" clip-rule="evenodd" d="M87.4364 61.198C103.189 46.5084 105.681 23.6768 93.0028 10.2023C80.3243 -3.27225 57.2763 -2.28721 41.5236 12.4024C25.7709 27.0921 23.2787 49.9236 35.9572 63.3981C43.8458 71.782 55.7488 74.5681 67.4112 71.9382L76.3508 82L77.697 68.1299C81.1286 66.3265 84.4166 64.0141 87.4364 61.198Z" fill="#EF8062"/>
<path fill-rule="evenodd" clip-rule="evenodd" d="M53.4056 35.7575C54.2896 32.5546 58.2019 26.1726 66.496 26.1438C72.4778 26.1231 75.2522 31.2005 74.9529 34.2513C74.9292 34.4935 74.7893 35.0076 73.9119 36.0849C73.4823 36.6124 72.9669 37.1681 72.3193 37.8473C72.2153 37.9564 72.1068 38.0698 71.9948 38.1868L71.9946 38.187L71.9945 38.1871C71.4518 38.7542 70.8275 39.4064 70.2329 40.074C68.7897 41.6946 67.1136 43.8396 66.1442 46.6125C65.1295 49.5149 65.0088 52.7462 66.0841 56.3216L75.6787 53.4722C75.1773 51.8048 75.3185 50.73 75.6039 49.9136C75.9346 48.9678 76.5969 47.9815 77.7301 46.7091C78.1947 46.1873 78.6702 45.6902 79.2079 45.1281L79.2079 45.1281L79.2091 45.1269C79.3316 44.9988 79.4572 44.8674 79.5868 44.7316C80.2463 44.0398 80.9976 43.2406 81.6941 42.3854C83.0688 40.6974 84.6187 38.3355 84.9222 35.2417C85.711 27.2019 79.2349 16.1164 66.4418 16.1607C51.947 16.211 45.2962 27.4799 43.7471 33.0927L53.4056 35.7575ZM74.3002 67.7568C76.9308 66.238 77.8238 62.8791 76.2949 60.2544C74.7659 57.6297 71.3939 56.7332 68.7633 58.2519C66.1327 59.7707 65.2396 63.1297 66.7686 65.7544C68.2976 68.3791 71.6696 69.2756 74.3002 67.7568Z" fill="white"/>
<g clip-path="url(#clip0_1199_48907)">
<path d="M57.0038 160.964C44.7744 153.59 34.5806 176.641 28.8611 186.964L11.9628 217.465C10.5559 220.536 10.2434 223.845 10.8801 226.935L11.4106 228.825C12.4557 231.857 14.4554 234.554 17.2651 236.445C17.4697 236.583 17.6666 236.728 17.8798 236.857C25.7092 241.592 35.9677 238.392 39.7889 230.023L41.7904 226.395L43.2751 223.703L66.3831 181.817C70.2183 173.417 65.809 163.613 57.0038 160.964Z" fill="#6E66B3"/>
<path d="M138.844 268.181L147.409 292.995L162.611 287.197L154.779 262.211L138.844 268.181Z" fill="#ECB6A2"/>
<path d="M159.878 271.434L162.801 281.686L142.992 287.422L140.157 277.477L159.878 271.434Z" fill="#CCB2F1"/>
<path d="M100.327 166.346L133.917 275.668C134.728 278.333 137.579 279.849 140.358 279.093L157.789 273.843C160.717 273.046 162.206 270.612 161.321 267.813L133.679 181.091C129.758 169.426 118.307 162.736 105.757 164.779L100.327 166.346Z" fill="#6E66B3"/>
<path d="M140.193 278.522L140.418 279.496L159.505 273.521L159.28 272.547L140.193 278.522Z" fill="#595996"/>
<path d="M124.387 349.895L134.628 378.231C136.414 383.172 141.868 385.793 146.977 384.166L216.772 361.935C220.186 360.848 222.298 357.466 221.722 354.001C220.461 346.414 217.644 333.022 212.135 321.384L124.387 349.895Z" fill="#7F4B49"/>
<path d="M213.806 360.795C213.806 360.795 213.806 360.795 213.806 360.795L213.295 360.958C213.248 360.973 213.198 360.947 213.183 360.9C213.168 360.853 213.194 360.803 213.241 360.788C213.241 360.788 213.241 360.788 213.241 360.787L213.751 360.625C213.798 360.61 213.849 360.636 213.864 360.683C213.879 360.73 213.853 360.78 213.806 360.795ZM214.991 360.401C214.947 360.415 214.898 360.393 214.881 360.349C214.863 360.303 214.885 360.251 214.931 360.233C215.094 360.169 215.257 360.097 215.415 360.02C215.458 359.998 215.512 360.017 215.534 360.062C215.555 360.106 215.537 360.159 215.493 360.181C215.331 360.26 215.164 360.333 214.997 360.399C214.995 360.4 214.993 360.4 214.991 360.401ZM212.106 361.337C212.105 361.337 212.105 361.337 212.105 361.337L211.595 361.499C211.548 361.514 211.498 361.488 211.483 361.441C211.468 361.394 211.493 361.344 211.54 361.329C211.54 361.329 211.54 361.329 211.541 361.329L212.051 361.167C212.098 361.152 212.148 361.178 212.163 361.225C212.178 361.271 212.152 361.321 212.106 361.337ZM210.405 361.878C210.405 361.878 210.404 361.878 210.404 361.878L209.894 362.041C209.847 362.056 209.797 362.03 209.782 361.983C209.767 361.936 209.793 361.886 209.839 361.871C209.84 361.871 209.84 361.871 209.84 361.87L210.35 361.708C210.397 361.693 210.447 361.719 210.462 361.766C210.477 361.813 210.451 361.863 210.405 361.878ZM208.704 362.42C208.704 362.42 208.704 362.42 208.704 362.42L208.193 362.582C208.146 362.597 208.096 362.571 208.081 362.524C208.066 362.477 208.1 362.427 208.139 362.412L208.649 362.25C208.696 362.235 208.747 362.261 208.762 362.308C208.776 362.354 208.751 362.404 208.704 362.42ZM207.003 362.961C207.003 362.961 207.003 362.961 207.003 362.961L206.493 363.124C206.446 363.139 206.396 363.113 206.381 363.066C206.366 363.019 206.391 362.969 206.438 362.954C206.438 362.954 206.438 362.954 206.439 362.953L206.949 362.791C206.996 362.776 207.046 362.802 207.061 362.849C207.076 362.896 207.05 362.946 207.003 362.961ZM205.303 363.503C205.303 363.503 205.302 363.503 205.302 363.503L204.792 363.665C204.745 363.68 204.695 363.654 204.68 363.607C204.665 363.56 204.697 363.507 204.738 363.495L205.248 363.333C205.295 363.318 205.345 363.344 205.36 363.391C205.375 363.437 205.349 363.487 205.303 363.503ZM203.602 364.044C203.602 364.044 203.602 364.044 203.602 364.044L203.091 364.207C203.044 364.222 202.994 364.196 202.979 364.149C202.964 364.102 202.99 364.052 203.037 364.037C203.037 364.037 203.037 364.037 203.037 364.037L203.547 363.874C203.594 363.859 203.644 363.885 203.659 363.932C203.674 363.979 203.649 364.029 203.602 364.044ZM201.901 364.586C201.901 364.586 201.901 364.586 201.901 364.586L201.391 364.748C201.344 364.763 201.293 364.737 201.278 364.69C201.264 364.643 201.289 364.593 201.336 364.578C201.336 364.578 201.336 364.578 201.336 364.578L201.847 364.416C201.894 364.401 201.944 364.427 201.959 364.474C201.974 364.52 201.948 364.57 201.901 364.586ZM200.201 365.127C200.2 365.127 200.2 365.127 200.2 365.127L199.69 365.29C199.643 365.305 199.593 365.279 199.578 365.232C199.563 365.185 199.589 365.135 199.635 365.12C199.635 365.12 199.636 365.12 199.636 365.12L200.146 364.957C200.193 364.942 200.243 364.968 200.258 365.015C200.273 365.062 200.247 365.112 200.201 365.127ZM198.5 365.669C198.5 365.669 198.5 365.669 198.499 365.669L197.989 365.831C197.942 365.846 197.892 365.82 197.877 365.773C197.862 365.726 197.888 365.677 197.935 365.661C197.935 365.661 197.935 365.661 197.935 365.661L198.445 365.499C198.492 365.484 198.542 365.51 198.557 365.557C198.572 365.604 198.547 365.653 198.5 365.669ZM196.799 366.21C196.799 366.21 196.799 366.21 196.799 366.21L196.289 366.373C196.242 366.388 196.191 366.362 196.176 366.315C196.161 366.268 196.187 366.218 196.234 366.203C196.234 366.203 196.234 366.203 196.234 366.203L196.745 366.04C196.792 366.025 196.842 366.051 196.857 366.098C196.872 366.145 196.846 366.195 196.799 366.21ZM195.099 366.752C195.098 366.752 195.098 366.752 195.098 366.752L194.588 366.914C194.541 366.929 194.491 366.903 194.476 366.856C194.461 366.809 194.486 366.759 194.533 366.744C194.533 366.744 194.534 366.744 194.534 366.744L195.044 366.582C195.091 366.567 195.141 366.593 195.156 366.64C195.171 366.687 195.145 366.737 195.099 366.752ZM193.398 367.293C193.398 367.293 193.398 367.293 193.397 367.293L192.887 367.456C192.84 367.471 192.79 367.445 192.775 367.398C192.76 367.351 192.786 367.301 192.832 367.286C192.833 367.286 192.833 367.286 192.833 367.286L193.343 367.123C193.39 367.108 193.44 367.134 193.455 367.181C193.47 367.228 193.445 367.278 193.398 367.293ZM191.697 367.835C191.697 367.835 191.697 367.835 191.697 367.835L191.186 367.997C191.139 368.012 191.089 367.986 191.074 367.939C191.059 367.893 191.085 367.843 191.132 367.827C191.132 367.827 191.132 367.827 191.132 367.827L191.642 367.665C191.689 367.65 191.74 367.676 191.755 367.723C191.77 367.77 191.744 367.82 191.697 367.835ZM189.996 368.376C189.996 368.376 189.996 368.376 189.996 368.377L189.486 368.539C189.439 368.554 189.389 368.528 189.374 368.481C189.359 368.434 189.384 368.384 189.431 368.369C189.431 368.369 189.431 368.369 189.432 368.369L189.942 368.206C189.989 368.191 190.039 368.217 190.054 368.264C190.069 368.311 190.043 368.361 189.996 368.376ZM188.296 368.918C188.296 368.918 188.295 368.918 188.295 368.918L187.785 369.08C187.738 369.095 187.688 369.07 187.673 369.022C187.658 368.976 187.691 368.929 187.731 368.91L188.241 368.748C188.288 368.733 188.338 368.759 188.353 368.806C188.368 368.853 188.342 368.903 188.296 368.918ZM186.595 369.459C186.595 369.459 186.595 369.459 186.595 369.459L186.084 369.622C186.037 369.637 185.987 369.611 185.972 369.564C185.957 369.517 185.983 369.467 186.03 369.452C186.03 369.452 186.03 369.452 186.03 369.452L186.54 369.289C186.587 369.274 186.637 369.3 186.652 369.347C186.667 369.394 186.642 369.444 186.595 369.459ZM184.894 370.001C184.894 370.001 184.894 370.001 184.894 370.001L184.384 370.163C184.337 370.178 184.287 370.152 184.272 370.105C184.257 370.058 184.288 370.009 184.33 369.993L184.84 369.831C184.887 369.816 184.937 369.842 184.952 369.889C184.967 369.936 184.941 369.986 184.894 370.001ZM183.194 370.542C183.194 370.542 183.193 370.543 183.193 370.543L182.683 370.705C182.636 370.72 182.586 370.694 182.571 370.647C182.556 370.6 182.582 370.55 182.628 370.535C182.628 370.535 182.629 370.535 182.629 370.535L183.139 370.372C183.186 370.357 183.236 370.383 183.251 370.43C183.266 370.477 183.24 370.527 183.194 370.542ZM181.493 371.084C181.493 371.084 181.493 371.084 181.492 371.084L180.982 371.247C180.935 371.262 180.885 371.236 180.87 371.189C180.855 371.142 180.886 371.088 180.928 371.076L181.438 370.914C181.485 370.899 181.535 370.925 181.55 370.972C181.565 371.019 181.54 371.069 181.493 371.084ZM179.792 371.625C179.792 371.625 179.792 371.625 179.792 371.626L179.282 371.788C179.235 371.803 179.184 371.777 179.169 371.73C179.155 371.683 179.18 371.633 179.227 371.618C179.227 371.618 179.227 371.618 179.227 371.618L179.738 371.455C179.785 371.44 179.835 371.466 179.85 371.513C179.865 371.56 179.839 371.61 179.792 371.625ZM178.092 372.167C178.091 372.167 178.091 372.167 178.091 372.167L177.581 372.33C177.534 372.345 177.484 372.318 177.469 372.272C177.454 372.225 177.48 372.175 177.526 372.16C177.526 372.159 177.527 372.159 177.527 372.159L178.037 371.997C178.084 371.982 178.134 372.008 178.149 372.055C178.164 372.102 178.138 372.152 178.092 372.167ZM176.391 372.709C176.391 372.709 176.391 372.709 176.39 372.709L175.88 372.871C175.833 372.886 175.783 372.86 175.768 372.813C175.753 372.766 175.779 372.716 175.826 372.701C175.826 372.701 175.826 372.701 175.826 372.701L176.336 372.538C176.383 372.523 176.433 372.55 176.448 372.597C176.463 372.643 176.438 372.693 176.391 372.709ZM174.69 373.25C174.69 373.25 174.69 373.25 174.69 373.25L174.179 373.413C174.133 373.428 174.082 373.402 174.067 373.355C174.052 373.308 174.078 373.258 174.125 373.243C174.125 373.243 174.125 373.243 174.125 373.242L174.636 373.08C174.683 373.065 174.733 373.091 174.748 373.138C174.763 373.185 174.737 373.235 174.69 373.25ZM172.99 373.792C172.989 373.792 172.989 373.792 172.989 373.792L172.479 373.954C172.432 373.969 172.382 373.943 172.367 373.896C172.352 373.849 172.377 373.799 172.424 373.784C172.424 373.784 172.424 373.784 172.425 373.784L172.935 373.621C172.982 373.606 173.032 373.632 173.047 373.679C173.062 373.726 173.036 373.776 172.99 373.792ZM171.289 374.333C171.289 374.333 171.288 374.333 171.288 374.333L170.778 374.496C170.731 374.511 170.681 374.485 170.666 374.438C170.651 374.391 170.677 374.341 170.723 374.326C170.724 374.326 170.724 374.326 170.724 374.325L171.234 374.163C171.281 374.148 171.331 374.174 171.346 374.221C171.361 374.268 171.335 374.318 171.289 374.333ZM169.588 374.875C169.588 374.875 169.588 374.875 169.588 374.875L169.077 375.037C169.03 375.052 168.98 375.026 168.965 374.979C168.95 374.932 168.976 374.882 169.023 374.867C169.023 374.867 169.023 374.867 169.023 374.867L169.533 374.705C169.58 374.69 169.631 374.716 169.646 374.763C169.661 374.809 169.635 374.859 169.588 374.875ZM167.887 375.416C167.887 375.416 167.887 375.416 167.887 375.416L167.377 375.579C167.33 375.594 167.28 375.568 167.265 375.521C167.25 375.474 167.275 375.424 167.322 375.409C167.322 375.409 167.322 375.409 167.322 375.409L167.833 375.246C167.88 375.231 167.93 375.257 167.945 375.304C167.96 375.351 167.934 375.401 167.887 375.416ZM166.187 375.958C166.187 375.958 166.186 375.958 166.186 375.958L165.676 376.12C165.629 376.135 165.579 376.109 165.564 376.062C165.549 376.015 165.575 375.965 165.621 375.95C165.622 375.95 165.622 375.95 165.622 375.95L166.132 375.788C166.179 375.773 166.229 375.799 166.244 375.846C166.259 375.892 166.233 375.942 166.187 375.958ZM164.486 376.499C164.486 376.499 164.486 376.499 164.486 376.499L163.975 376.662C163.928 376.677 163.878 376.651 163.863 376.604C163.848 376.557 163.879 376.51 163.921 376.492L164.431 376.329C164.478 376.314 164.529 376.34 164.544 376.387C164.558 376.434 164.533 376.484 164.486 376.499ZM162.785 377.041C162.785 377.041 162.785 377.041 162.785 377.041L162.275 377.203C162.228 377.218 162.177 377.192 162.162 377.145C162.148 377.099 162.173 377.048 162.22 377.033C162.22 377.033 162.22 377.033 162.22 377.033L162.731 376.871C162.778 376.856 162.828 376.882 162.843 376.929C162.858 376.975 162.832 377.026 162.785 377.041ZM161.085 377.582C161.085 377.582 161.084 377.582 161.084 377.582L160.574 377.745C160.527 377.76 160.477 377.734 160.462 377.687C160.447 377.64 160.477 377.59 160.52 377.575L161.03 377.412C161.077 377.397 161.127 377.423 161.142 377.47C161.157 377.517 161.131 377.567 161.085 377.582ZM159.384 378.124C159.384 378.124 159.384 378.124 159.383 378.124L158.873 378.286C158.826 378.301 158.776 378.275 158.761 378.228C158.746 378.182 158.772 378.132 158.819 378.116C158.819 378.116 158.819 378.116 158.819 378.116L159.329 377.954C159.376 377.939 159.426 377.965 159.441 378.012C159.456 378.059 159.431 378.109 159.384 378.124ZM216.549 359.54C216.513 359.551 216.473 359.54 216.449 359.508C216.42 359.468 216.428 359.412 216.468 359.383C216.609 359.279 216.748 359.168 216.881 359.053C216.918 359.021 216.974 359.025 217.007 359.062C217.039 359.1 217.035 359.156 216.998 359.188C216.862 359.306 216.719 359.42 216.574 359.527C216.566 359.533 216.557 359.537 216.549 359.54ZM157.683 378.665C157.683 378.665 157.683 378.665 157.683 378.665L157.173 378.828C157.125 378.843 157.075 378.817 157.06 378.77C157.045 378.723 157.074 378.67 157.118 378.658L157.629 378.495C157.676 378.48 157.726 378.506 157.741 378.553C157.756 378.6 157.73 378.65 157.683 378.665ZM155.983 379.207C155.982 379.207 155.982 379.207 155.982 379.207L155.472 379.369C155.425 379.384 155.375 379.358 155.36 379.311C155.345 379.264 155.37 379.215 155.417 379.199C155.417 379.199 155.418 379.199 155.418 379.199L155.928 379.037C155.975 379.022 156.025 379.048 156.04 379.095C156.055 379.142 156.029 379.192 155.983 379.207ZM154.282 379.748C154.282 379.748 154.282 379.748 154.281 379.748L153.771 379.911C153.724 379.926 153.674 379.9 153.659 379.853C153.644 379.806 153.67 379.756 153.716 379.741C153.717 379.741 153.717 379.741 153.717 379.741L154.227 379.578C154.274 379.563 154.324 379.589 154.339 379.636C154.354 379.683 154.329 379.733 154.282 379.748ZM152.581 380.29C152.581 380.29 152.581 380.29 152.581 380.29L152.07 380.452C152.023 380.467 151.973 380.441 151.958 380.394C151.943 380.348 151.969 380.298 152.016 380.282C152.016 380.282 152.016 380.282 152.016 380.282L152.526 380.12C152.573 380.105 152.624 380.131 152.639 380.178C152.654 380.225 152.628 380.275 152.581 380.29ZM150.88 380.831C150.88 380.831 150.88 380.831 150.88 380.831L150.37 380.994C150.323 381.009 150.273 380.983 150.258 380.936C150.243 380.889 150.268 380.839 150.315 380.824C150.315 380.824 150.315 380.824 150.316 380.824L150.826 380.661C150.873 380.646 150.923 380.672 150.938 380.719C150.953 380.766 150.927 380.816 150.88 380.831ZM149.18 381.373C149.18 381.373 149.179 381.373 149.179 381.373L148.669 381.535C148.622 381.55 148.572 381.524 148.557 381.477C148.542 381.431 148.568 381.381 148.614 381.365C148.615 381.365 148.615 381.365 148.615 381.365L149.125 381.203C149.172 381.188 149.222 381.214 149.237 381.261C149.252 381.308 149.226 381.358 149.18 381.373ZM147.476 381.905C147.475 381.906 147.474 381.906 147.472 381.907C147.3 381.953 147.123 381.996 146.947 382.033C146.899 382.043 146.851 382.012 146.841 381.964C146.831 381.916 146.861 381.868 146.91 381.858C147.083 381.822 147.256 381.78 147.425 381.734C147.473 381.721 147.522 381.749 147.535 381.797C147.547 381.843 147.521 381.891 147.476 381.905ZM145.721 382.209C145.714 382.211 145.707 382.212 145.7 382.213C145.521 382.227 145.34 382.236 145.16 382.239C145.111 382.24 145.07 382.201 145.069 382.152C145.068 382.103 145.107 382.062 145.157 382.061C145.333 382.057 145.511 382.048 145.686 382.035C145.735 382.031 145.778 382.068 145.782 382.117C145.785 382.159 145.759 382.196 145.721 382.209ZM217.833 358.307C217.805 358.316 217.774 358.311 217.749 358.292C217.711 358.261 217.705 358.205 217.735 358.166C217.846 358.029 217.951 357.886 218.05 357.741C218.077 357.701 218.133 357.69 218.174 357.718C218.215 357.746 218.225 357.801 218.197 357.842C218.096 357.99 217.988 358.137 217.875 358.278C217.863 358.292 217.849 358.302 217.833 358.307ZM143.939 382.179C143.927 382.183 143.915 382.184 143.902 382.183C143.724 382.163 143.545 382.138 143.367 382.108C143.319 382.1 143.286 382.054 143.294 382.005C143.302 381.957 143.348 381.924 143.397 381.932C143.571 381.962 143.747 381.986 143.921 382.005C143.97 382.011 144.006 382.055 144 382.104C143.996 382.14 143.971 382.169 143.939 382.179ZM142.195 381.818C142.178 381.824 142.16 381.824 142.141 381.818C141.97 381.766 141.798 381.708 141.63 381.646C141.584 381.629 141.56 381.577 141.577 381.531C141.594 381.485 141.645 381.461 141.692 381.478C141.857 381.539 142.026 381.596 142.194 381.648C142.241 381.662 142.267 381.712 142.253 381.759C142.244 381.788 142.222 381.809 142.195 381.818ZM218.758 356.786C218.737 356.793 218.715 356.792 218.694 356.783C218.649 356.763 218.628 356.71 218.648 356.665C218.719 356.505 218.785 356.34 218.843 356.174C218.86 356.127 218.911 356.103 218.957 356.119C219.004 356.136 219.028 356.187 219.012 356.233C218.952 356.403 218.884 356.573 218.812 356.737C218.801 356.762 218.781 356.779 218.758 356.786ZM140.548 381.139C140.526 381.146 140.501 381.145 140.479 381.133C140.32 381.049 140.162 380.96 140.008 380.868C139.966 380.843 139.952 380.788 139.977 380.745C140.002 380.703 140.057 380.689 140.1 380.715C140.251 380.805 140.406 380.893 140.562 380.975C140.606 380.998 140.623 381.052 140.6 381.095C140.588 381.117 140.569 381.132 140.548 381.139ZM219.26 355.079C219.247 355.083 219.233 355.084 219.219 355.082C219.17 355.074 219.137 355.029 219.144 354.98C219.171 354.807 219.192 354.63 219.205 354.455C219.209 354.406 219.252 354.37 219.301 354.373C219.35 354.377 219.387 354.42 219.383 354.469C219.369 354.649 219.348 354.83 219.321 355.008C219.315 355.042 219.291 355.069 219.26 355.079ZM139.055 380.165C139.027 380.174 138.996 380.169 138.972 380.15C138.831 380.038 138.692 379.921 138.558 379.801C138.521 379.769 138.518 379.712 138.551 379.675C138.584 379.639 138.64 379.636 138.677 379.668C138.808 379.785 138.944 379.9 139.083 380.01C139.121 380.041 139.128 380.097 139.097 380.136C139.086 380.15 139.071 380.16 139.055 380.165ZM219.302 353.299C219.296 353.301 219.29 353.303 219.284 353.303C219.235 353.308 219.191 353.273 219.186 353.224C219.171 353.091 219.153 352.956 219.13 352.822L219.11 352.699C219.101 352.651 219.134 352.604 219.183 352.596C219.231 352.588 219.277 352.621 219.286 352.669L219.306 352.792C219.329 352.93 219.349 353.068 219.363 353.205C219.368 353.248 219.341 353.287 219.302 353.299ZM137.77 378.928C137.737 378.939 137.699 378.93 137.674 378.902C137.558 378.766 137.443 378.624 137.333 378.481C137.303 378.442 137.311 378.386 137.35 378.356C137.389 378.326 137.445 378.333 137.475 378.372C137.582 378.513 137.695 378.652 137.81 378.785C137.842 378.823 137.838 378.879 137.8 378.911C137.791 378.919 137.781 378.925 137.77 378.928ZM219.011 351.537C219.007 351.539 219.003 351.54 218.999 351.54C218.951 351.549 218.904 351.517 218.896 351.468C218.865 351.295 218.833 351.119 218.801 350.941C218.792 350.892 218.824 350.846 218.873 350.837C218.921 350.828 218.968 350.861 218.977 350.909C219.009 351.087 219.041 351.263 219.071 351.437C219.079 351.481 219.053 351.524 219.011 351.537ZM136.74 377.471C136.701 377.483 136.656 377.467 136.635 377.43C136.546 377.274 136.46 377.113 136.38 376.953C136.358 376.909 136.376 376.856 136.42 376.834C136.465 376.812 136.518 376.83 136.54 376.874C136.618 377.031 136.702 377.188 136.79 377.341C136.814 377.384 136.8 377.439 136.757 377.463C136.751 377.466 136.746 377.469 136.74 377.471ZM218.688 349.78C218.685 349.782 218.681 349.783 218.677 349.783C218.629 349.792 218.582 349.761 218.573 349.712L218.472 349.186C218.463 349.138 218.495 349.091 218.543 349.082C218.591 349.072 218.638 349.104 218.647 349.152L218.748 349.679C218.757 349.724 218.73 349.767 218.688 349.78ZM136.003 375.847C135.958 375.862 135.908 375.838 135.892 375.793L135.71 375.289C135.693 375.243 135.717 375.191 135.764 375.175C135.809 375.155 135.861 375.182 135.878 375.228L136.06 375.732C136.076 375.779 136.052 375.83 136.006 375.846C136.005 375.847 136.004 375.847 136.003 375.847ZM218.345 348.028C218.342 348.029 218.339 348.03 218.335 348.03C218.287 348.04 218.24 348.009 218.23 347.96C218.195 347.787 218.16 347.612 218.124 347.435C218.114 347.387 218.146 347.341 218.193 347.33C218.241 347.32 218.288 347.351 218.298 347.399C218.335 347.576 218.37 347.751 218.405 347.925C218.414 347.97 218.388 348.014 218.345 348.028ZM135.397 374.168C135.351 374.182 135.302 374.158 135.286 374.113L135.104 373.609C135.087 373.563 135.111 373.511 135.157 373.495C135.203 373.477 135.255 373.502 135.272 373.548L135.453 374.052C135.47 374.099 135.446 374.15 135.4 374.167C135.399 374.167 135.398 374.167 135.397 374.168ZM217.982 346.278C217.979 346.279 217.976 346.28 217.973 346.281C217.925 346.291 217.878 346.26 217.867 346.212C217.83 346.039 217.793 345.864 217.755 345.689C217.744 345.641 217.775 345.593 217.823 345.582C217.871 345.572 217.919 345.603 217.929 345.651C217.967 345.827 218.005 346.001 218.042 346.175C218.052 346.22 218.025 346.265 217.982 346.278ZM134.791 372.488C134.745 372.503 134.696 372.479 134.68 372.433L134.498 371.929C134.481 371.883 134.505 371.832 134.551 371.815C134.589 371.795 134.649 371.822 134.665 371.869L134.847 372.373C134.864 372.419 134.84 372.47 134.794 372.487C134.793 372.487 134.792 372.487 134.791 372.488ZM217.599 344.534C217.597 344.535 217.594 344.536 217.591 344.536C217.543 344.547 217.496 344.517 217.485 344.469C217.446 344.296 217.406 344.121 217.366 343.946C217.355 343.899 217.384 343.851 217.433 343.84C217.481 343.828 217.529 343.859 217.54 343.907C217.58 344.082 217.62 344.256 217.659 344.429C217.669 344.475 217.643 344.52 217.599 344.534ZM134.185 370.808C134.139 370.823 134.09 370.799 134.073 370.753L133.891 370.249C133.875 370.203 133.899 370.152 133.945 370.135C133.984 370.116 134.042 370.142 134.059 370.189L134.241 370.693C134.258 370.739 134.234 370.79 134.188 370.807C134.187 370.807 134.186 370.807 134.185 370.808ZM217.196 342.794C217.194 342.794 217.192 342.795 217.189 342.796C217.141 342.807 217.093 342.777 217.082 342.73L216.957 342.209C216.945 342.161 216.973 342.113 217.023 342.101C217.071 342.089 217.119 342.119 217.13 342.167L217.255 342.688C217.266 342.734 217.24 342.779 217.196 342.794ZM133.579 369.128C133.533 369.143 133.483 369.119 133.467 369.073L133.285 368.569C133.269 368.523 133.293 368.472 133.339 368.455C133.384 368.438 133.436 368.462 133.453 368.509L133.635 369.013C133.652 369.059 133.628 369.11 133.581 369.127C133.58 369.127 133.579 369.128 133.579 369.128ZM216.772 341.059C216.77 341.059 216.768 341.06 216.766 341.06C216.718 341.072 216.67 341.043 216.658 340.995L216.527 340.476C216.514 340.429 216.543 340.381 216.591 340.368C216.639 340.356 216.688 340.384 216.7 340.432L216.831 340.952C216.843 340.998 216.816 341.044 216.772 341.059ZM132.972 367.448C132.927 367.463 132.877 367.439 132.861 367.393L132.679 366.89C132.662 366.843 132.687 366.792 132.733 366.775C132.776 366.756 132.83 366.783 132.847 366.829L133.029 367.333C133.046 367.379 133.022 367.43 132.975 367.447C132.974 367.447 132.973 367.448 132.972 367.448ZM216.327 339.329C216.325 339.329 216.324 339.33 216.322 339.33C216.274 339.343 216.225 339.314 216.213 339.267C216.167 339.095 216.122 338.922 216.075 338.749C216.062 338.702 216.091 338.652 216.138 338.64C216.186 338.627 216.235 338.655 216.248 338.703C216.294 338.876 216.34 339.049 216.385 339.221C216.398 339.267 216.371 339.314 216.327 339.329ZM132.366 365.768C132.321 365.783 132.271 365.759 132.255 365.714L132.073 365.21C132.056 365.163 132.08 365.112 132.127 365.095C132.17 365.077 132.224 365.103 132.241 365.149L132.423 365.653C132.44 365.699 132.415 365.751 132.369 365.767C132.368 365.768 132.367 365.768 132.366 365.768ZM215.859 337.605C215.858 337.605 215.857 337.606 215.856 337.606C215.808 337.619 215.759 337.592 215.746 337.544C215.698 337.373 215.65 337.201 215.601 337.028C215.588 336.981 215.616 336.929 215.663 336.918C215.71 336.905 215.76 336.932 215.773 336.98C215.822 337.152 215.87 337.325 215.918 337.496C215.931 337.542 215.905 337.59 215.859 337.605ZM131.76 364.088C131.715 364.103 131.665 364.079 131.649 364.034L131.467 363.53C131.45 363.483 131.474 363.432 131.521 363.416C131.56 363.397 131.618 363.423 131.635 363.469L131.817 363.973C131.833 364.02 131.809 364.071 131.763 364.087C131.762 364.088 131.761 364.088 131.76 364.088ZM215.369 335.887C215.368 335.888 215.367 335.888 215.367 335.888C215.319 335.902 215.27 335.875 215.256 335.827C215.206 335.657 215.155 335.485 215.104 335.314C215.09 335.267 215.116 335.219 215.164 335.203C215.212 335.189 215.261 335.216 215.276 335.263C215.327 335.435 215.377 335.606 215.427 335.777C215.441 335.824 215.415 335.872 215.369 335.887ZM131.154 362.408C131.109 362.423 131.059 362.399 131.043 362.354L130.861 361.85C130.844 361.804 130.868 361.752 130.914 361.736C130.954 361.717 131.012 361.743 131.029 361.789L131.211 362.293C131.227 362.34 131.203 362.391 131.157 362.407C131.156 362.408 131.155 362.408 131.154 362.408ZM214.855 334.177C214.855 334.177 214.854 334.177 214.854 334.177C214.807 334.192 214.757 334.165 214.742 334.118C214.69 333.948 214.637 333.777 214.583 333.607C214.569 333.56 214.601 333.51 214.642 333.495C214.689 333.48 214.739 333.506 214.754 333.553C214.807 333.724 214.86 333.895 214.913 334.066C214.927 334.112 214.902 334.162 214.855 334.177ZM130.548 360.729C130.502 360.743 130.453 360.719 130.436 360.674L130.255 360.17C130.238 360.124 130.262 360.073 130.308 360.056C130.349 360.038 130.406 360.063 130.422 360.109L130.604 360.613C130.621 360.66 130.597 360.711 130.551 360.728C130.55 360.728 130.549 360.728 130.548 360.729ZM214.317 332.474C214.27 332.489 214.219 332.464 214.204 332.417L214.191 332.376C214.14 332.22 214.089 332.064 214.038 331.908C214.022 331.861 214.048 331.811 214.095 331.795L214.095 331.795C214.142 331.78 214.192 331.806 214.207 331.852C214.259 332.008 214.31 332.164 214.361 332.32L214.374 332.361C214.389 332.408 214.364 332.459 214.317 332.474ZM129.942 359.049C129.896 359.064 129.847 359.04 129.83 358.994L129.649 358.49C129.632 358.444 129.656 358.393 129.702 358.376C129.747 358.355 129.8 358.383 129.816 358.43L129.998 358.934C130.015 358.98 129.991 359.031 129.945 359.048C129.944 359.048 129.943 359.048 129.942 359.049ZM213.752 330.78C213.706 330.795 213.656 330.77 213.64 330.724C213.583 330.556 213.525 330.387 213.466 330.218C213.45 330.172 213.475 330.121 213.521 330.105C213.56 330.088 213.618 330.113 213.635 330.16C213.693 330.329 213.752 330.498 213.809 330.666C213.825 330.713 213.8 330.764 213.754 330.78C213.753 330.78 213.753 330.78 213.752 330.78ZM129.336 357.369C129.29 357.384 129.241 357.36 129.224 357.314L129.042 356.81C129.026 356.764 129.05 356.713 129.096 356.696C129.137 356.678 129.194 356.703 129.21 356.75L129.392 357.254C129.409 357.3 129.385 357.351 129.338 357.368C129.338 357.368 129.337 357.369 129.336 357.369ZM213.161 329.096C213.116 329.11 213.066 329.086 213.05 329.041C212.989 328.873 212.928 328.706 212.867 328.538C212.85 328.492 212.874 328.44 212.92 328.423C212.966 328.404 213.018 328.43 213.034 328.476C213.096 328.644 213.157 328.812 213.218 328.98C213.234 329.027 213.21 329.078 213.164 329.095C213.163 329.095 213.162 329.095 213.161 329.096ZM128.73 355.689C128.684 355.704 128.634 355.68 128.618 355.634L128.436 355.13C128.42 355.084 128.444 355.033 128.49 355.016C128.535 354.998 128.587 355.024 128.604 355.07L128.786 355.574C128.803 355.62 128.779 355.671 128.732 355.688C128.731 355.688 128.73 355.689 128.73 355.689ZM212.541 327.421C212.496 327.436 212.447 327.413 212.43 327.368C212.367 327.201 212.303 327.035 212.239 326.868C212.221 326.822 212.244 326.77 212.29 326.753C212.335 326.736 212.387 326.758 212.405 326.804C212.47 326.97 212.534 327.137 212.597 327.304C212.615 327.35 212.591 327.402 212.545 327.42C212.544 327.42 212.543 327.421 212.541 327.421ZM128.124 354.009C128.078 354.024 128.028 354 128.012 353.954L127.83 353.451C127.813 353.404 127.837 353.353 127.884 353.336C127.933 353.321 127.981 353.344 127.998 353.39L128.18 353.894C128.197 353.94 128.173 353.991 128.126 354.008C128.125 354.009 128.124 354.009 128.124 354.009ZM211.891 325.758C211.847 325.772 211.799 325.75 211.781 325.706C211.714 325.54 211.647 325.375 211.58 325.21C211.561 325.164 211.583 325.112 211.629 325.094C211.677 325.075 211.727 325.097 211.745 325.143C211.813 325.308 211.88 325.474 211.947 325.639C211.965 325.685 211.943 325.737 211.897 325.756C211.895 325.756 211.893 325.757 211.891 325.758ZM127.517 352.329C127.472 352.344 127.422 352.32 127.406 352.275L127.224 351.771C127.207 351.724 127.231 351.673 127.278 351.656C127.318 351.635 127.375 351.664 127.392 351.71L127.574 352.214C127.591 352.26 127.566 352.312 127.52 352.328C127.519 352.329 127.518 352.329 127.517 352.329ZM211.209 324.107C211.166 324.121 211.118 324.1 211.1 324.057C211.03 323.893 210.96 323.729 210.889 323.565C210.869 323.52 210.89 323.467 210.935 323.448C210.981 323.429 211.033 323.449 211.053 323.494C211.124 323.658 211.194 323.823 211.264 323.987C211.283 324.033 211.262 324.085 211.217 324.104C211.214 324.106 211.212 324.106 211.209 324.107ZM126.911 350.649C126.866 350.664 126.816 350.64 126.8 350.595L126.618 350.091C126.601 350.044 126.625 349.993 126.671 349.976C126.713 349.96 126.769 349.984 126.786 350.03L126.968 350.534C126.984 350.581 126.96 350.632 126.914 350.648C126.913 350.649 126.912 350.649 126.911 350.649ZM210.494 322.471C210.451 322.485 210.404 322.464 210.385 322.423C210.312 322.26 210.238 322.097 210.164 321.935C210.143 321.89 210.163 321.837 210.208 321.817C210.254 321.795 210.305 321.816 210.326 321.861C210.4 322.023 210.474 322.186 210.548 322.349C210.568 322.394 210.548 322.447 210.503 322.467C210.5 322.469 210.497 322.47 210.494 322.471ZM126.305 348.97C126.259 348.984 126.21 348.96 126.193 348.915L125.98 348.324L126.288 348.224C126.335 348.209 126.386 348.235 126.401 348.281C126.416 348.328 126.391 348.379 126.344 348.394L126.211 348.437L126.361 348.854C126.378 348.901 126.354 348.952 126.308 348.969C126.307 348.969 126.306 348.969 126.305 348.97ZM209.52 321.368L209.011 321.534C208.964 321.549 208.913 321.523 208.898 321.476C208.883 321.43 208.908 321.379 208.955 321.364L209.465 321.199C209.512 321.183 209.562 321.209 209.577 321.256C209.592 321.303 209.567 321.353 209.52 321.368ZM207.822 321.92L207.313 322.085C207.266 322.101 207.216 322.075 207.201 322.028C207.185 321.981 207.211 321.931 207.258 321.916L207.767 321.75C207.814 321.735 207.864 321.76 207.88 321.807C207.895 321.854 207.869 321.905 207.822 321.92ZM206.125 322.471L205.616 322.637C205.569 322.652 205.518 322.626 205.503 322.58C205.488 322.533 205.514 322.482 205.56 322.467L206.07 322.302C206.117 322.286 206.167 322.312 206.182 322.359C206.197 322.406 206.172 322.456 206.125 322.471ZM204.427 323.023L203.918 323.188C203.871 323.204 203.821 323.178 203.806 323.131C203.79 323.084 203.816 323.034 203.863 323.019L204.372 322.853C204.419 322.838 204.469 322.864 204.485 322.911C204.5 322.957 204.474 323.008 204.427 323.023ZM202.73 323.575L202.221 323.74C202.174 323.755 202.123 323.729 202.108 323.683C202.093 323.636 202.119 323.585 202.166 323.57L202.675 323.405C202.722 323.389 202.772 323.415 202.787 323.462C202.802 323.509 202.777 323.559 202.73 323.575ZM201.032 324.126L200.523 324.292C200.476 324.307 200.426 324.281 200.411 324.234C200.396 324.187 200.421 324.137 200.468 324.122L200.977 323.956C201.024 323.941 201.075 323.967 201.09 324.014C201.105 324.06 201.079 324.111 201.032 324.126ZM199.335 324.678L198.826 324.843C198.779 324.858 198.729 324.833 198.713 324.786C198.698 324.739 198.724 324.689 198.771 324.673L199.28 324.508C199.327 324.493 199.377 324.518 199.392 324.565C199.407 324.612 199.382 324.662 199.335 324.678ZM197.638 325.229L197.128 325.395C197.081 325.41 197.031 325.384 197.016 325.337C197.001 325.29 197.026 325.24 197.073 325.225L197.582 325.059C197.629 325.044 197.68 325.07 197.695 325.117C197.71 325.163 197.684 325.214 197.638 325.229ZM195.94 325.781L195.431 325.946C195.384 325.961 195.334 325.936 195.318 325.889C195.303 325.842 195.329 325.792 195.376 325.776L195.885 325.611C195.932 325.596 195.982 325.621 195.997 325.668C196.013 325.715 195.987 325.765 195.94 325.781ZM194.243 326.332L193.733 326.498C193.686 326.513 193.636 326.487 193.621 326.44C193.606 326.393 193.631 326.343 193.678 326.328L194.187 326.162C194.234 326.147 194.285 326.173 194.3 326.22C194.315 326.267 194.289 326.317 194.243 326.332ZM192.545 326.884L192.036 327.049C191.989 327.064 191.939 327.039 191.923 326.992C191.908 326.945 191.934 326.895 191.981 326.879L192.49 326.714C192.537 326.699 192.587 326.724 192.602 326.771C192.618 326.818 192.592 326.869 192.545 326.884ZM190.848 327.435L190.338 327.601C190.291 327.616 190.241 327.59 190.226 327.543C190.211 327.497 190.236 327.446 190.283 327.431L190.792 327.266C190.839 327.25 190.89 327.276 190.905 327.323C190.92 327.37 190.895 327.42 190.848 327.435ZM189.15 327.987L188.641 328.152C188.594 328.168 188.544 328.142 188.528 328.095C188.513 328.048 188.539 327.998 188.586 327.983L189.095 327.817C189.142 327.802 189.192 327.827 189.207 327.874C189.223 327.921 189.197 327.972 189.15 327.987ZM187.453 328.538L186.943 328.704C186.897 328.719 186.846 328.693 186.831 328.647C186.816 328.6 186.841 328.549 186.888 328.534L187.398 328.369C187.444 328.353 187.495 328.379 187.51 328.426C187.525 328.473 187.5 328.523 187.453 328.538ZM185.755 329.09L185.246 329.255C185.199 329.271 185.149 329.245 185.134 329.198C185.118 329.151 185.144 329.101 185.191 329.086L185.7 328.92C185.747 328.905 185.797 328.931 185.813 328.977C185.828 329.024 185.802 329.075 185.755 329.09ZM184.058 329.641L183.549 329.807C183.502 329.822 183.451 329.796 183.436 329.75C183.421 329.703 183.446 329.652 183.493 329.637L184.003 329.472C184.049 329.456 184.1 329.482 184.115 329.529C184.13 329.576 184.105 329.626 184.058 329.641ZM182.36 330.193L181.851 330.359C181.804 330.374 181.754 330.348 181.739 330.301C181.723 330.254 181.749 330.204 181.796 330.189L182.305 330.023C182.352 330.008 182.402 330.034 182.418 330.081C182.433 330.127 182.407 330.178 182.36 330.193ZM180.663 330.745L180.154 330.91C180.107 330.925 180.056 330.9 180.041 330.853C180.026 330.806 180.051 330.755 180.098 330.74L180.608 330.575C180.655 330.56 180.705 330.585 180.72 330.632C180.735 330.679 180.71 330.729 180.663 330.745ZM178.965 331.296L178.456 331.462C178.409 331.477 178.359 331.451 178.344 331.404C178.328 331.357 178.354 331.307 178.401 331.292L178.91 331.126C178.957 331.111 179.007 331.137 179.023 331.184C179.038 331.23 179.012 331.281 178.965 331.296ZM177.268 331.848L176.759 332.013C176.712 332.028 176.661 332.003 176.646 331.956C176.631 331.909 176.656 331.859 176.703 331.843L177.213 331.678C177.26 331.663 177.31 331.688 177.325 331.735C177.34 331.782 177.315 331.832 177.268 331.848ZM175.57 332.399L175.061 332.565C175.014 332.58 174.964 332.554 174.949 332.507C174.933 332.46 174.959 332.41 175.006 332.395L175.515 332.229C175.562 332.214 175.612 332.24 175.628 332.287C175.643 332.334 175.617 332.384 175.57 332.399ZM173.873 332.951L173.364 333.116C173.317 333.131 173.266 333.106 173.251 333.059C173.236 333.012 173.262 332.962 173.309 332.946L173.818 332.781C173.865 332.766 173.915 332.791 173.93 332.838C173.945 332.885 173.92 332.936 173.873 332.951ZM172.175 333.502L171.666 333.668C171.619 333.683 171.569 333.657 171.554 333.61C171.538 333.563 171.564 333.513 171.611 333.498L172.12 333.332C172.167 333.317 172.217 333.343 172.233 333.39C172.248 333.437 172.222 333.487 172.175 333.502ZM170.478 334.054L169.969 334.219C169.922 334.235 169.871 334.209 169.856 334.162C169.841 334.115 169.867 334.065 169.914 334.05L170.423 333.884C170.47 333.869 170.52 333.894 170.535 333.941C170.55 333.988 170.525 334.039 170.478 334.054ZM168.78 334.605L168.271 334.771C168.224 334.786 168.174 334.76 168.159 334.714C168.144 334.667 168.169 334.616 168.216 334.601L168.725 334.436C168.772 334.42 168.823 334.446 168.838 334.493C168.853 334.54 168.827 334.59 168.78 334.605ZM167.083 335.157L166.574 335.322C166.527 335.338 166.477 335.312 166.461 335.265C166.446 335.218 166.472 335.168 166.519 335.153L167.028 334.987C167.075 334.972 167.125 334.998 167.14 335.044C167.156 335.091 167.13 335.142 167.083 335.157ZM165.386 335.708L164.876 335.874C164.829 335.889 164.779 335.863 164.764 335.817C164.749 335.77 164.774 335.719 164.821 335.704L165.33 335.539C165.377 335.523 165.428 335.549 165.443 335.596C165.458 335.643 165.432 335.693 165.386 335.708ZM163.688 336.26L163.179 336.425C163.132 336.441 163.082 336.415 163.066 336.368C163.051 336.321 163.077 336.271 163.124 336.256L163.633 336.09C163.68 336.075 163.73 336.101 163.745 336.148C163.761 336.194 163.735 336.245 163.688 336.26ZM161.991 336.812L161.481 336.977C161.434 336.992 161.384 336.967 161.369 336.92C161.354 336.873 161.379 336.822 161.426 336.807L161.935 336.642C161.982 336.627 162.033 336.652 162.048 336.699C162.063 336.746 162.038 336.796 161.991 336.812ZM160.293 337.363L159.784 337.529C159.737 337.544 159.687 337.518 159.671 337.471C159.656 337.424 159.682 337.374 159.729 337.359L160.238 337.193C160.285 337.178 160.335 337.204 160.35 337.251C160.366 337.297 160.34 337.348 160.293 337.363ZM158.596 337.915L158.086 338.08C158.039 338.095 157.989 338.07 157.974 338.023C157.959 337.976 157.984 337.926 158.031 337.91L158.54 337.745C158.587 337.73 158.638 337.755 158.653 337.802C158.668 337.849 158.643 337.899 158.596 337.915ZM156.898 338.466L156.389 338.632C156.342 338.647 156.292 338.621 156.276 338.574C156.261 338.527 156.287 338.477 156.334 338.462L156.843 338.296C156.89 338.281 156.94 338.307 156.955 338.354C156.971 338.401 156.945 338.451 156.898 338.466ZM155.201 339.018L154.691 339.183C154.645 339.198 154.594 339.173 154.579 339.126C154.564 339.079 154.589 339.029 154.636 339.013L155.145 338.848C155.192 338.833 155.243 338.858 155.258 338.905C155.273 338.952 155.248 339.002 155.201 339.018ZM153.503 339.569L152.994 339.735C152.947 339.75 152.897 339.724 152.881 339.677C152.866 339.63 152.892 339.58 152.939 339.565L153.448 339.399C153.495 339.384 153.545 339.41 153.56 339.457C153.576 339.504 153.55 339.554 153.503 339.569ZM151.806 340.121L151.296 340.286C151.25 340.302 151.199 340.276 151.184 340.229C151.169 340.182 151.194 340.132 151.241 340.116L151.751 339.951C151.797 339.936 151.848 339.961 151.863 340.008C151.878 340.055 151.853 340.106 151.806 340.121ZM150.108 340.672L149.599 340.838C149.552 340.853 149.502 340.827 149.487 340.78C149.471 340.734 149.497 340.683 149.544 340.668L150.053 340.503C150.1 340.487 150.15 340.513 150.166 340.56C150.181 340.607 150.155 340.657 150.108 340.672ZM148.411 341.224L147.902 341.389C147.855 341.405 147.804 341.379 147.789 341.332C147.774 341.285 147.799 341.235 147.846 341.22L148.356 341.054C148.403 341.039 148.453 341.064 148.468 341.111C148.483 341.158 148.458 341.209 148.411 341.224ZM146.713 341.775L146.204 341.941C146.157 341.956 146.107 341.93 146.092 341.884C146.076 341.837 146.102 341.786 146.149 341.771L146.658 341.606C146.705 341.59 146.755 341.616 146.771 341.663C146.786 341.71 146.76 341.76 146.713 341.775ZM145.016 342.327L144.507 342.492C144.46 342.508 144.409 342.482 144.394 342.435C144.379 342.388 144.405 342.338 144.451 342.323L144.961 342.157C145.008 342.142 145.058 342.168 145.073 342.215C145.088 342.261 145.063 342.312 145.016 342.327ZM143.318 342.879L142.809 343.044C142.762 343.059 142.712 343.033 142.697 342.987C142.681 342.94 142.707 342.889 142.754 342.874L143.263 342.709C143.31 342.693 143.36 342.719 143.376 342.766C143.391 342.813 143.365 342.863 143.318 342.879ZM141.621 343.43L141.112 343.596C141.065 343.611 141.014 343.585 140.999 343.538C140.984 343.491 141.01 343.441 141.056 343.426L141.566 343.26C141.613 343.245 141.663 343.271 141.678 343.318C141.693 343.364 141.668 343.415 141.621 343.43ZM139.923 343.982L139.414 344.147C139.367 344.162 139.317 344.137 139.302 344.09C139.286 344.043 139.312 343.993 139.359 343.977L139.868 343.812C139.915 343.797 139.965 343.822 139.981 343.869C139.996 343.916 139.97 343.966 139.923 343.982ZM138.226 344.533L137.717 344.699C137.67 344.714 137.619 344.688 137.604 344.641C137.589 344.594 137.615 344.544 137.662 344.529L138.171 344.363C138.218 344.348 138.268 344.374 138.283 344.421C138.298 344.467 138.273 344.518 138.226 344.533ZM136.528 345.085L136.019 345.25C135.972 345.265 135.922 345.24 135.907 345.193C135.892 345.146 135.917 345.096 135.964 345.08L136.473 344.915C136.52 344.9 136.571 344.925 136.586 344.972C136.601 345.019 136.575 345.069 136.528 345.085ZM134.831 345.636L134.322 345.802C134.275 345.817 134.224 345.791 134.209 345.744C134.194 345.697 134.22 345.647 134.267 345.632L134.776 345.466C134.823 345.451 134.873 345.477 134.888 345.524C134.904 345.571 134.878 345.621 134.831 345.636ZM133.134 346.188L132.624 346.353C132.577 346.368 132.527 346.343 132.512 346.296C132.497 346.249 132.522 346.199 132.569 346.183L133.078 346.018C133.125 346.003 133.176 346.028 133.191 346.075C133.206 346.122 133.18 346.173 133.134 346.188ZM131.436 346.739L130.927 346.905C130.88 346.92 130.83 346.894 130.814 346.847C130.799 346.801 130.825 346.75 130.872 346.735L131.381 346.57C131.428 346.554 131.478 346.58 131.493 346.627C131.509 346.674 131.483 346.724 131.436 346.739ZM129.739 347.291L129.229 347.456C129.182 347.472 129.132 347.446 129.117 347.399C129.102 347.352 129.127 347.302 129.174 347.287L129.683 347.121C129.73 347.106 129.781 347.131 129.796 347.178C129.811 347.225 129.786 347.276 129.739 347.291ZM128.041 347.842L127.532 348.008C127.485 348.023 127.435 347.997 127.419 347.951C127.404 347.904 127.43 347.853 127.477 347.838L127.986 347.673C128.033 347.657 128.083 347.683 128.098 347.73C128.114 347.777 128.088 347.827 128.041 347.842Z" fill="white"/>
<path d="M171.692 311.032L171.207 308.807C171.283 308.214 171.669 307.686 172.235 307.404C174.355 306.348 179.688 303.971 182.951 304.967L184.162 307.342L171.692 311.032Z" fill="#512D2B"/>
<path d="M177.929 307.157C177.572 307.413 177.172 307.542 176.73 307.545C176.196 307.547 175.671 307.095 175.462 306.45L172.846 298.398L175.699 297.471L178.313 305.518C178.524 306.166 178.366 306.845 177.929 307.157Z" fill="#512D2B"/>
<path d="M138.25 311.743L176.706 297.848C177.583 297.532 178.13 296.658 178.005 295.754C177.829 294.487 177.434 292.634 176.551 290.867C175.546 288.858 173.189 287.889 170.992 288.546C163.686 290.732 145.229 296.735 136.342 304C135.403 304.768 134.898 305.932 134.984 307.123C135.066 308.258 135.349 309.718 136.153 311.036C136.579 311.736 137.463 312.027 138.25 311.743Z" fill="#7F4B49"/>
<path d="M136.907 310.076C136.82 310.105 136.726 310.068 136.69 309.988C136.665 309.933 136.081 308.616 136.036 307.18C136.002 306.088 136.589 305.011 137.569 304.368C139.548 303.07 143.369 300.714 146.731 299.524C146.825 299.491 146.926 299.535 146.957 299.622C146.988 299.709 146.938 299.807 146.844 299.84C143.521 301.017 139.729 303.354 137.765 304.643C136.889 305.218 136.364 306.181 136.394 307.156C136.437 308.528 137.015 309.832 137.021 309.845C137.059 309.93 137.016 310.03 136.925 310.07C136.919 310.072 136.913 310.074 136.907 310.076Z" fill="#91B3FA"/>
<path d="M119.256 326.548C131.642 322.351 185.261 304.314 201.492 301.092C202.89 300.814 204.303 301.426 205.015 302.629C207.274 306.437 212.233 315.378 215.087 324.911C215.475 326.209 214.869 327.607 213.655 328.267L180.141 346.5L167.469 350.617L127.043 355.531C125.618 355.704 124.267 354.909 123.764 353.594C121.97 348.915 117.955 337.871 116.927 330.257C116.708 328.64 117.679 327.083 119.256 326.548Z" fill="#AF6B64"/>
<path d="M178.943 343.734L178.433 343.899C178.387 343.915 178.336 343.89 178.321 343.843C178.306 343.797 178.332 343.747 178.379 343.732L178.889 343.566C178.936 343.551 178.986 343.576 179.001 343.622C179.016 343.669 178.99 343.719 178.943 343.734ZM177.244 344.286L176.735 344.451C176.688 344.467 176.637 344.442 176.622 344.395C176.607 344.349 176.633 344.299 176.68 344.284L177.19 344.118C177.237 344.103 177.287 344.128 177.302 344.174C177.317 344.221 177.291 344.271 177.244 344.286ZM175.545 344.838L175.036 345.003C174.989 345.019 174.938 344.994 174.923 344.947C174.908 344.901 174.934 344.851 174.981 344.836L175.491 344.67C175.538 344.655 175.588 344.68 175.603 344.726C175.618 344.773 175.592 344.823 175.545 344.838ZM173.846 345.39L173.337 345.556C173.29 345.571 173.24 345.546 173.225 345.499C173.209 345.453 173.235 345.403 173.282 345.388L173.792 345.222C173.839 345.207 173.889 345.232 173.904 345.279C173.919 345.325 173.893 345.375 173.846 345.39ZM172.147 345.942L171.638 346.108C171.591 346.123 171.541 346.098 171.526 346.051C171.511 346.005 171.536 345.955 171.583 345.94L172.093 345.774C172.14 345.759 172.19 345.784 172.205 345.831C172.22 345.877 172.194 345.927 172.147 345.942ZM170.449 346.494L169.939 346.66C169.892 346.675 169.842 346.65 169.827 346.603C169.812 346.557 169.838 346.507 169.884 346.492L170.394 346.326C170.441 346.311 170.491 346.336 170.506 346.383C170.521 346.429 170.495 346.479 170.449 346.494ZM168.75 347.046L168.24 347.212C168.193 347.227 168.143 347.202 168.128 347.155C168.113 347.109 168.139 347.059 168.185 347.044L168.695 346.878C168.742 346.863 168.792 346.888 168.807 346.935C168.822 346.981 168.797 347.031 168.75 347.046ZM167.051 347.598L166.829 347.67L166.28 347.738C166.231 347.744 166.187 347.71 166.181 347.661C166.176 347.613 166.21 347.569 166.26 347.563L166.791 347.499L166.996 347.43C167.043 347.415 167.093 347.44 167.108 347.487C167.123 347.533 167.098 347.583 167.051 347.598ZM180.041 343.137C180.001 343.15 179.956 343.134 179.935 343.096C179.912 343.053 179.928 342.999 179.971 342.976L180.442 342.72C180.485 342.696 180.539 342.712 180.563 342.754C180.586 342.797 180.57 342.851 180.527 342.874L180.056 343.13C180.051 343.133 180.046 343.135 180.041 343.137ZM165.056 347.885C165.051 347.886 165.045 347.888 165.039 347.888L164.507 347.953C164.458 347.959 164.414 347.924 164.409 347.876C164.403 347.828 164.437 347.783 164.487 347.778L165.019 347.713C165.068 347.707 165.112 347.742 165.118 347.79C165.122 347.833 165.096 347.872 165.056 347.885ZM181.609 342.283C181.569 342.296 181.524 342.28 181.503 342.242C181.48 342.199 181.496 342.145 181.539 342.122L182.01 341.866C182.053 341.842 182.107 341.858 182.131 341.9C182.154 341.943 182.138 341.997 182.095 342.02L181.624 342.276C181.619 342.279 181.614 342.281 181.609 342.283ZM163.284 348.099C163.278 348.101 163.273 348.102 163.267 348.103L162.735 348.167C162.686 348.173 162.642 348.139 162.636 348.091C162.63 348.042 162.665 347.998 162.715 347.992L163.246 347.928C163.295 347.922 163.34 347.956 163.345 348.005C163.35 348.047 163.323 348.086 163.284 348.099ZM183.177 341.429C183.137 341.442 183.092 341.426 183.072 341.388C183.048 341.345 183.064 341.291 183.107 341.268L183.578 341.012C183.621 340.988 183.675 341.003 183.699 341.046C183.722 341.089 183.706 341.142 183.663 341.166L183.192 341.422C183.187 341.425 183.182 341.427 183.177 341.429ZM161.511 348.314C161.506 348.316 161.5 348.317 161.494 348.318L160.962 348.382C160.913 348.388 160.869 348.353 160.864 348.305C160.858 348.257 160.892 348.212 160.942 348.207L161.474 348.142C161.523 348.137 161.567 348.171 161.573 348.219C161.577 348.262 161.551 348.301 161.511 348.314ZM184.745 340.575C184.705 340.588 184.66 340.571 184.64 340.534C184.616 340.491 184.632 340.437 184.675 340.414L185.146 340.158C185.19 340.135 185.243 340.15 185.267 340.192C185.29 340.235 185.274 340.288 185.231 340.312L184.76 340.568C184.756 340.571 184.75 340.573 184.745 340.575ZM159.739 348.528C159.733 348.53 159.728 348.531 159.722 348.532L159.19 348.596C159.141 348.602 159.097 348.568 159.091 348.52C159.085 348.471 159.12 348.427 159.17 348.421L159.701 348.357C159.75 348.351 159.795 348.385 159.8 348.434C159.805 348.476 159.779 348.515 159.739 348.528ZM186.313 339.721C186.273 339.734 186.228 339.717 186.208 339.68C186.184 339.637 186.2 339.583 186.244 339.56L186.714 339.304C186.757 339.28 186.811 339.295 186.835 339.338C186.858 339.381 186.842 339.434 186.799 339.458L186.329 339.714C186.324 339.717 186.318 339.719 186.313 339.721ZM157.966 348.743C157.961 348.745 157.955 348.746 157.949 348.747L157.417 348.811C157.368 348.817 157.324 348.783 157.319 348.734C157.313 348.686 157.347 348.641 157.397 348.636L157.929 348.571C157.978 348.566 158.022 348.6 158.028 348.648C158.032 348.691 158.006 348.73 157.966 348.743ZM187.881 338.867C187.841 338.88 187.796 338.863 187.776 338.826C187.752 338.783 187.768 338.729 187.812 338.706L188.282 338.45C188.326 338.426 188.379 338.441 188.403 338.484C188.426 338.527 188.41 338.58 188.367 338.604L187.897 338.86C187.892 338.863 187.886 338.865 187.881 338.867ZM156.194 348.957C156.188 348.959 156.182 348.961 156.177 348.961L155.645 349.026C155.596 349.031 155.552 348.997 155.546 348.949C155.54 348.9 155.575 348.856 155.625 348.85L156.156 348.786C156.205 348.78 156.249 348.814 156.255 348.863C156.26 348.905 156.233 348.945 156.194 348.957ZM189.449 338.013C189.409 338.026 189.365 338.009 189.344 337.972C189.32 337.929 189.336 337.875 189.38 337.852L189.85 337.595C189.894 337.572 189.947 337.587 189.971 337.63C189.994 337.673 189.978 337.726 189.935 337.75L189.465 338.006C189.46 338.009 189.455 338.011 189.449 338.013ZM154.421 349.172C154.416 349.174 154.41 349.175 154.404 349.176L153.872 349.24C153.823 349.246 153.779 349.212 153.774 349.163C153.768 349.115 153.803 349.07 153.852 349.065L154.384 349.001C154.433 348.995 154.477 349.029 154.482 349.077C154.487 349.12 154.461 349.159 154.421 349.172ZM191.017 337.159C190.977 337.172 190.933 337.155 190.912 337.118C190.888 337.075 190.904 337.021 190.948 336.998L191.418 336.741C191.462 336.718 191.516 336.733 191.539 336.776C191.562 336.819 191.546 336.872 191.503 336.896L191.033 337.152C191.028 337.155 191.023 337.157 191.017 337.159ZM152.649 349.387C152.643 349.388 152.637 349.39 152.632 349.39L152.1 349.455C152.051 349.461 152.007 349.426 152.001 349.378C151.995 349.329 152.03 349.285 152.079 349.28L152.611 349.215C152.66 349.209 152.704 349.244 152.71 349.292C152.715 349.335 152.688 349.374 152.649 349.387ZM192.585 336.305C192.545 336.318 192.501 336.301 192.48 336.263C192.456 336.221 192.472 336.167 192.516 336.144L192.986 335.887C193.03 335.864 193.084 335.879 193.107 335.922C193.131 335.965 193.115 336.018 193.071 336.042L192.601 336.298C192.596 336.301 192.591 336.303 192.585 336.305ZM150.876 349.601C150.871 349.603 150.865 349.604 150.859 349.605L150.327 349.669C150.278 349.675 150.234 349.641 150.228 349.592C150.223 349.544 150.257 349.5 150.307 349.494L150.839 349.43C150.888 349.424 150.932 349.458 150.937 349.507C150.942 349.549 150.916 349.588 150.876 349.601ZM194.153 335.451C194.113 335.464 194.069 335.447 194.048 335.409C194.024 335.367 194.04 335.313 194.084 335.29L194.554 335.033C194.597 335.01 194.652 335.025 194.675 335.068C194.699 335.11 194.683 335.164 194.639 335.188L194.169 335.444C194.164 335.447 194.159 335.449 194.153 335.451ZM149.104 349.816C149.098 349.817 149.092 349.819 149.086 349.819L148.555 349.884C148.506 349.89 148.462 349.855 148.456 349.807C148.45 349.759 148.485 349.715 148.534 349.709L149.066 349.644C149.115 349.638 149.159 349.673 149.165 349.721C149.17 349.764 149.143 349.803 149.104 349.816ZM195.722 334.597C195.681 334.61 195.637 334.593 195.616 334.555C195.592 334.513 195.608 334.459 195.652 334.435L196.122 334.179C196.166 334.156 196.22 334.171 196.243 334.214C196.267 334.256 196.251 334.31 196.207 334.334L195.737 334.59C195.732 334.593 195.727 334.595 195.722 334.597ZM147.331 350.03C147.326 350.032 147.32 350.033 147.314 350.034L146.782 350.098C146.733 350.104 146.689 350.07 146.683 350.021C146.678 349.973 146.712 349.929 146.762 349.923L147.294 349.859C147.343 349.853 147.387 349.887 147.392 349.936C147.397 349.978 147.371 350.017 147.331 350.03ZM197.29 333.743C197.249 333.756 197.205 333.739 197.184 333.701C197.16 333.659 197.176 333.605 197.22 333.581L197.69 333.325C197.733 333.302 197.788 333.317 197.811 333.36C197.835 333.402 197.819 333.456 197.775 333.48L197.305 333.736C197.3 333.739 197.295 333.741 197.29 333.743ZM145.559 350.245C145.553 350.247 145.547 350.248 145.541 350.249L145.01 350.313C144.961 350.319 144.916 350.284 144.911 350.236C144.905 350.188 144.939 350.143 144.989 350.138L145.521 350.073C145.57 350.067 145.614 350.102 145.62 350.15C145.625 350.193 145.598 350.232 145.559 350.245ZM198.858 332.888C198.818 332.902 198.773 332.885 198.752 332.847C198.729 332.805 198.745 332.751 198.788 332.727L199.258 332.471C199.302 332.448 199.356 332.463 199.379 332.506C199.403 332.548 199.387 332.602 199.343 332.626L198.873 332.882C198.868 332.885 198.863 332.887 198.858 332.888ZM143.786 350.459C143.781 350.461 143.775 350.462 143.769 350.463L143.237 350.528C143.188 350.533 143.144 350.499 143.138 350.451C143.133 350.402 143.167 350.358 143.217 350.352L143.749 350.288C143.798 350.282 143.842 350.316 143.847 350.365C143.852 350.407 143.826 350.446 143.786 350.459ZM200.426 332.034C200.386 332.047 200.341 332.031 200.32 331.993C200.297 331.951 200.313 331.897 200.356 331.873L200.826 331.617C200.87 331.594 200.924 331.609 200.947 331.652C200.971 331.694 200.955 331.748 200.911 331.772L200.441 332.028C200.436 332.031 200.431 332.033 200.426 332.034ZM142.014 350.674C142.008 350.676 142.002 350.677 141.996 350.678L141.465 350.742C141.416 350.748 141.371 350.714 141.366 350.665C141.36 350.617 141.394 350.572 141.444 350.567L141.976 350.503C142.025 350.497 142.069 350.531 142.075 350.579C142.08 350.622 142.053 350.661 142.014 350.674ZM201.994 331.18C201.954 331.193 201.909 331.177 201.888 331.139C201.865 331.097 201.881 331.043 201.924 331.019L202.394 330.763C202.438 330.74 202.492 330.755 202.515 330.798C202.539 330.84 202.523 330.894 202.479 330.918L202.009 331.174C202.004 331.176 201.999 331.179 201.994 331.18ZM203.562 330.326C203.522 330.339 203.477 330.323 203.456 330.285C203.433 330.243 203.449 330.189 203.492 330.165L203.962 329.909C204.006 329.886 204.06 329.901 204.083 329.944C204.107 329.986 204.091 330.04 204.047 330.064L203.577 330.32C203.572 330.322 203.567 330.325 203.562 330.326ZM140.241 350.888C140.236 350.89 140.23 350.892 140.224 350.892L139.692 350.957C139.643 350.963 139.599 350.928 139.593 350.88C139.588 350.831 139.622 350.787 139.672 350.781L140.204 350.717C140.253 350.711 140.297 350.746 140.302 350.794C140.307 350.836 140.281 350.876 140.241 350.888ZM205.13 329.472C205.09 329.485 205.045 329.469 205.024 329.431C205.001 329.389 205.017 329.335 205.06 329.311L205.53 329.055C205.574 329.032 205.628 329.047 205.651 329.09C205.675 329.132 205.659 329.186 205.615 329.21L205.145 329.466C205.14 329.468 205.135 329.471 205.13 329.472ZM138.469 351.103C138.463 351.105 138.457 351.106 138.451 351.107L137.92 351.171C137.871 351.177 137.826 351.143 137.821 351.094C137.815 351.046 137.849 351.001 137.899 350.996L138.431 350.932C138.48 350.926 138.524 350.96 138.53 351.009C138.535 351.051 138.508 351.09 138.469 351.103ZM206.698 328.618C206.658 328.631 206.613 328.615 206.592 328.577C206.569 328.535 206.585 328.481 206.628 328.457L207.099 328.201C207.142 328.178 207.196 328.193 207.219 328.236C207.243 328.278 207.227 328.332 207.184 328.355L206.713 328.612C206.708 328.614 206.703 328.617 206.698 328.618ZM136.696 351.318C136.691 351.319 136.685 351.321 136.679 351.321L136.147 351.386C136.098 351.392 136.054 351.357 136.048 351.309C136.043 351.26 136.078 351.216 136.127 351.211L136.659 351.146C136.707 351.14 136.752 351.175 136.757 351.223C136.762 351.266 136.736 351.305 136.696 351.318ZM208.266 327.764C208.226 327.777 208.181 327.761 208.16 327.723C208.137 327.68 208.153 327.627 208.196 327.603L208.667 327.347C208.71 327.324 208.764 327.339 208.787 327.382C208.811 327.424 208.795 327.478 208.752 327.501L208.281 327.758C208.276 327.76 208.271 327.763 208.266 327.764ZM134.923 351.532C134.918 351.534 134.912 351.535 134.906 351.536L134.375 351.6C134.326 351.606 134.281 351.572 134.276 351.523C134.27 351.475 134.305 351.431 134.354 351.425L134.886 351.361C134.935 351.355 134.979 351.389 134.985 351.437C134.99 351.48 134.963 351.519 134.923 351.532ZM209.834 326.91C209.794 326.923 209.749 326.907 209.728 326.869C209.705 326.826 209.721 326.773 209.764 326.749L210.235 326.493C210.278 326.469 210.332 326.485 210.355 326.527C210.379 326.57 210.363 326.624 210.32 326.647L209.849 326.904C209.844 326.906 209.839 326.909 209.834 326.91ZM133.151 351.747C133.146 351.749 133.14 351.75 133.134 351.751L132.602 351.815C132.553 351.821 132.509 351.786 132.503 351.738C132.498 351.69 132.532 351.646 132.582 351.64L133.114 351.575C133.162 351.569 133.207 351.604 133.212 351.652C133.217 351.695 133.191 351.734 133.151 351.747ZM211.402 326.056C211.362 326.069 211.317 326.053 211.296 326.015C211.273 325.972 211.289 325.919 211.332 325.895L211.803 325.639C211.846 325.616 211.9 325.631 211.923 325.673C211.947 325.716 211.931 325.77 211.888 325.793L211.417 326.05C211.412 326.052 211.407 326.055 211.402 326.056ZM131.379 351.961C131.373 351.963 131.367 351.964 131.361 351.965L130.83 352.029C130.781 352.035 130.736 352.001 130.731 351.952C130.725 351.904 130.76 351.86 130.809 351.854L131.341 351.79C131.39 351.784 131.434 351.818 131.44 351.867C131.445 351.909 131.418 351.948 131.379 351.961ZM129.606 352.176C129.601 352.178 129.595 352.179 129.589 352.18L129.057 352.244C129.008 352.25 128.964 352.215 128.958 352.167C128.953 352.119 128.987 352.075 129.037 352.069L129.569 352.004C129.617 351.999 129.662 352.033 129.667 352.081C129.672 352.124 129.646 352.163 129.606 352.176ZM127.833 352.39C127.828 352.392 127.822 352.393 127.816 352.394L127.285 352.458C127.236 352.464 127.191 352.43 127.186 352.382C127.18 352.333 127.215 352.289 127.264 352.283L127.796 352.219C127.845 352.213 127.889 352.247 127.895 352.296C127.9 352.338 127.873 352.377 127.833 352.39ZM211.801 324.739C211.801 324.739 211.801 324.739 211.801 324.739C211.754 324.754 211.703 324.729 211.689 324.683L211.591 324.379L211.526 324.18C211.511 324.134 211.536 324.084 211.583 324.068L211.583 324.068C211.63 324.053 211.68 324.078 211.695 324.124L211.76 324.323L211.859 324.628C211.874 324.674 211.848 324.724 211.801 324.739ZM126.447 351.977C126.402 351.992 126.353 351.969 126.336 351.925C126.276 351.766 126.213 351.601 126.149 351.43C126.132 351.384 126.156 351.333 126.202 351.316C126.249 351.299 126.299 351.322 126.316 351.367C126.38 351.538 126.443 351.703 126.503 351.862C126.52 351.907 126.497 351.958 126.451 351.976C126.449 351.976 126.448 351.977 126.447 351.977ZM211.243 323.067C211.197 323.082 211.147 323.058 211.131 323.012C211.074 322.846 211.016 322.68 210.957 322.514C210.941 322.468 210.965 322.418 211.012 322.401C211.062 322.381 211.109 322.409 211.125 322.455C211.184 322.621 211.242 322.787 211.3 322.954C211.316 323 211.291 323.05 211.245 323.066C211.244 323.066 211.244 323.067 211.243 323.067ZM125.829 350.326C125.784 350.34 125.735 350.317 125.718 350.273L125.536 349.776C125.519 349.73 125.543 349.679 125.589 349.663C125.633 349.646 125.687 349.669 125.703 349.715L125.886 350.211C125.903 350.257 125.879 350.307 125.832 350.324C125.831 350.325 125.83 350.325 125.829 350.326ZM210.647 321.409C210.602 321.424 210.553 321.401 210.536 321.356C210.475 321.191 210.413 321.027 210.351 320.863C210.334 320.817 210.357 320.766 210.403 320.749C210.449 320.73 210.501 320.754 210.518 320.8C210.581 320.964 210.642 321.129 210.704 321.294C210.721 321.34 210.697 321.391 210.651 321.408C210.65 321.408 210.648 321.409 210.647 321.409ZM125.226 348.669C125.18 348.684 125.131 348.66 125.115 348.615L124.937 348.117C124.92 348.071 124.945 348.02 124.991 348.004C125.039 347.989 125.089 348.011 125.105 348.057L125.283 348.555C125.299 348.601 125.275 348.651 125.229 348.668C125.228 348.668 125.227 348.668 125.226 348.669ZM210.016 319.764C209.972 319.778 209.923 319.756 209.906 319.713C209.841 319.549 209.776 319.385 209.71 319.222C209.692 319.177 209.715 319.125 209.76 319.107C209.809 319.09 209.858 319.11 209.876 319.156C209.942 319.319 210.007 319.483 210.072 319.647C210.09 319.693 210.067 319.744 210.021 319.762C210.02 319.763 210.018 319.763 210.016 319.764ZM124.638 347.007C124.592 347.022 124.542 346.998 124.526 346.952L124.352 346.452C124.337 346.406 124.361 346.356 124.408 346.34C124.452 346.322 124.505 346.348 124.521 346.394L124.695 346.893C124.711 346.939 124.686 346.99 124.64 347.006C124.639 347.006 124.638 347.006 124.638 347.007ZM209.352 318.13C209.309 318.144 209.26 318.123 209.243 318.081C209.175 317.917 209.106 317.755 209.038 317.593C209.019 317.548 209.04 317.497 209.086 317.477C209.129 317.457 209.183 317.479 209.202 317.524C209.271 317.686 209.339 317.849 209.408 318.012C209.426 318.057 209.405 318.109 209.359 318.128C209.357 318.129 209.355 318.129 209.352 318.13ZM124.065 345.339C124.018 345.354 123.968 345.33 123.953 345.284L123.784 344.782C123.768 344.736 123.794 344.686 123.841 344.671C123.841 344.67 123.841 344.67 123.841 344.67C123.888 344.655 123.938 344.68 123.953 344.726L124.122 345.227C124.138 345.273 124.112 345.323 124.066 345.339C124.065 345.339 124.065 345.339 124.065 345.339ZM208.658 316.509C208.615 316.523 208.568 316.502 208.549 316.46C208.478 316.298 208.407 316.137 208.336 315.977C208.316 315.932 208.337 315.88 208.382 315.86C208.427 315.84 208.48 315.86 208.499 315.905C208.571 316.065 208.642 316.227 208.713 316.389C208.733 316.434 208.712 316.486 208.667 316.505C208.664 316.507 208.661 316.508 208.658 316.509ZM123.508 343.666C123.461 343.681 123.411 343.656 123.396 343.61L123.302 343.322L123.232 343.107C123.217 343.061 123.243 343.011 123.29 342.996L123.29 342.996C123.337 342.981 123.387 343.006 123.402 343.052L123.472 343.267L123.566 343.555C123.581 343.601 123.555 343.651 123.508 343.666C123.508 343.666 123.508 343.666 123.508 343.666ZM207.937 314.899C207.894 314.913 207.847 314.893 207.829 314.852C207.755 314.691 207.681 314.531 207.607 314.372C207.587 314.328 207.606 314.275 207.651 314.255C207.697 314.233 207.749 314.253 207.769 314.297C207.843 314.457 207.917 314.617 207.991 314.778C208.011 314.822 207.992 314.875 207.947 314.895C207.943 314.897 207.94 314.898 207.937 314.899ZM122.97 341.988C122.969 341.988 122.969 341.988 122.969 341.989C122.922 342.003 122.872 341.978 122.857 341.931C122.804 341.764 122.752 341.595 122.699 341.427C122.685 341.381 122.711 341.332 122.758 341.316C122.758 341.316 122.758 341.316 122.759 341.316C122.806 341.301 122.856 341.327 122.87 341.374C122.922 341.542 122.975 341.71 123.028 341.878C123.042 341.924 123.016 341.973 122.97 341.988ZM207.189 313.301C207.147 313.315 207.101 313.296 207.081 313.256C207.005 313.096 206.928 312.937 206.852 312.779C206.831 312.735 206.85 312.683 206.895 312.661C206.94 312.64 206.992 312.658 207.013 312.702C207.09 312.86 207.166 313.019 207.243 313.179C207.264 313.223 207.245 313.276 207.2 313.297C207.196 313.299 207.193 313.3 207.189 313.301ZM122.451 340.304C122.451 340.304 122.45 340.304 122.449 340.305C122.402 340.319 122.353 340.293 122.339 340.246C122.288 340.077 122.237 339.908 122.187 339.739C122.173 339.692 122.198 339.641 122.248 339.629C122.295 339.615 122.345 339.641 122.359 339.688C122.409 339.857 122.459 340.026 122.51 340.194C122.523 340.24 122.497 340.289 122.451 340.304ZM206.417 311.716C206.375 311.729 206.329 311.711 206.31 311.671C206.23 311.512 206.152 311.354 206.073 311.198C206.051 311.155 206.07 311.102 206.114 311.079C206.158 311.058 206.211 311.075 206.233 311.119C206.312 311.275 206.391 311.433 206.47 311.592C206.491 311.636 206.473 311.689 206.429 311.711C206.425 311.713 206.421 311.714 206.417 311.716ZM121.956 338.612C121.955 338.612 121.954 338.612 121.953 338.613C121.905 338.626 121.856 338.599 121.843 338.553C121.794 338.383 121.746 338.213 121.699 338.043C121.686 337.996 121.717 337.946 121.761 337.934C121.808 337.92 121.858 337.947 121.871 337.994C121.918 338.164 121.966 338.334 122.014 338.503C122.027 338.549 122.001 338.597 121.956 338.612ZM205.621 310.141C205.58 310.155 205.534 310.137 205.514 310.098C205.432 309.94 205.351 309.783 205.271 309.628C205.248 309.585 205.266 309.532 205.309 309.509C205.354 309.486 205.407 309.503 205.429 309.547C205.51 309.701 205.591 309.858 205.673 310.017C205.695 310.06 205.678 310.113 205.634 310.136C205.63 310.138 205.625 310.14 205.621 310.141ZM121.486 336.911C121.485 336.911 121.483 336.912 121.482 336.912C121.434 336.925 121.385 336.897 121.373 336.85C121.327 336.679 121.282 336.508 121.238 336.337C121.225 336.29 121.253 336.242 121.302 336.229C121.35 336.217 121.398 336.245 121.41 336.292C121.455 336.462 121.5 336.633 121.545 336.804C121.558 336.849 121.531 336.896 121.486 336.911ZM204.801 308.579C204.761 308.592 204.716 308.575 204.695 308.536C204.611 308.378 204.528 308.223 204.445 308.07C204.422 308.027 204.439 307.974 204.482 307.951C204.526 307.927 204.58 307.943 204.603 307.986C204.685 308.139 204.769 308.295 204.853 308.453C204.876 308.496 204.859 308.55 204.816 308.573C204.811 308.575 204.806 308.577 204.801 308.579ZM121.049 335.202C121.047 335.202 121.045 335.203 121.043 335.204C120.995 335.215 120.946 335.187 120.935 335.139C120.893 334.967 120.851 334.795 120.811 334.624C120.799 334.577 120.828 334.531 120.877 334.518C120.925 334.506 120.973 334.535 120.984 334.583C121.025 334.753 121.066 334.925 121.108 335.097C121.119 335.142 121.093 335.187 121.049 335.202ZM203.959 307.028C203.919 307.041 203.875 307.025 203.854 306.987C203.767 306.829 203.681 306.675 203.597 306.524C203.573 306.482 203.589 306.428 203.632 306.404C203.674 306.38 203.73 306.396 203.753 306.438C203.837 306.589 203.923 306.743 204.011 306.901C204.034 306.944 204.018 306.998 203.975 307.021C203.97 307.024 203.965 307.026 203.959 307.028ZM120.65 333.484C120.647 333.485 120.644 333.486 120.642 333.486C120.593 333.497 120.546 333.467 120.536 333.42C120.498 333.246 120.461 333.073 120.425 332.901C120.415 332.854 120.445 332.807 120.494 332.797C120.542 332.786 120.589 332.817 120.599 332.864C120.635 333.036 120.672 333.208 120.71 333.381C120.72 333.426 120.693 333.47 120.65 333.484ZM203.094 305.49C203.055 305.503 203.011 305.487 202.989 305.45C202.898 305.291 202.81 305.138 202.725 304.991C202.701 304.949 202.716 304.895 202.758 304.871C202.802 304.846 202.856 304.861 202.88 304.903C202.965 305.049 203.053 305.203 203.145 305.362C203.169 305.404 203.154 305.458 203.111 305.482C203.105 305.485 203.1 305.488 203.094 305.49ZM120.3 331.756C120.296 331.757 120.293 331.758 120.289 331.758C120.24 331.768 120.194 331.736 120.185 331.688C120.153 331.513 120.121 331.339 120.092 331.166C120.083 331.119 120.116 331.073 120.164 331.064C120.213 331.055 120.259 331.087 120.267 331.135C120.297 331.307 120.328 331.481 120.361 331.655C120.369 331.699 120.342 331.742 120.3 331.756ZM202.075 304.207C202.072 304.208 202.068 304.209 202.065 304.209C201.895 304.244 201.72 304.28 201.541 304.317C201.492 304.327 201.445 304.297 201.435 304.249C201.426 304.202 201.456 304.155 201.505 304.145C201.685 304.107 201.86 304.071 202.03 304.036C202.079 304.027 202.126 304.058 202.135 304.105C202.144 304.15 202.118 304.193 202.075 304.207ZM200.329 304.582C200.326 304.583 200.324 304.584 200.321 304.584C200.15 304.623 199.976 304.663 199.799 304.704C199.751 304.715 199.703 304.686 199.692 304.638C199.681 304.591 199.712 304.544 199.759 304.532C199.937 304.491 200.111 304.451 200.282 304.412C200.33 304.401 200.378 304.431 200.389 304.478C200.399 304.523 200.372 304.568 200.329 304.582ZM198.59 304.991C198.588 304.992 198.586 304.993 198.583 304.993C198.413 305.035 198.239 305.077 198.063 305.121C198.015 305.133 197.967 305.104 197.956 305.057C197.944 305.01 197.974 304.962 198.021 304.95C198.198 304.906 198.371 304.864 198.542 304.822C198.59 304.81 198.638 304.839 198.65 304.887C198.66 304.932 198.634 304.977 198.59 304.991ZM196.857 305.424C196.855 305.425 196.853 305.425 196.851 305.426L196.332 305.559C196.284 305.571 196.236 305.543 196.224 305.496C196.212 305.449 196.239 305.402 196.288 305.388L196.808 305.255C196.856 305.243 196.904 305.271 196.916 305.318C196.927 305.363 196.901 305.41 196.857 305.424ZM195.128 305.873C195.126 305.874 195.124 305.874 195.123 305.875L194.605 306.012C194.557 306.025 194.509 305.997 194.496 305.95C194.483 305.903 194.513 305.855 194.56 305.842L195.078 305.704C195.126 305.691 195.174 305.719 195.187 305.767C195.199 305.812 195.172 305.859 195.128 305.873ZM193.402 306.336C193.401 306.336 193.399 306.336 193.398 306.337L192.881 306.478C192.833 306.491 192.784 306.463 192.771 306.416C192.759 306.369 192.788 306.32 192.835 306.308L193.352 306.167C193.399 306.154 193.448 306.181 193.461 306.228C193.473 306.274 193.447 306.321 193.402 306.336ZM191.679 306.808C191.678 306.809 191.677 306.809 191.676 306.809L191.159 306.953C191.112 306.966 191.063 306.939 191.05 306.892C191.037 306.845 191.067 306.796 191.112 306.783L191.629 306.64C191.676 306.626 191.725 306.654 191.738 306.701C191.751 306.746 191.725 306.794 191.679 306.808ZM189.959 307.29C189.958 307.29 189.957 307.291 189.956 307.291L189.44 307.437C189.393 307.45 189.344 307.423 189.33 307.377C189.317 307.33 189.348 307.278 189.392 307.267L189.908 307.121C189.956 307.108 190.005 307.135 190.018 307.182C190.031 307.228 190.005 307.275 189.959 307.29ZM120.015 330.015C120.01 330.017 120.005 330.018 120 330.019C119.951 330.026 119.906 329.992 119.899 329.944L119.876 329.777C119.855 329.624 119.943 329.482 120.089 329.433L120.133 329.418C120.182 329.394 120.23 329.426 120.246 329.472C120.262 329.518 120.237 329.568 120.19 329.585L120.146 329.599C120.081 329.622 120.043 329.683 120.053 329.752L120.076 329.919C120.082 329.962 120.055 330.002 120.015 330.015ZM188.241 307.779C188.24 307.779 188.239 307.78 188.238 307.78L187.723 307.928C187.676 307.942 187.626 307.915 187.613 307.868C187.599 307.821 187.627 307.771 187.674 307.759L188.189 307.611C188.237 307.597 188.286 307.624 188.3 307.671C188.313 307.716 188.287 307.764 188.241 307.779ZM186.525 308.275C186.524 308.275 186.523 308.275 186.522 308.275L186.007 308.425C185.96 308.439 185.911 308.412 185.897 308.365C185.884 308.319 185.911 308.272 185.958 308.256L186.473 308.106C186.52 308.092 186.57 308.119 186.583 308.166C186.597 308.212 186.57 308.26 186.525 308.275ZM184.81 308.776C184.809 308.776 184.808 308.776 184.807 308.776L184.293 308.928C184.246 308.942 184.197 308.915 184.183 308.868C184.169 308.822 184.195 308.77 184.244 308.758L184.758 308.607C184.805 308.593 184.855 308.62 184.868 308.667C184.882 308.712 184.856 308.761 184.81 308.776ZM183.097 309.282C183.096 309.282 183.095 309.282 183.094 309.282L182.581 309.435C182.533 309.449 182.484 309.423 182.47 309.376C182.456 309.329 182.477 309.285 182.531 309.266L183.044 309.113C183.092 309.099 183.141 309.126 183.155 309.172C183.169 309.218 183.142 309.267 183.097 309.282ZM181.385 309.792C181.384 309.792 181.383 309.793 181.383 309.793L180.869 309.947C180.822 309.961 180.772 309.935 180.758 309.888C180.745 309.841 180.765 309.795 180.819 309.778L181.332 309.624C181.379 309.61 181.429 309.636 181.443 309.683C181.457 309.729 181.431 309.777 181.385 309.792ZM179.674 310.307C179.673 310.307 179.673 310.307 179.672 310.307L179.159 310.462C179.112 310.476 179.062 310.45 179.048 310.404C179.034 310.357 179.066 310.306 179.108 310.293L179.621 310.138C179.668 310.124 179.718 310.15 179.732 310.197C179.746 310.243 179.72 310.292 179.674 310.307ZM177.964 310.825C177.964 310.825 177.963 310.825 177.963 310.825L177.45 310.981C177.403 310.996 177.353 310.97 177.339 310.923C177.325 310.876 177.347 310.824 177.399 310.813L177.911 310.656C177.959 310.642 178.008 310.668 178.022 310.715C178.036 310.761 178.01 310.81 177.964 310.825ZM121.374 329.184C121.327 329.199 121.278 329.174 121.262 329.128C121.246 329.082 121.272 329.032 121.318 329.016L121.826 328.845C121.866 328.83 121.924 328.853 121.939 328.9C121.955 328.946 121.93 328.996 121.883 329.012L121.375 329.183C121.375 329.183 121.374 329.184 121.374 329.184ZM176.256 311.346C176.255 311.346 176.255 311.346 176.254 311.347L175.742 311.504C175.695 311.518 175.645 311.492 175.631 311.446C175.617 311.399 175.643 311.351 175.689 311.336C175.689 311.335 175.69 311.335 175.69 311.335L176.203 311.178C176.25 311.164 176.3 311.19 176.314 311.236C176.328 311.282 176.302 311.331 176.256 311.346ZM123.067 328.612C123.021 328.627 122.971 328.602 122.955 328.556C122.94 328.51 122.965 328.46 123.012 328.444L123.52 328.273C123.566 328.252 123.617 328.282 123.633 328.328C123.648 328.374 123.623 328.424 123.576 328.44L123.068 328.611C123.068 328.611 123.068 328.611 123.067 328.612ZM174.548 311.871C174.548 311.871 174.547 311.871 174.547 311.871L174.035 312.029C173.988 312.044 173.938 312.018 173.923 311.971C173.909 311.925 173.93 311.875 173.983 311.861L174.495 311.703C174.542 311.688 174.592 311.714 174.606 311.76C174.62 311.807 174.595 311.856 174.548 311.871ZM124.761 328.041C124.715 328.056 124.665 328.031 124.649 327.986C124.634 327.939 124.659 327.889 124.706 327.874L125.214 327.703C125.266 327.687 125.311 327.712 125.327 327.758C125.342 327.804 125.317 327.854 125.27 327.87L124.762 328.041C124.762 328.041 124.761 328.041 124.761 328.041ZM126.455 327.471C126.409 327.486 126.359 327.462 126.343 327.416C126.328 327.37 126.353 327.32 126.4 327.304L126.908 327.133C126.961 327.12 127.005 327.142 127.021 327.188C127.036 327.234 127.011 327.285 126.964 327.3L126.456 327.471C126.456 327.471 126.455 327.471 126.455 327.471ZM172.841 312.398C172.841 312.398 172.84 312.398 172.84 312.398L172.328 312.557C172.281 312.572 172.231 312.546 172.217 312.499C172.202 312.453 172.228 312.404 172.275 312.389C172.275 312.389 172.276 312.389 172.276 312.389L172.788 312.23C172.835 312.215 172.885 312.241 172.899 312.288C172.914 312.334 172.888 312.383 172.841 312.398ZM128.149 326.903C128.103 326.918 128.053 326.893 128.038 326.847C128.022 326.801 128.047 326.751 128.094 326.735L128.603 326.565C128.656 326.552 128.7 326.574 128.715 326.62C128.731 326.666 128.705 326.716 128.659 326.732L128.15 326.902C128.15 326.902 128.15 326.902 128.149 326.903ZM171.135 312.928C171.135 312.928 171.135 312.928 171.134 312.928L170.623 313.088C170.576 313.103 170.526 313.077 170.511 313.03C170.497 312.984 170.52 312.931 170.57 312.92L171.082 312.76C171.129 312.745 171.179 312.771 171.193 312.818C171.208 312.864 171.182 312.913 171.135 312.928ZM129.844 326.335C129.797 326.35 129.748 326.325 129.732 326.28C129.717 326.233 129.742 326.183 129.789 326.168L130.297 325.998C130.298 325.998 130.298 325.997 130.298 325.997C130.345 325.982 130.395 326.007 130.41 326.053C130.425 326.099 130.4 326.149 130.353 326.165L129.845 326.335C129.845 326.335 129.844 326.335 129.844 326.335ZM169.43 313.46C169.43 313.46 169.429 313.461 169.429 313.461L168.918 313.621C168.871 313.636 168.821 313.61 168.806 313.564C168.792 313.517 168.82 313.465 168.865 313.453L169.376 313.292C169.424 313.278 169.474 313.304 169.488 313.35C169.502 313.396 169.477 313.445 169.43 313.46ZM131.539 325.769C131.492 325.784 131.442 325.759 131.427 325.713C131.411 325.667 131.437 325.617 131.484 325.601L131.992 325.432C131.992 325.431 131.993 325.431 131.993 325.431C132.039 325.416 132.09 325.441 132.105 325.487C132.12 325.533 132.095 325.583 132.048 325.599L131.54 325.768C131.539 325.768 131.539 325.769 131.539 325.769ZM133.234 325.203C133.187 325.218 133.137 325.194 133.122 325.148C133.107 325.101 133.132 325.051 133.179 325.036L133.688 324.866C133.688 324.866 133.688 324.866 133.688 324.866C133.735 324.851 133.785 324.876 133.8 324.922C133.816 324.968 133.79 325.018 133.743 325.034L133.235 325.203C133.234 325.203 133.234 325.203 133.234 325.203ZM167.726 313.995C167.725 313.995 167.725 313.995 167.725 313.996L167.214 314.156C167.167 314.171 167.117 314.146 167.102 314.099C167.087 314.053 167.113 314.004 167.16 313.988C167.16 313.988 167.16 313.988 167.161 313.988L167.672 313.827C167.719 313.813 167.769 313.838 167.784 313.885C167.798 313.931 167.772 313.98 167.726 313.995ZM134.93 324.639C134.883 324.654 134.833 324.629 134.818 324.583C134.802 324.537 134.828 324.487 134.875 324.472L135.383 324.303C135.428 324.283 135.48 324.312 135.496 324.358C135.511 324.404 135.486 324.454 135.439 324.47L134.93 324.639C134.93 324.639 134.93 324.639 134.93 324.639ZM166.022 314.532C166.022 314.532 166.021 314.532 166.021 314.532L165.51 314.694C165.463 314.709 165.413 314.683 165.398 314.637C165.384 314.591 165.41 314.541 165.456 314.526C165.456 314.526 165.457 314.526 165.457 314.526L165.968 314.364C166.015 314.35 166.065 314.375 166.08 314.422C166.094 314.468 166.068 314.517 166.022 314.532ZM136.625 324.076C136.579 324.091 136.529 324.066 136.513 324.02C136.498 323.974 136.524 323.924 136.57 323.908L137.079 323.74C137.079 323.739 137.08 323.739 137.08 323.739C137.126 323.724 137.177 323.749 137.192 323.795C137.207 323.841 137.182 323.891 137.135 323.907L136.626 324.076C136.626 324.076 136.626 324.076 136.625 324.076ZM164.319 315.071C164.318 315.071 164.318 315.071 164.318 315.071L163.807 315.233C163.76 315.248 163.71 315.223 163.695 315.176C163.681 315.13 163.708 315.074 163.754 315.065L164.265 314.903C164.312 314.888 164.362 314.914 164.377 314.96C164.391 315.006 164.365 315.056 164.319 315.071ZM138.322 323.514C138.275 323.529 138.225 323.504 138.21 323.458C138.194 323.412 138.22 323.362 138.267 323.346L138.776 323.178C138.776 323.178 138.776 323.178 138.776 323.177C138.823 323.162 138.873 323.187 138.888 323.233C138.903 323.279 138.878 323.329 138.831 323.345L138.322 323.513C138.322 323.514 138.322 323.514 138.322 323.514ZM162.616 315.612C162.616 315.612 162.616 315.612 162.616 315.612L162.105 315.775C162.058 315.79 162.008 315.764 161.993 315.718C161.978 315.672 162.005 315.624 162.051 315.607L162.562 315.444C162.609 315.429 162.659 315.455 162.674 315.501C162.689 315.547 162.663 315.597 162.616 315.612ZM140.018 322.953C139.971 322.968 139.921 322.943 139.906 322.897C139.891 322.85 139.916 322.8 139.963 322.785L140.472 322.617C140.472 322.617 140.473 322.617 140.473 322.617C140.519 322.602 140.569 322.627 140.585 322.673C140.6 322.719 140.574 322.769 140.527 322.784L140.018 322.952C140.018 322.952 140.018 322.952 140.018 322.953ZM160.914 316.155C160.914 316.155 160.914 316.155 160.914 316.155L160.403 316.318C160.356 316.333 160.306 316.308 160.291 316.261C160.277 316.215 160.303 316.166 160.349 316.15C160.349 316.15 160.349 316.15 160.35 316.15L160.86 315.987C160.907 315.972 160.957 315.997 160.972 316.044C160.987 316.09 160.961 316.14 160.914 316.155ZM141.715 322.393C141.668 322.408 141.618 322.383 141.603 322.337C141.588 322.29 141.613 322.24 141.66 322.225L142.169 322.057C142.169 322.057 142.169 322.057 142.169 322.057C142.216 322.042 142.266 322.067 142.282 322.113C142.297 322.159 142.271 322.209 142.224 322.225L141.715 322.392C141.715 322.392 141.715 322.392 141.715 322.393ZM143.412 321.834C143.365 321.849 143.315 321.824 143.3 321.778C143.285 321.732 143.311 321.682 143.357 321.666L143.867 321.499C143.867 321.499 143.867 321.499 143.867 321.499C143.914 321.484 143.964 321.509 143.979 321.555C143.994 321.601 143.969 321.651 143.922 321.666L143.413 321.834C143.412 321.834 143.412 321.834 143.412 321.834ZM159.213 316.699L159.213 316.699L158.702 316.863C158.655 316.878 158.605 316.853 158.59 316.806C158.575 316.76 158.601 316.711 158.648 316.695C158.648 316.695 158.648 316.695 158.648 316.695L159.159 316.532C159.206 316.516 159.256 316.542 159.271 316.588C159.285 316.634 159.26 316.684 159.213 316.699ZM145.11 321.276C145.063 321.291 145.013 321.266 144.998 321.22C144.982 321.174 145.008 321.124 145.055 321.108L145.564 320.941L145.565 320.941C145.611 320.926 145.662 320.951 145.677 320.997C145.692 321.044 145.666 321.094 145.619 321.109L145.11 321.276L145.11 321.276ZM157.512 317.245L157.512 317.246L157.002 317.41C156.955 317.425 156.904 317.399 156.89 317.353C156.875 317.307 156.901 317.257 156.947 317.242L156.948 317.242L157.458 317.078C157.505 317.063 157.555 317.088 157.57 317.134C157.585 317.18 157.559 317.23 157.512 317.245ZM146.808 320.72C146.761 320.735 146.711 320.71 146.696 320.664C146.68 320.617 146.706 320.567 146.753 320.552L147.262 320.385L147.263 320.385C147.309 320.37 147.36 320.395 147.375 320.441C147.39 320.488 147.364 320.538 147.317 320.553L146.808 320.72C146.808 320.72 146.808 320.72 146.808 320.72ZM155.812 317.793C155.812 317.793 155.811 317.793 155.811 317.793L155.301 317.958C155.254 317.973 155.204 317.948 155.189 317.901C155.174 317.855 155.2 317.805 155.247 317.79L155.247 317.79L155.757 317.625C155.804 317.61 155.854 317.636 155.869 317.682C155.884 317.728 155.858 317.778 155.812 317.793ZM148.506 320.164C148.459 320.18 148.409 320.155 148.394 320.108C148.379 320.062 148.405 320.012 148.452 319.997L148.961 319.831C149.008 319.815 149.058 319.84 149.073 319.887C149.088 319.933 149.063 319.983 149.016 319.998L148.506 320.164L148.506 320.164ZM154.112 318.342L154.112 318.342L153.602 318.507C153.555 318.523 153.505 318.497 153.49 318.451C153.475 318.405 153.501 318.355 153.547 318.34L153.547 318.34L154.057 318.175C154.104 318.159 154.155 318.185 154.169 318.231C154.184 318.277 154.159 318.327 154.112 318.342ZM150.205 319.611C150.158 319.626 150.108 319.601 150.093 319.554C150.078 319.508 150.103 319.458 150.15 319.443L150.659 319.278C150.706 319.262 150.756 319.287 150.771 319.334C150.786 319.38 150.76 319.43 150.713 319.445L150.205 319.611ZM152.412 318.893C152.412 318.893 152.412 318.893 152.412 318.893L151.903 319.058C151.856 319.074 151.805 319.049 151.79 319.002C151.775 318.956 151.801 318.906 151.848 318.891L152.358 318.725C152.405 318.71 152.455 318.735 152.47 318.782C152.485 318.828 152.459 318.878 152.412 318.893Z" fill="white"/>
<path d="M180.963 352.543L169.898 356.138C168.448 356.61 166.88 355.939 166.247 354.578L161.547 344.463C160.798 342.852 161.65 340.944 163.366 340.386L176.659 336.067C178.341 335.52 180.121 336.511 180.508 338.208L182.981 349.047C183.322 350.544 182.447 352.061 180.963 352.543Z" fill="#7C4846"/>
<path d="M181.499 354.471L170.594 358.014C168.134 358.814 165.468 357.671 164.393 355.356L159.761 345.387C159.155 344.083 159.143 342.576 159.729 341.253C160.317 339.925 161.453 338.904 162.845 338.451L175.945 334.195C177.309 333.752 178.803 333.896 180.045 334.592C181.283 335.284 182.172 336.47 182.486 337.843L184.922 348.525C185.507 351.09 184.036 353.647 181.499 354.471ZM164.157 342.489C163.848 342.589 163.709 342.814 163.653 342.94C163.599 343.062 163.528 343.31 163.658 343.589L168.289 353.558C168.46 353.926 168.887 354.105 169.283 353.977L180.187 350.434C180.595 350.301 180.832 349.895 180.739 349.487L178.303 338.806C178.236 338.511 178.033 338.359 177.919 338.295C177.802 338.23 177.559 338.134 177.257 338.232L164.157 342.489Z" fill="#512D2B"/>
<path d="M137.454 322.157L136.969 319.932C137.045 319.339 137.43 318.811 137.997 318.529C140.116 317.473 145.45 315.096 148.713 316.092L149.924 318.467L137.454 322.157Z" fill="#512D2B"/>
<path d="M143.383 317.337C143.024 317.59 142.625 317.719 142.184 317.724C141.65 317.73 141.13 317.29 140.925 316.659L138.607 309.527L141.461 308.6L143.776 315.726C143.982 316.361 143.82 317.028 143.383 317.337Z" fill="#512D2B"/>
<path d="M171.692 311.032L171.207 308.807C171.283 308.214 171.669 307.686 172.235 307.404C174.355 306.348 179.688 303.971 182.951 304.967L184.162 307.342L171.692 311.032Z" fill="#512D2B"/>
<path d="M177.929 307.161C177.572 307.417 177.172 307.546 176.73 307.548C176.196 307.551 175.671 307.099 175.462 306.454L172.846 298.402L175.699 297.475L178.313 305.522C178.524 306.17 178.366 306.849 177.929 307.161Z" fill="#512D2B"/>
<path d="M138.25 311.743L176.706 297.848C177.583 297.532 178.13 296.658 178.005 295.754C177.829 294.487 177.434 292.634 176.551 290.867C175.546 288.858 173.189 287.889 170.992 288.546C163.686 290.732 145.229 296.735 136.342 304C135.403 304.768 134.898 305.932 134.984 307.123C135.066 308.258 135.349 309.718 136.153 311.036C136.579 311.736 137.463 312.027 138.25 311.743Z" fill="#7F4B49"/>
<path d="M136.907 310.08C136.82 310.109 136.726 310.071 136.69 309.992C136.665 309.937 136.081 308.62 136.036 307.184C136.002 306.092 136.589 305.015 137.569 304.372C139.548 303.074 143.369 300.718 146.731 299.528C146.825 299.495 146.926 299.539 146.957 299.626C146.988 299.713 146.938 299.811 146.844 299.844C143.521 301.021 139.729 303.358 137.765 304.647C136.889 305.222 136.364 306.185 136.394 307.16C136.437 308.532 137.015 309.836 137.021 309.849C137.059 309.934 137.016 310.034 136.925 310.074C136.919 310.076 136.913 310.078 136.907 310.08Z" fill="#91B3FA"/>
<path d="M180.965 352.543L169.9 356.138C168.45 356.61 166.882 355.939 166.249 354.578L161.549 344.463C160.8 342.852 161.652 340.944 163.368 340.386L176.661 336.067C178.343 335.52 180.123 336.511 180.51 338.208L182.983 349.047C183.324 350.544 182.449 352.061 180.965 352.543Z" fill="#7C4846" stroke="#512D2B" stroke-width="4" stroke-miterlimit="10"/>
<path d="M162.811 305.968C167.813 301.62 168.217 294.154 163.713 289.292C159.209 284.43 151.504 284.014 146.502 288.362C141.5 292.71 141.096 300.176 145.6 305.038C150.104 309.9 157.81 310.316 162.811 305.968Z" fill="#ECB6A2"/>
<path d="M149.26 308.924C149.26 308.924 144.84 312.377 142.077 306.723C139.315 301.068 138.975 292.219 150.166 286.842L149.26 308.924Z" fill="#ECB6A2"/>
<path d="M101 266.928L107.221 282.988C107.221 282.988 118.543 283.933 120.992 269.337C121.132 268.503 119.294 264.879 118.671 264.285L111.069 259.469C109.822 258.679 108.197 258.906 107.208 260.009L101 266.928Z" fill="#FFBB9C"/>
<path d="M101 286.759L76.5076 290L76 275.461L83.1293 267L99.6466 269.432L101 286.759Z" fill="#6E66B3"/>
<path d="M79.918 267.956L107.91 354.503L107.438 346.938L99.6656 395.424L95.6802 443L119.574 441.86L139.334 352.513L140 349.457L138.861 344.948L123.54 254.113L113.869 236L73 248.617L79.918 267.956Z" fill="#6E66B3"/>
<path d="M52.9147 249.906L48 285.664L49.468 306.513C50.4713 320.412 51.293 334.318 52.2122 348.224C53.1272 362.131 53.8632 376.033 54.6839 389.945L55.7631 410.813L56.7013 431.687L57.2546 443.999L80.5485 444L84.3323 389.945V368.853L84.9391 358.376C85.1463 354.882 85.1721 351.393 85.2974 347.902C85.7276 333.937 86.0605 319.971 86.5748 306L87.3094 285.042L88.1525 264.077L89 243L61.6233 244.736L52.9147 249.906Z" fill="#6E66B3"/>
<path d="M70.025 253.431L111 252L111.406 260.991L70.431 262.422L70.025 253.431Z" fill="#312220"/>
<path d="M99.7486 152L72 152.902L76.2438 161L100 158.933L99.7486 152Z" fill="#CCB2F1"/>
<path d="M172 175L171 174C171.36 174.313 171.689 174.65 172 175Z" fill="#F66390"/>
<path d="M89.3149 155L106 160.099C106 160.099 102.581 165.108 88.6556 167.472C85.0283 168.087 81.3164 168.189 77.6776 167.65C73.3775 167.013 68.6061 165.437 68 161.604L79.7103 155.338L89.3149 155Z" fill="#D08864"/>
<path d="M104.136 159C94.7311 171.479 68 161.584 68 161.584L69.6321 255L108 253.687L104.136 159Z" fill="#CCB2F1"/>
<path d="M67.628 158.042L78.2366 197.789L79 286L49.2007 280.169C49.2007 280.169 49.5931 206.35 43.6288 184.51C40.0451 171.387 41.5786 158.832 56.3652 158.324L65.8251 158L67.628 158.042Z" fill="#6E66B3"/>
<path d="M79 286L78.2414 203L77.217 203.011L77.9641 284.74L49.1971 279.042L49 280.058L79 286Z" fill="#454584"/>
<path d="M94.1054 137.811L95.9467 158.771C96.4916 164.792 92.816 164.511 86.9949 164.954C82.0259 165.332 76.3634 163.424 76.1115 158.096L75 131L94.1054 137.811Z" fill="#ECB6A2"/>
<path d="M95 154L78 144.021L93.9057 141L95 154Z" fill="#DDA290"/>
<path d="M95.8355 119.379C97.1225 123.316 101.147 125.542 104.824 124.35C108.501 123.158 110.439 118.999 109.152 115.062C107.865 111.124 103.841 108.899 100.164 110.091C96.4864 111.283 94.5487 115.442 95.8355 119.379Z" fill="#DDA290"/>
<path d="M94.4696 142.58C103.565 138.929 108.1 128.542 105.294 120.812L99.3354 104.671C95.8183 94.9815 85.4478 89.748 75.8981 92.8427C66.1216 96.0111 59.1429 107.265 62.4238 117.294L67.2202 129.815C71.5254 141.092 83.2862 146.204 94.4696 142.58Z" fill="#ECB6A2"/>
<path d="M57.6874 132.893C58.8938 136.567 62.8539 138.581 66.5324 137.393C70.2109 136.205 72.215 132.264 71.0085 128.591C69.8021 124.918 65.8421 122.903 62.1635 124.091C58.4849 125.279 56.4811 129.22 57.6874 132.893Z" fill="#ECB6A2"/>
<path d="M68.0706 131.901C68.0856 131.897 68.1008 131.891 68.1152 131.884C68.3204 131.794 68.4129 131.552 68.322 131.344C68.2779 131.243 67.2212 128.872 65.0246 128.257C63.6734 127.88 62.2156 128.252 60.6896 129.363C60.5082 129.495 60.4685 129.752 60.5998 129.936C60.732 130.121 60.9879 130.162 61.1665 130.031C62.4832 129.072 63.7101 128.741 64.8141 129.049C66.6406 129.56 67.5712 131.65 67.5802 131.671C67.6646 131.864 67.877 131.96 68.0706 131.901Z" fill="#312220"/>
<path d="M103.618 117.697C103.618 117.697 105.546 123.639 102.721 125.768C100.189 127.677 97.9418 126.294 94.2094 127.733C89.3481 129.608 86.3755 131.073 82.1255 135.461C78.5709 139.132 68.5454 129.63 65.5252 122.326C65.2042 121.55 64.3032 124.516 64.3032 124.516L69.593 135.746C69.593 135.746 77.7369 152.338 96.0297 145.147C114.322 137.955 103.618 117.697 103.618 117.697Z" fill="#332C30"/>
<path d="M65 106.204L66.0472 116.433L66.9348 120L69 106L65 106.204Z" fill="#332C30"/>
<path d="M91.0966 127.81C91.1042 127.808 91.1109 127.805 91.1179 127.803L93.9787 126.796C94.1124 126.749 94.2198 126.65 94.2732 126.526C94.326 126.403 94.3203 126.266 94.2563 126.152L92.271 122.6C92.1499 122.384 91.8604 122.304 91.6231 122.431C91.386 122.555 91.2921 122.83 91.4131 123.046L93.1433 126.141L90.8152 126.96C90.5625 127.049 90.4256 127.31 90.5092 127.543C90.5909 127.769 90.8505 127.886 91.0966 127.81Z" fill="#312220"/>
<path d="M90.7677 111.541C90.7677 111.541 91.0222 113.102 93.051 112.335C94.5914 111.753 95.5587 111.364 96.5283 111.221C97.079 111.139 97.5264 110.714 97.5898 110.215C97.641 109.812 97.4335 109.441 97.0496 109.277C96.2716 108.944 94.8051 108.57 92.922 109.257C90.5038 110.138 90.7677 111.541 90.7677 111.541Z" fill="#332C30"/>
<path d="M81.3329 115.207C81.3329 115.207 82.2292 116.45 79.554 117.303C77.5228 117.95 76.2297 118.341 75.1171 118.901C74.4854 119.22 73.7046 119.232 73.2678 118.932C72.9151 118.691 72.8549 118.296 73.1312 117.922C73.6912 117.165 74.9348 115.912 77.3991 115.104C80.5638 114.065 81.3329 115.207 81.3329 115.207Z" fill="#332C30"/>
<path d="M92.7641 132.081C94.0008 131.703 95.2646 131.031 96.0794 129.844C96.2087 129.654 96.1691 129.369 95.9902 129.208C95.8113 129.048 95.562 129.069 95.4309 129.258C93.6318 131.884 89.0288 131.648 88.982 131.646C88.7626 131.634 88.5868 131.824 88.5934 132.073C88.5993 132.322 88.7835 132.534 89.0042 132.546C89.127 132.554 90.9146 132.646 92.7641 132.081Z" fill="white"/>
<path d="M66.2322 126.038L61.1722 120.86C55.1762 112.596 60.5047 100.307 69.2987 95.3882C72.7777 93.4419 74.6858 93.1259 77.5924 92.0463C85.8912 88.9638 95.2467 93.0635 98.3035 101.522L99.1102 103.755C98.6644 102.564 97.5719 103.681 96.6724 101.767C95.5002 99.271 92.9394 97.706 90.2241 97.567C80.9978 97.0944 72.7165 102.7 69.3983 107.618C67.1254 110.987 67.9974 113.846 69.4408 115.362C70.1595 116.117 70.6095 118.006 70.9808 120.125C71.5128 123.158 71.0321 126.282 69.5827 128.973L69.5827 128.973L66.2322 126.038Z" fill="#312220"/>
<path d="M94 170.715L87.0677 166L80 172.031L88.4721 179L94 170.715Z" fill="#312220"/>
<path d="M88.1752 175L98 233.326L90.564 251L83 233.831L86.7861 176.11L88.1752 175Z" fill="#312220"/>
<path d="M57.8014 158.411L51 159.774L65.3417 182.061L71.9143 184.998L67.1324 194.474L78.4081 244L82 189.246L65.0125 157L57.8014 158.411Z" fill="#4E4AA0"/>
<path d="M106.634 285C106.459 268.77 105.705 234.147 105 207.586L106.222 243.75L116.085 191.273L107.292 183.228L117.083 177.049L115.869 161C121.822 163.107 131.467 170.08 130.954 175.357L123.964 220.346L131 270.762L106.634 285Z" fill="#6E66B3"/>
<path d="M105.707 286L131 270.139L130.463 269.027L106.766 283.8C106.672 274.435 106.44 259.119 106.079 241L105 241.03C105.376 259.862 105.611 275.553 105.697 284.907L105.707 286Z" fill="#454584"/>
<path d="M103.592 195.489L103.632 194C103.751 198.145 103.875 202.51 104 207L103.592 195.489Z" fill="#4E4AA0"/>
<path d="M115 161L113 160C113.673 160.259 114.342 160.577 115 161Z" fill="#6E66B3"/>
<path d="M113.153 160.36L106 159.323C108.184 158.827 110.461 158.894 112.693 159.579L114.968 160.485L115 161C114.335 160.714 113.713 160.497 113.153 160.36Z" fill="#4E4AA0"/>
<path d="M105.773 182.664L114.957 190.684L104.654 243L103.378 206.947C103.249 202.321 103.122 197.824 103 193.553L103.29 157L113.426 159.759C113.979 159.865 114.166 160.039 114.822 160.261L116 176.504L105.773 182.664Z" fill="#4E4AA0"/>
<path d="M87 165.909L94.383 177L106 159.845L99.5776 152L87 165.909Z" fill="#F3E9FE"/>
<path d="M117.508 280L131 271.342L123.939 220.025L129.152 183.177L128.147 183L122.908 220.023L129.888 270.744L117 279.016L117.508 280Z" fill="#454584"/>
<path d="M81.514 266L102 265.328L101.487 251L81 251.674L81.514 266ZM97.4186 261.232L85.7913 261.615L85.5814 255.768L97.2092 255.385L97.4186 261.232Z" fill="#AF6B64"/>
<path d="M72.1347 153L61 158.892L81.3273 178L87 165.588L72.1347 153Z" fill="#F3E9FE"/>
<path d="M94.2631 114.627C95.013 114.268 95.9594 114.804 96.377 115.824C96.7945 116.843 96.5253 117.961 95.7753 118.321C95.0256 118.68 94.0791 118.145 93.6615 117.125C93.2441 116.105 93.5133 114.987 94.2631 114.627Z" fill="#3E3431"/>
<path d="M80.263 120.627C81.0128 120.268 81.9591 120.803 82.377 121.823C82.7943 122.843 82.5249 123.962 81.7752 124.321C81.0253 124.68 80.0789 124.145 79.6615 123.125C79.2439 122.105 79.5131 120.987 80.263 120.627Z" fill="#3E3431"/>
<path d="M47.6754 276L36 260.126L48.5614 250L65 267.79L47.6754 276Z" fill="#FFBB9C"/>
<path d="M72 282L70.25 265L44 271.46L47.0996 278.825L72 282Z" fill="#6E66B3"/>
<path d="M53.0045 260.832C53.6556 259.784 56.8191 257.307 61.1851 258.185C66.93 259.34 68.0492 262.391 68.0492 262.391C70.797 263.916 75.3526 264.221 74.9783 265.791C74.6199 269.191 70.8809 269.239 69.6127 268.816L65.7268 266.659C65.7268 266.659 60.4057 268.174 53 263.346L53.0045 260.832Z" fill="#FFBB9C"/>
<path d="M40.9329 270L13.8877 237.284L12.7664 235.999C11.0598 233.796 10.0493 231.062 10.0081 228.124C10.005 227.91 9.99911 227.698 10.0001 227.482C10.0449 217.859 17.5349 210.92 25.4253 212.139L25.6157 212.177C27.0137 212.459 28.3361 213.031 29.4966 213.855L30.3974 214.495C31.1894 215.057 31.8806 215.748 32.4418 216.539L51.442 243.299L60 256.033L40.9329 270Z" fill="#6E66B3"/>
<path d="M58.0192 201L41.7828 229.438L51.1958 242.249L60.9985 255.84L41.5984 270.039" stroke="#454584"/>
</g>
<defs>
<clipPath id="clip0_1199_48907">
<rect width="237" height="363" fill="white" transform="matrix(-1 0 0 1 231 90)"/>
</clipPath>
</defs>
</svg>
