<svg width="29" height="33" viewBox="0 0 29 33" fill="none" xmlns="http://www.w3.org/2000/svg">
<g id="Frame 344">
<path id="Vector" d="M8 3V7" stroke="#333333" stroke-linecap="round" stroke-linejoin="round"/>
<path id="Vector_2" d="M12 3V7" stroke="#333333" stroke-linecap="round" stroke-linejoin="round"/>
<path id="Vector_3" d="M16 3V7" stroke="#333333" stroke-linecap="round" stroke-linejoin="round"/>
<path id="Vector_4" d="M1 28H24" stroke="#333333" stroke-linecap="round" stroke-linejoin="round"/>
<path id="Vector_5" d="M7.70352 28C5.70277 27.0666 4.00761 25.5693 2.81935 23.6859C1.63109 21.8025 0.999644 19.6121 1 17.3748V11H24V17.3748C24.0004 19.6121 23.3689 21.8025 22.1806 23.686C20.9924 25.5694 19.2972 27.0667 17.2964 28" stroke="#333333" stroke-linecap="round" stroke-linejoin="round"/>
<path id="Vector_6" d="M23.4775 11C24.6769 11 25.8272 11.4214 26.6754 12.1716C27.5235 12.9217 28 13.9391 28 15V16C28 17.0609 27.5235 18.0783 26.6754 18.8284C25.8272 19.5786 24.6769 20 23.4775 20H23" stroke="#333333" stroke-linecap="round" stroke-linejoin="round"/>
</g>
</svg>
