<svg width="40" height="40" viewBox="0 0 40 40" fill="none" xmlns="http://www.w3.org/2000/svg">
<g id="support/magic-star">
<path id="Vector" d="M21.6842 37.4964C20.6842 37.4964 19.1342 37.013 17.6508 34.5797L14.7174 29.8297C14.4341 29.363 13.5674 28.913 13.0341 28.9464L7.4674 29.2297C4.13406 29.3964 2.96746 28.013 2.5508 27.1797C2.13413 26.3464 1.7674 24.563 3.93406 22.0297L7.23413 18.1964C7.56746 17.7964 7.75075 16.9297 7.60075 16.4296L5.9174 11.0463C5.0674 8.34631 6.01741 6.89633 6.65075 6.26299C7.28408 5.62966 8.75075 4.71296 11.4507 5.61296L16.3674 7.22963C16.8175 7.37963 17.6508 7.24631 18.0342 6.97965L23.1675 3.27964C25.5175 1.57964 27.2173 2.02965 28.0007 2.44631C28.784 2.86298 30.1173 3.99633 30.0673 6.89633L29.9507 13.213C29.934 13.6796 30.3173 14.4463 30.684 14.7296L34.8175 17.863C37.0675 19.5797 37.1508 21.2964 37.0008 22.1797C36.8508 23.063 36.1842 24.663 33.4842 25.4964L28.1007 27.1797C27.6007 27.3297 26.984 27.9797 26.8507 28.4797L25.5675 33.3797C24.7175 36.5964 23.0508 37.313 22.1175 37.4464C22.0008 37.4797 21.8508 37.4964 21.6842 37.4964ZM13.084 26.4464C14.5174 26.4464 16.1007 27.313 16.834 28.513L19.7673 33.263C20.6007 34.6297 21.3507 35.0464 21.7507 34.9797C22.134 34.9297 22.7342 34.2964 23.1508 32.763L24.434 27.863C24.784 26.5297 26.034 25.213 27.3507 24.813L32.7342 23.1297C33.7675 22.813 34.434 22.2964 34.534 21.763C34.634 21.2297 34.1673 20.5297 33.3007 19.863L29.1675 16.7297C28.1508 15.963 27.4175 14.4296 27.4342 13.163L27.5508 6.84628C27.5675 5.72961 27.3008 4.89631 26.8175 4.64631C26.3342 4.39631 25.5175 4.64629 24.6008 5.29629L19.4673 8.99629C18.4507 9.72963 16.7675 9.99633 15.5508 9.59633L10.6341 7.97964C9.60076 7.64631 8.76746 7.66294 8.38413 8.04628C8.0008 8.42961 7.96738 9.26296 8.28405 10.2963L9.9674 15.6796C10.3841 16.9964 10.0174 18.7797 9.11738 19.813L5.81741 23.6464C4.76741 24.863 4.60075 25.713 4.78408 26.063C4.95075 26.413 5.7508 26.7964 7.33413 26.713L12.9007 26.4297C12.9674 26.4464 13.034 26.4464 13.084 26.4464Z" fill="white"/>
<path id="Vector_2" d="M36.5175 37.9169C36.2008 37.9169 35.8842 37.8003 35.6342 37.5503L30.5842 32.5003C30.1008 32.0169 30.1008 31.2169 30.5842 30.7336C31.0675 30.2503 31.8675 30.2503 32.3508 30.7336L37.4008 35.7836C37.8842 36.2669 37.8842 37.0669 37.4008 37.5503C37.1508 37.8003 36.8342 37.9169 36.5175 37.9169Z" fill="white"/>
</g>
</svg>
