<svg width="40" height="40" viewBox="0 0 40 40" fill="none" xmlns="http://www.w3.org/2000/svg">
<g id="users/people">
<path id="Vector" d="M29.9969 11.932C29.8969 11.9154 29.7802 11.9154 29.6802 11.932C27.3802 11.8487 25.5469 9.96536 25.5469 7.63203C25.5469 5.2487 27.4635 3.33203 29.8469 3.33203C32.2302 3.33203 34.1469 5.26536 34.1469 7.63203C34.1302 9.96536 32.2969 11.8487 29.9969 11.932Z" stroke="white" stroke-width="2" stroke-linecap="round" stroke-linejoin="round"/>
<path id="Vector_2" d="M28.2795 24.0657C30.5628 24.449 33.0795 24.049 34.8462 22.8657C37.1962 21.299 37.1962 18.7324 34.8462 17.1657C33.0628 15.9823 30.5128 15.5823 28.2295 15.9823" stroke="white" stroke-width="2" stroke-linecap="round" stroke-linejoin="round"/>
<path id="Vector_3" d="M9.94394 11.932C10.0439 11.9154 10.1606 11.9154 10.2606 11.932C12.5606 11.8487 14.3939 9.96536 14.3939 7.63203C14.3939 5.2487 12.4773 3.33203 10.0939 3.33203C7.71061 3.33203 5.79395 5.26536 5.79395 7.63203C5.81061 9.96536 7.64394 11.8487 9.94394 11.932Z" stroke="white" stroke-width="2" stroke-linecap="round" stroke-linejoin="round"/>
<path id="Vector_4" d="M11.6622 24.0657C9.37884 24.449 6.86217 24.049 5.09551 22.8657C2.74551 21.299 2.74551 18.7324 5.09551 17.1657C6.87884 15.9823 9.42884 15.5823 11.7122 15.9823" stroke="white" stroke-width="2" stroke-linecap="round" stroke-linejoin="round"/>
<path id="Vector_5" d="M19.9968 24.3813C19.8968 24.3647 19.7802 24.3647 19.6802 24.3813C17.3802 24.298 15.5469 22.4147 15.5469 20.0813C15.5469 17.698 17.4635 15.7812 19.8468 15.7812C22.2302 15.7812 24.1468 17.7147 24.1468 20.0813C24.1302 22.4147 22.2968 24.3147 19.9968 24.3813Z" stroke="white" stroke-width="2" stroke-linecap="round" stroke-linejoin="round"/>
<path id="Vector_6" d="M15.1482 29.6336C12.7982 31.2003 12.7982 33.7669 15.1482 35.3336C17.815 37.1169 22.1815 37.1169 24.8482 35.3336C27.1982 33.7669 27.1982 31.2003 24.8482 29.6336C22.1982 27.8669 17.815 27.8669 15.1482 29.6336Z" stroke="white" stroke-width="2" stroke-linecap="round" stroke-linejoin="round"/>
</g>
</svg>
