<svg width="40" height="40" viewBox="0 0 40 40" fill="none" xmlns="http://www.w3.org/2000/svg">
<g id="arrow/rotate-right">
<path id="Vector" d="M19.9968 37.9127C11.3302 37.9127 4.29688 30.8627 4.29688 22.2127C4.29688 13.5628 11.3302 6.49609 19.9968 6.49609C21.7802 6.49609 23.5135 6.74609 25.1802 7.26276C25.8468 7.46276 26.2135 8.16276 26.0135 8.82943C25.8135 9.49609 25.1135 9.86276 24.4468 9.66276C23.0302 9.22943 21.5302 8.99609 19.9968 8.99609C12.7136 8.99609 6.79688 14.9128 6.79688 22.196C6.79688 29.4794 12.7136 35.396 19.9968 35.396C27.2802 35.396 33.1968 29.4794 33.1968 22.196C33.1968 19.5627 32.4302 17.0294 30.9802 14.8628C30.5968 14.2961 30.7468 13.5128 31.3302 13.1294C31.8968 12.7461 32.6802 12.8961 33.0635 13.4794C34.7968 16.0628 35.7135 19.0794 35.7135 22.2127C35.6968 30.8627 28.6635 37.9127 19.9968 37.9127Z" fill="white"/>
<path id="Vector_2" d="M26.8811 10.1183C26.5311 10.1183 26.1811 9.96832 25.9311 9.68498L21.1145 4.15165C20.6645 3.63498 20.7145 2.83498 21.2311 2.38498C21.7478 1.93498 22.5478 1.98498 22.9978 2.50165L27.8145 8.03498C28.2645 8.55165 28.2145 9.35165 27.6978 9.80165C27.4811 10.0183 27.1811 10.1183 26.8811 10.1183Z" fill="white"/>
<path id="Vector_3" d="M21.2667 14.2167C20.8834 14.2167 20.5 14.0333 20.25 13.7C19.85 13.15 19.9667 12.3667 20.5167 11.95L26.1334 7.85001C26.6834 7.43334 27.4667 7.56667 27.8834 8.11667C28.3 8.66667 28.1667 9.45001 27.6167 9.86667L22 13.9833C21.7834 14.15 21.5334 14.2167 21.2667 14.2167Z" fill="white"/>
</g>
</svg>
