<svg width="18" height="18" viewBox="0 0 18 18" fill="none" xmlns="http://www.w3.org/2000/svg">
<path d="M8.5 10C9.88071 10 11 8.88071 11 7.5C11 6.11929 9.88071 5 8.5 5C7.11929 5 6 6.11929 6 7.5C6 8.88071 7.11929 10 8.5 10Z" stroke="#333333" stroke-linecap="round" stroke-linejoin="round"/>
<path d="M14 7.76923C14 12.9615 8.5 17 8.5 17C8.5 17 3 12.9615 3 7.76923C3 6.23914 3.57946 4.77171 4.61091 3.68977C5.64236 2.60783 7.04131 2 8.5 2C9.95869 2 11.3576 2.60783 12.3891 3.68977C13.4205 4.77171 14 6.23914 14 7.76923V7.76923Z" stroke="#333333" stroke-linecap="round" stroke-linejoin="round"/>
</svg>
