<svg width="224" height="212" viewBox="0 0 224 212" fill="none" xmlns="http://www.w3.org/2000/svg">
<path d="M106.948 132.304C105.967 122.376 103.577 115.402 100.202 104.064C97.3718 94.5552 88.3509 74.7447 89.9119 66.4219H81.8341H81.1673H73.0881C72.4006 77.083 65.6296 94.5552 62.7982 104.064C59.4246 115.402 57.0333 122.376 56.0539 132.304C55.4672 138.231 54.3886 186.587 54.0019 204.65C53.9233 208.362 56.3265 211.422 59.3209 211.422H77.4974H85.504H103.679C106.673 211.422 109.078 208.362 108.998 204.65C108.611 186.587 107.533 138.231 106.948 132.304Z" fill="#518E62"/>
<path d="M94 88.9396L80.838 95.4219L67 88.9396L71.028 74.2473V36.4219H89.7252V74.2473L94 88.9396Z" fill="#E49962"/>
<path d="M92 45.4219H70V49.4219H92V45.4219Z" fill="#A86B10"/>
<path d="M89 71.9212C89 72.1977 85.4176 72.4219 81 72.4219C76.5808 72.4219 73 72.1977 73 71.9212C73 71.6447 76.5808 71.4219 81 71.4219C85.4176 71.4219 89 71.6447 89 71.9212Z" fill="#A86B10"/>
<path d="M62 132.041L81.0129 109.422L101 130.701L81.5007 152.422L62 132.041Z" fill="#236135"/>
<path d="M55 188.422C63.837 188.422 71 166.931 71 140.422H39C39 166.931 46.163 188.422 55 188.422Z" fill="#ACC0E2"/>
<path d="M55 184.422C61.2867 184.422 66.5614 168.382 68 146.753C68 146.753 42.7407 146.007 42 146.753C43.4386 168.382 48.7133 184.422 55 184.422Z" fill="#F9645A"/>
<path d="M73 134.422H38V140.422H73V134.422Z" fill="#ACC0E2"/>
<path d="M59 186.422H53V207.422H59V186.422Z" fill="#A9C1EA"/>
<path d="M68 208.695L58.5304 205.422H52.471L43 208.695V210.422H68V208.695Z" fill="#A9C1EA"/>
<path opacity="0.6" d="M43.5215 134.422C43.5215 134.422 41.3562 154.184 45.8501 170.102C50.344 186.021 53.2574 186.807 53.2574 186.807V205.761L45.5593 211.422H53.9838L55 205.761V186.807C55 186.807 50.7883 171.659 49.9159 161.164C49.0456 150.669 49.6261 134.422 49.6261 134.422H43.5215Z" fill="white"/>
<g style="mix-blend-mode:overlay">
<path opacity="0.6" d="M69 134.422C69 134.422 68.8275 154.224 64.3682 170.176C59.9088 186.127 56.7292 186.915 56.7292 186.915V205.908L64.3682 211.422H56.0084L55 205.908V186.915C55 186.915 55.1427 171.736 56.0084 161.219C56.8719 150.702 56.2959 134.422 56.2959 134.422H69Z" fill="#0D0000"/>
</g>
<g style="mix-blend-mode:lighten">
<rect x="38" y="137.422" width="35" height="3" fill="white"/>
</g>
<g opacity="0.600006">
<g opacity="0.600006">
<path opacity="0.600006" d="M36.3613 87.2884C34.4683 90.1298 33.2991 94.6688 32.4653 98.0875C31.9614 100.148 31.31 106.901 33.8642 108.22C38.2445 110.482 40.0262 93.0662 39.9997 90.3668C39.99 89.3733 38.7025 84.4608 36.3613 87.2884Z" fill="#FEFDEB"/>
</g>
</g>
<g opacity="0.300003">
<g opacity="0.300003">
<path opacity="0.300003" d="M13.4635 114.942C14.6082 113.392 17.3483 110.543 20 114.222C13.7678 126.188 9.55693 139.147 7.56163 152.422C5.4026 146.429 5.77789 139.969 6.91392 133.786C8.16008 127.012 9.98584 122.354 12.6709 116.309C12.8839 115.828 13.149 115.367 13.4635 114.942Z" fill="white"/>
</g>
</g>
<path d="M152 182.422L189.776 125.422L222 181.006L152 182.422Z" fill="#B2559C"/>
<path d="M143 180.422L172.679 112.422L205 180.422H143Z" fill="#764678"/>
<path d="M134 181.422L173.101 111.422L190 181.422H134Z" fill="#CF7EBC"/>
<path d="M142 167.422H91V182.422H142V167.422Z" fill="#F18751"/>
<g opacity="0.300003">
<path opacity="0.5" d="M142.432 166.53C141.878 165.894 140.969 165.756 140.138 165.66C124.984 163.948 109.64 164.011 94.5014 165.849L91 168.898C91.4627 170.326 92.7841 171.319 94.1822 171.81C95.5802 172.3 97.0822 172.375 98.5521 172.544C102.125 172.951 105.632 173.934 108.905 175.447C111.82 176.795 114.567 178.567 117.638 179.495C120.706 180.425 124.311 180.37 126.793 178.313C127.526 177.705 128.132 176.951 128.869 176.347C129.607 175.747 130.544 175.294 131.477 175.455C134.5 175.976 130.325 183.692 134.5 183.415C135.636 183.339 141.524 178.09 142.199 177.157C142.835 176.282 142.88 175.115 142.9 174.029C142.932 172.355 142.964 170.678 142.996 169.004C143.013 168.137 142.998 167.179 142.432 166.53Z" fill="black"/>
</g>
<path d="M114.029 171.422H113.971C113.434 171.422 113 170.987 113 170.453V105.391C113 104.854 113.434 104.422 113.971 104.422H114.029C114.564 104.422 115 104.854 115 105.391V170.453C115 170.987 114.564 171.422 114.029 171.422Z" fill="#C27460"/>
<path d="M140.655 159.531C138.116 157.814 134.841 157.729 131.768 157.702C120.999 157.611 110.23 157.52 99.4641 157.427C95.9 157.398 92.1136 157.43 89.1077 159.33C86.828 160.774 85.2078 163.765 86.4057 166.172C87.5221 168.411 90.0858 168.58 92.6817 168.423C98.5008 168.109 104.392 169.181 109.722 171.522C113.17 173.037 116.553 175.119 120.325 175.173C123.807 175.224 127.258 173.366 129.113 170.441C131.479 171.444 133.272 173.41 135.404 174.837C137.533 176.266 140.479 177.112 142.613 175.687C144.537 174.403 145.022 171.806 144.999 169.504C144.96 165.736 143.792 161.651 140.655 159.531Z" fill="#B0CFEE"/>
<path d="M137.17 164.087C134.932 162.732 132.046 162.664 129.338 162.643C119.847 162.571 110.356 162.5 100.867 162.426C97.7254 162.403 94.3883 162.428 91.739 163.928C89.7298 165.068 88.3017 167.429 89.3575 169.33C90.3415 171.097 92.6011 171.231 94.889 171.107C100.018 170.859 105.209 171.705 109.907 173.554C112.946 174.75 115.928 176.393 119.252 176.436C122.322 176.476 125.363 175.009 126.998 172.7C129.083 173.492 130.664 175.044 132.542 176.17C134.419 177.299 137.016 177.967 138.897 176.842C140.592 175.828 141.019 173.778 140.999 171.961C140.965 168.986 139.935 165.761 137.17 164.087Z" fill="white"/>
<g opacity="0.300003">
<path opacity="0.6" d="M107 157.422C109.771 160.643 113.741 162.496 117.711 162.42C121.681 162.346 125.328 160.911 128 157.586L107 157.422Z" fill="black"/>
</g>
<path d="M104.78 126.726C105.729 125.185 107.632 122.307 108.581 120.767C108.837 120.348 109.106 119.858 108.958 119.39C108.852 119.054 108.554 118.818 108.263 118.618C106 117.053 103.207 116.275 100.461 116.445C99.9975 116.474 99.4995 116.546 99.1717 116.871C98.8956 117.142 98.7921 117.541 98.7009 117.918C98.0402 120.651 98.2966 125.853 98.2966 125.853C98.2892 125.668 97.7025 128.106 97 129.444L104.311 130.422C104.247 127.8 104.78 126.726 104.78 126.726Z" fill="#FF735D"/>
<path d="M128.078 125.256C125.23 124.674 122.242 126.065 120.809 128.638C119.177 131.562 121.16 133.821 121.436 136.409C121.854 140.348 117.772 143.775 113.898 143.416C110.025 143.058 106.854 139.761 105.606 136.006C104.707 133.306 104.643 130.417 104.983 127.565C105.188 125.838 103.798 124.345 102.091 124.425C101.231 124.465 100.447 124.913 99.9366 125.619C94.5433 133.07 94.751 144.626 100.196 152.064C105.926 159.892 117.374 162.744 125.943 158.367C134.512 153.992 139.116 142.814 136.048 133.565C134.773 129.72 132.005 126.06 128.078 125.256Z" fill="#FF735D"/>
<path d="M134.999 150.382C134.992 150.456 133.957 150.458 132.329 150.118C130.705 149.785 128.501 149.04 126.327 147.746C124.155 146.446 122.481 144.873 121.444 143.618C120.401 142.361 119.94 141.463 120.006 141.426C120.174 141.286 122.415 144.686 126.678 147.193C130.906 149.758 135.053 150.172 134.999 150.382Z" fill="white"/>
<path d="M135.998 132.438C136.081 132.553 132.933 133.888 128.657 134.287C124.383 134.712 120.95 134.007 121.001 133.882C121.026 133.711 124.423 134.157 128.581 133.742C132.742 133.356 135.925 132.277 135.998 132.438Z" fill="white"/>
<path d="M117.995 159.419C117.959 159.47 117.137 158.872 116.118 157.557C115.101 156.252 113.976 154.161 113.398 151.614C112.829 149.068 112.942 146.654 113.292 144.996C113.637 143.328 114.116 142.396 114.171 142.422C114.268 142.461 113.936 143.442 113.705 145.076C113.47 146.705 113.43 149.017 113.976 151.467C114.532 153.912 115.551 155.947 116.454 157.284C117.354 158.627 118.065 159.337 117.995 159.419Z" fill="white"/>
<path d="M99.022 150.42C98.8678 150.423 99.4846 147.302 102.152 144.396C103.465 142.961 104.938 141.916 106.061 141.278C107.189 140.637 107.955 140.365 107.996 140.432C108.122 140.611 105.205 142.02 102.669 144.798C100.117 147.567 99.2327 150.496 99.022 150.42Z" fill="white"/>
<path d="M104.999 132.992C104.959 133.09 104.411 132.906 103.522 132.897C102.633 132.878 101.411 133.123 100.177 133.706C97.6943 134.877 96.1492 136.545 96.0096 136.415C95.8701 136.338 97.2487 134.411 99.8956 133.153C101.208 132.53 102.589 132.325 103.554 132.463C104.526 132.593 105.03 132.939 104.999 132.992Z" fill="white"/>
<path opacity="0.4" d="M104.78 126.726C105.729 125.185 107.632 122.307 108.581 120.767C108.837 120.348 109.106 119.858 108.958 119.39C108.852 119.054 108.554 118.818 108.263 118.618C106 117.053 103.207 116.275 100.461 116.445C99.9975 116.474 99.4995 116.546 99.1717 116.871C98.8956 117.142 98.7921 117.541 98.7009 117.918C98.0402 120.651 98.2966 125.853 98.2966 125.853C98.2892 125.668 97.7025 128.106 97 129.444L104.311 130.422C104.247 127.8 104.78 126.726 104.78 126.726Z" fill="black"/>
<path opacity="0.4" d="M98.1983 142.665C99.6079 145.463 100.643 147.367 102.554 149.858C104.462 152.349 106.83 154.555 109.674 155.914C114.744 158.336 121.046 157.754 125.813 154.789C130.578 151.823 133.782 146.662 134.735 141.171C135.048 139.368 135.133 137.501 134.718 135.72C134.304 133.937 133.356 132.239 131.884 131.133C130.884 130.379 129.228 130.035 128.526 131.067C128.099 131.696 128.25 132.529 128.397 133.271C129.382 138.307 129.236 143.761 126.759 148.266C124.282 152.774 119.093 156.034 113.98 155.204C110.942 154.712 108.255 152.88 106.215 150.602C104.172 148.323 102.7 145.608 101.31 142.891C100.951 142.183 100.549 141.432 99.8387 141.066C99.129 140.702 97.2899 140.633 98.2926 142.852" fill="white"/>
<g opacity="0.300003">
<g opacity="0.300003">
<path opacity="0.300003" d="M168.904 177.711C168.518 178.243 168.235 178.645 168.071 179.291C167.906 179.939 168.02 180.71 168.511 181.134C169.072 181.616 169.974 181.461 170.472 180.907C170.969 180.352 171.095 179.503 170.934 178.758C170.83 178.281 170.598 177.804 170.192 177.569C169.788 177.334 169.224 177.381 168.904 177.711Z" fill="white"/>
</g>
</g>
<path d="M139 162.606C139 162.606 143.833 160.098 145.496 159.58C146.685 159.208 156.691 159.577 162.301 159.817C164.4 159.907 166.041 161.66 165.999 163.763L165.677 180.073C165.645 181.613 164.762 183.007 163.382 183.686L157.167 186.422L139 162.606Z" fill="#FF735D"/>
<path d="M140.231 187.109C138.315 187.069 136.836 185.231 137.015 183.108C137.343 179.19 137.467 173.549 137.689 172.136C138.017 170.051 136 164.01 139.494 162.625C139.892 162.468 140.318 162.415 140.741 162.423L155.927 162.735C157.962 162.775 159.658 164.448 159.95 166.686C160.16 168.296 159.648 171.144 159.491 173.412C159.281 176.46 159.319 180.863 159.1 184.256C159.068 184.753 158.921 185.198 158.715 185.588C158.087 186.773 156.826 187.449 155.521 187.421L140.231 187.109Z" fill="#FF806C"/>
<path d="M152.318 146.478L148.845 146.447L148.953 97.849C148.952 97.0896 149.626 96.4826 150.454 96.4871L150.929 96.4898C151.754 96.4977 152.425 97.1168 152.426 97.8762L152.318 146.478Z" fill="#C27460"/>
<path d="M142.937 161.422C142.973 161.417 143.074 161.969 142.907 162.842C142.744 163.702 142.255 164.892 141.287 165.816C140.323 166.748 139.178 167.186 138.354 167.334C137.52 167.488 136.995 167.401 137 167.361C136.998 167.302 137.512 167.294 138.3 167.085C139.081 166.878 140.149 166.424 141.051 165.55C141.961 164.682 142.453 163.591 142.668 162.781C142.889 161.963 142.879 161.422 142.937 161.422Z" fill="white"/>
<path d="M154 160.424C154.014 160.458 153.654 160.574 153.145 160.987C152.621 161.39 152.051 162.156 151.4 163.146C151.067 163.636 150.697 164.182 150.198 164.694C149.708 165.223 149.028 165.629 148.303 165.955C147.571 166.283 146.775 166.534 145.994 166.863C145.216 167.187 144.433 167.612 143.896 168.298C143.348 168.972 143.133 169.829 142.996 170.653C142.856 171.481 142.785 172.307 142.587 173.08C142.183 174.635 141.306 175.845 140.425 176.659C139.539 177.488 138.638 177.923 138.011 178.162C137.693 178.27 137.443 178.348 137.267 178.379C137.093 178.415 137.003 178.43 137 178.418C136.99 178.386 137.353 178.302 137.962 178.043C138.562 177.773 139.421 177.316 140.261 176.493C141.096 175.681 141.918 174.498 142.288 173.007C142.472 172.264 142.535 171.45 142.672 170.602C142.807 169.764 143.027 168.841 143.634 168.095C144.224 167.341 145.071 166.894 145.867 166.566C146.67 166.233 147.461 165.989 148.176 165.677C148.888 165.365 149.527 164.996 149.999 164.503C150.484 164.023 150.861 163.496 151.206 163.015C151.88 162.044 152.499 161.272 153.064 160.885C153.336 160.685 153.576 160.566 153.74 160.504C153.907 160.441 153.995 160.414 154 160.424Z" fill="white"/>
<path d="M164.999 163.422C165.008 163.427 164.961 163.547 164.861 163.774C164.742 164.033 164.589 164.36 164.404 164.763C164.163 165.166 163.856 165.662 163.457 166.198C163.233 166.452 162.997 166.72 162.747 167.006C162.483 167.277 162.169 167.527 161.857 167.81C161.541 168.089 161.158 168.308 160.789 168.577C160.408 168.831 159.98 169.039 159.554 169.283C158.671 169.711 157.707 170.121 156.677 170.485C155.648 170.864 154.561 171.221 153.461 171.658C152.357 172.081 151.258 172.631 150.26 173.376C149.744 173.73 149.332 174.192 148.909 174.629C148.518 175.101 148.154 175.597 147.797 176.078C147.088 177.053 146.403 177.991 145.751 178.888C144.432 180.657 143.245 182.316 141.888 183.332C140.572 184.383 139.311 184.935 138.418 185.184C137.971 185.313 137.614 185.367 137.371 185.399C137.129 185.421 137.002 185.428 137 185.416C136.995 185.382 137.509 185.348 138.383 185.059C139.251 184.776 140.472 184.202 141.745 183.146C143.054 182.13 144.201 180.486 145.51 178.704C146.16 177.803 146.838 176.86 147.543 175.883C147.902 175.396 148.261 174.9 148.664 174.414C149.102 173.957 149.535 173.476 150.065 173.107C151.101 172.337 152.231 171.775 153.347 171.355C154.459 170.915 155.551 170.564 156.577 170.197C157.607 169.84 158.561 169.445 159.435 169.037C159.856 168.8 160.28 168.602 160.658 168.357C161.024 168.101 161.403 167.891 161.715 167.622C162.026 167.353 162.341 167.114 162.605 166.855C162.855 166.581 163.093 166.322 163.316 166.078C163.723 165.565 164.04 165.086 164.294 164.697C164.501 164.311 164.668 163.996 164.801 163.747C164.92 163.53 164.989 163.417 164.999 163.422Z" fill="white"/>
<path d="M165.998 175.422C166.008 175.428 165.981 175.504 165.914 175.644C165.855 175.789 165.741 175.987 165.573 176.229C165.242 176.714 164.647 177.353 163.741 177.874C162.845 178.406 161.64 178.797 160.299 178.968C158.976 179.181 157.487 179.344 156.104 180C154.701 180.641 153.808 181.895 153.094 183.047C152.383 184.212 151.731 185.303 150.968 186.036C150.23 186.786 149.452 187.188 148.889 187.328C148.607 187.399 148.383 187.422 148.23 187.422C148.079 187.419 148 187.412 148 187.402C147.998 187.366 148.319 187.371 148.852 187.198C149.383 187.023 150.106 186.608 150.8 185.86C151.516 185.13 152.126 184.065 152.832 182.877C153.193 182.289 153.588 181.669 154.096 181.102C154.598 180.527 155.24 180.031 155.961 179.685C157.418 178.996 158.934 178.851 160.255 178.65C161.588 178.5 162.739 178.146 163.625 177.658C164.516 177.18 165.117 176.592 165.47 176.147C165.825 175.697 165.971 175.407 165.998 175.422Z" fill="white"/>
<path opacity="0.7" fill-rule="evenodd" clip-rule="evenodd" d="M156.988 187.097C156.486 187.33 156.059 187.397 155.77 187.416C155.622 187.424 155.509 187.424 155.433 187.416C155.356 187.414 155.318 187.401 155.318 187.401C155.315 187.388 155.357 187.385 155.437 187.38C155.671 187.366 156.229 187.332 156.974 186.958C157.463 186.704 158.018 186.256 158.391 185.546C158.578 185.192 158.715 184.779 158.753 184.328C158.764 184.076 158.777 183.817 158.789 183.551C158.8 183.321 158.811 183.087 158.822 182.849C158.864 181.748 158.887 180.536 158.912 179.23C158.934 178.066 158.958 176.827 158.997 175.527C159.035 174.15 159.129 172.693 159.308 171.204C159.322 171.073 159.336 170.941 159.35 170.809C159.417 170.192 159.484 169.567 159.533 168.935C159.586 168.17 159.639 167.383 159.519 166.629C159.294 165.107 158.3 163.772 157.003 163.249C156.685 163.11 156.345 163.04 156.007 162.998C155.782 162.976 155.542 162.971 155.304 162.966C155.192 162.964 155.08 162.962 154.971 162.958C154.572 162.949 154.179 162.94 153.79 162.931C153.503 162.924 153.218 162.917 152.936 162.911C150.844 162.857 148.915 162.807 147.201 162.763L145.898 162.729C143.923 162.667 142.312 162.614 141.156 162.577C140.593 162.547 140.167 162.545 139.878 162.607C139.713 162.637 139.595 162.668 139.524 162.687C139.474 162.701 139.446 162.708 139.44 162.705C139.405 162.723 139.371 162.741 139.339 162.757C139.264 162.796 139.198 162.829 139.139 162.858C139.05 162.903 139.002 162.923 139 162.918C139 162.918 139.007 162.907 139.025 162.893C139.046 162.878 139.078 162.856 139.122 162.828C139.182 162.791 139.25 162.75 139.326 162.704C139.379 162.671 139.436 162.637 139.498 162.599C139.828 162.402 140.321 162.119 140.963 161.765C141.604 161.414 142.392 160.988 143.326 160.53C143.792 160.301 144.298 160.066 144.843 159.84C145.119 159.73 145.401 159.623 145.708 159.536C146.021 159.449 146.351 159.434 146.672 159.431C148.988 159.4 151.688 159.45 154.676 159.506C155.041 159.512 155.411 159.519 155.786 159.526C157.5 159.566 159.297 159.606 161.162 159.648C161.32 159.655 161.475 159.657 161.63 159.659C161.941 159.664 162.253 159.668 162.591 159.708C163.082 159.778 163.568 159.972 163.984 160.263C164.813 160.819 165.533 161.66 165.823 162.701C165.947 163.117 165.988 163.568 165.988 163.979C165.997 164.292 165.998 164.602 165.999 164.91C165.999 165.014 165.999 165.118 166 165.222C165.991 166.009 165.984 166.79 165.977 167.559L165.976 167.652C165.943 169.251 165.909 170.805 165.876 172.304C165.787 175.295 165.703 178.067 165.629 180.525V180.515C165.617 181.474 165.32 182.351 164.839 183.048C164.363 183.758 163.668 184.184 163.046 184.52C161.79 185.19 160.657 185.662 159.727 186.049L159.709 186.056C158.775 186.442 158.038 186.721 157.535 186.906L157.211 187.019C157.129 187.048 157.055 187.074 156.988 187.097Z" fill="#A73321"/>
<path d="M164.994 148.018C165.216 155.747 159.132 162.192 151.404 162.416C143.675 162.638 137.23 156.554 137.006 148.826C136.784 141.097 142.868 134.65 150.596 134.428C158.325 134.204 164.77 140.29 164.994 148.018Z" fill="#378E3B"/>
<g opacity="0.300003">
<path d="M153.95 138.395C153.697 137.367 152.704 136.759 151.689 136.567C151.681 136.565 151.672 136.563 151.664 136.563C149.511 136.155 147.279 136.642 145.501 137.89C143.675 139.171 142.271 140.486 141.091 142.585C139.61 145.222 139.502 148.808 141.606 151.009C142.133 151.581 143.131 151.519 143.769 151.064C144.407 150.609 144.759 149.874 145.04 149.155C145.725 147.392 146.131 145.519 147.033 143.849C147.932 142.18 149.479 140.68 151.408 140.484C152.199 140.402 153.066 140.529 153.645 139.828C153.973 139.432 154.071 138.889 153.95 138.395Z" fill="white"/>
</g>
<circle cx="150" cy="127.422" r="7" fill="#F24439"/>
<path opacity="0.7" d="M151.975 123.474C151.848 122.926 151.352 122.602 150.844 122.5C150.841 122.498 150.836 122.497 150.832 122.497C149.756 122.28 148.64 122.539 147.75 123.205C146.838 123.888 146.136 124.59 145.546 125.709C144.805 127.115 144.751 129.028 145.803 130.202C146.067 130.507 146.565 130.474 146.884 130.231C147.203 129.988 147.38 129.596 147.52 129.213C147.862 128.273 148.066 127.274 148.516 126.383C148.966 125.493 149.74 124.693 150.704 124.588C151.099 124.545 151.533 124.613 151.822 124.238C151.986 124.027 152.036 123.737 151.975 123.474Z" fill="white"/>
<path d="M181.644 184.422H151.356C150.608 184.422 150 183.842 150 183.128V182.716C150 182.002 150.608 181.422 151.356 181.422H181.644C182.394 181.422 183 182.002 183 182.716V183.128C183 183.842 182.394 184.422 181.644 184.422Z" fill="#E1E1E1"/>
<path d="M189.983 198.422H116.015C115.458 198.422 115 197.52 115 196.422C115 195.32 115.458 194.422 116.015 194.422H189.983C190.542 194.422 191 195.32 191 196.422C191 197.52 190.542 198.422 189.983 198.422Z" fill="#1C1E29"/>
<path d="M81 181.422C82.541 186.83 94.5697 191.547 112.262 194.422H192.738C210.43 191.547 222.459 186.83 224 181.422H81Z" fill="#6BB0F6"/>
<path d="M121.056 211.422H116L123.945 194.422H129L121.056 211.422Z" fill="#1C1E29"/>
<path d="M185.944 211.422H191L183.055 194.422H178L185.944 211.422Z" fill="#1C1E29"/>
</svg>
