<svg width="152" height="117" viewBox="0 0 152 117" fill="none" xmlns="http://www.w3.org/2000/svg">
<path opacity="0.5" d="M12.2396 62.704L22.8162 39.1176L36.0512 52.8169L12.2396 62.704Z" fill="#CF7EBC"/>
<path opacity="0.4" d="M42.4833 82.6925L46.5928 57.1739L62.924 66.9825L42.4833 82.6925Z" fill="#378E3B"/>
<path opacity="0.4" d="M111.051 104.917L101.92 80.765L120.97 81.0974L111.051 104.917Z" fill="#6BB0F6"/>
<path opacity="0.4" d="M76.93 98.6724L74.3182 72.9676L92.6327 78.2169L76.93 98.6724Z" fill="#6E66B3"/>
<path fill-rule="evenodd" clip-rule="evenodd" d="M9.09961 14.457C18.3023 40.9534 44.1572 64.8707 78.9978 75.5179C104.25 83.235 129.51 82.5403 150.072 75.1746L149.752 72.1401C129.726 79.4977 104.846 80.3138 79.8696 72.6809C54.8152 65.0244 34.6188 50.3809 22.1742 33.027C17.8406 26.9837 14.4575 20.6314 12.1278 14.1389L9.09961 14.457Z" fill="#C8DBF1"/>
</svg>
