<svg width="183" height="236" viewBox="0 0 183 236" fill="none" xmlns="http://www.w3.org/2000/svg">
<path d="M119.863 48.0742C120.397 46.1407 119.321 44.5742 117.463 44.5742C115.606 44.5742 113.669 46.1407 113.136 48.0742C112.605 50.0077 113.678 51.5742 115.536 51.5742C117.393 51.5742 119.33 50.0077 119.863 48.0742Z" fill="#8FB1F5"/>
<path fill-rule="evenodd" clip-rule="evenodd" d="M32 78.575H140.154C140.628 78.575 141 78.4185 141 78.2194L137.77 74.9633C136.618 74.6762 135.965 74.5946 135.483 74.5946L32 74.582V78.575Z" fill="#6597EF"/>
<path d="M122 78.5742H0.815354C0.358154 78.5742 0 78.4174 0 78.2182L3.1111 74.9581C4.2206 74.6706 4.85051 74.589 5.3141 74.589L122 74.5742V78.5742Z" fill="#6597EF"/>
<path d="M120 88.5742H22V205.574H120V88.5742Z" fill="#3C92E9"/>
<path d="M52.6187 205.574C44.9206 205.574 48.6404 205.574 52.6187 205.574H89.5524C90.1611 205.574 94.9786 205.574 89.5524 205.574L100 112.942C100 112.74 99.5014 112.574 98.8928 112.574H43.1014C42.4985 112.574 42 112.74 42 112.942L52.6187 205.574Z" fill="#6BB0F6"/>
<rect x="8" y="206.574" width="123" height="8" fill="#2079D1"/>
<path opacity="0.6" d="M22 99.5742H120V184.692C120 190.511 112.127 192.317 109.591 187.08L97.0371 161.157C83.263 132.714 56.2685 112.963 24.9906 108.444C23.2739 108.196 22 106.724 22 104.99V99.5742Z" fill="#0E68C1"/>
<rect x="11" y="77.5742" width="119" height="22" rx="2" fill="#3C92E9"/>
<path d="M141 84.6261C141 85.1592 140.7 85.5742 140.31 85.5742H0.69301C0.311432 85.5742 0 85.1592 0 84.6261V78.5072C0 77.9892 0.311432 77.5742 0.69301 77.5742H140.31C140.7 77.5742 141 77.9892 141 78.5072V84.6261Z" fill="#2B7ED1"/>
<path d="M170.644 219.269L161.479 123.23L163.566 119.794L172.001 219.449C172.023 219.703 171.8 219.914 171.547 219.879L171.178 219.827C170.891 219.787 170.67 219.556 170.644 219.269Z" fill="#002822"/>
<path d="M170.644 219.269L161.479 123.23L163.566 119.794L172.001 219.449C172.023 219.703 171.8 219.914 171.547 219.879L171.178 219.827C170.891 219.787 170.67 219.556 170.644 219.269Z" stroke="black"/>
<path d="M77.7111 222.574C77.2731 222.574 76.9386 222.16 77.0095 221.704L83.3033 181.574H86L78.4937 221.896C78.4207 222.291 78.0923 222.574 77.7111 222.574Z" fill="#002822"/>
<path d="M137.712 222.574C137.272 222.574 136.937 222.16 137.01 221.704L143.303 181.574H146L138.494 221.896C138.421 222.291 138.093 222.574 137.712 222.574Z" fill="#002822"/>
<path d="M105 137.948L110.838 137.574L111 138.08L105.238 138.574L105 137.948Z" fill="#D4D5D6"/>
<path fill-rule="evenodd" clip-rule="evenodd" d="M156.082 197.574H76.5586L90.4757 110.574H169.999L156.082 197.574Z" fill="#9AB6CE"/>
<path fill-rule="evenodd" clip-rule="evenodd" d="M153.082 197.574H73.5586L87.4757 110.574H166.999L153.082 197.574Z" fill="#CEDDEA"/>
<path d="M159 197.574H68V200.574H159V197.574Z" fill="#002822"/>
<path d="M119.956 132.049C119.895 132.87 119.773 133.678 119.598 134.465C117.931 141.879 111.326 147.561 103.86 147.574C95.5981 147.589 89.4127 140.662 90.0444 132.101C90.674 123.54 97.8812 116.589 106.143 116.574C107.874 116.572 109.515 116.874 111.019 117.434C111.699 117.686 112.35 117.988 112.968 118.337C114.305 119.095 115.495 120.073 116.5 121.228C117.058 121.871 117.558 122.571 117.996 123.316C118.25 123.747 118.483 124.193 118.69 124.657C119.272 125.939 119.671 127.333 119.865 128.804C119.964 129.541 120.008 130.3 119.999 131.073C119.995 131.394 119.98 131.72 119.956 132.049Z" fill="#B2559C"/>
<path d="M119 125.013L105 132.574C105 132.574 110.776 122.442 113.149 118.574C114.516 119.347 115.733 120.342 116.76 121.519C117.331 122.176 117.842 122.887 118.29 123.647C118.55 124.086 118.788 124.541 119 125.013Z" fill="white"/>
<path d="M119 123.093L107 129.574C107 129.574 111.951 120.89 113.983 117.574C115.156 118.236 116.199 119.089 117.078 120.099C117.568 120.661 118.009 121.271 118.392 121.922C118.615 122.3 118.818 122.689 119 123.093Z" fill="#764678"/>
<path d="M82.5292 191.192L146.986 191.197L153.471 153.961L89.0143 153.956L82.5292 191.192Z" fill="white"/>
<path d="M144 186.574L86 186.57C86 186.57 96.2885 181.059 99.1108 181.346C101.933 181.635 105.99 183.868 108.598 183.954C111.206 184.042 114.03 176.219 116.934 176.587C119.838 176.955 120.931 183.875 122.433 183.2C123.937 182.524 128.45 182.23 131.052 183.2C133.651 184.17 137.44 180.119 139.725 180.248C142.011 180.374 144 186.574 144 186.574Z" fill="#F97352"/>
<path d="M89 167.57L147 167.574C147 167.574 138.649 162.061 135.724 162.35C132.801 162.637 127.96 164.868 125.322 164.956C122.683 165.042 122.606 157.219 119.574 157.587C116.542 157.955 113.019 164.875 111.752 164.198C110.486 163.521 106.073 163.228 103.133 164.198C100.195 165.166 97.8269 161.117 95.4976 161.244C93.166 161.37 89 167.57 89 167.57Z" fill="#F24438"/>
<path fill-rule="evenodd" clip-rule="evenodd" d="M122 145.574H125.744L129 127.574H125.256L122 145.574ZM127 145.574H130.586L133 131.574H129.414L127 145.574ZM137.113 145.574H133L135.887 130.574H140L137.113 145.574ZM138 145.574H141.911L144 134.574H140.089L138 145.574ZM146.815 145.574H143L145.185 133.574H149L146.815 145.574ZM148 145.574H152.155L154 136.574H149.845L148 145.574Z" fill="#518E62"/>
<path d="M139 68.5742H47V75.5742H138.184L139 68.5742Z" fill="#375185"/>
<path d="M70 76.5742H140.758C142.593 76.5742 144.243 75.4536 144.92 73.747L163.921 25.8189C164.918 23.3032 163.064 20.5742 160.358 20.5742H97.511C94.3732 20.5742 91.5523 22.4868 90.3908 25.4017L70 76.5742Z" fill="#5F7DC4"/>
<path d="M126.805 45.5742C127.567 42.8121 126.03 40.5742 123.376 40.5742C120.723 40.5742 117.956 42.8121 117.194 45.5742C116.435 48.3363 117.969 50.5742 120.623 50.5742C123.276 50.5742 126.043 48.3363 126.805 45.5742Z" fill="white"/>
<path d="M91.5276 58.1329L85.0545 76.3445L96.213 76.192L91.5276 58.1329Z" fill="#D4D5D6"/>
<path d="M92.114 76.879L123.88 76.1852L121.292 58.2136L91.2539 58.3289L92.114 76.879Z" fill="white"/>
<path d="M97.6412 62.8604L119.315 63.9501L119.541 65.2123L97.9796 64.6208L97.6412 62.8604Z" fill="#5F7DC3"/>
<path d="M102.677 68.6295L115.426 68.5424L115.617 70.0311L102.972 70.6196L102.677 68.6295Z" fill="#5F7DC3"/>
<path d="M37 76.5742H16C16 71.0501 20.6997 66.5742 26.5 66.5742C32.3003 66.5742 37 71.0501 37 76.5742Z" fill="#25468F"/>
<path d="M26.8853 68.5742C26.903 68.263 29.0828 37.1434 55 8.84857L53.6037 7.57422C27.2153 36.3858 25.0178 68.1455 25 68.4627L26.8853 68.5742Z" fill="#25468F"/>
<path d="M49.923 12.6512C48.6923 11.4205 48.6923 9.41209 49.923 8.1875L54.6133 3.49728C55.8379 2.26653 57.8462 2.26653 59.0769 3.49728C60.3077 4.72798 60.3077 6.73635 59.0769 7.96094L54.3867 12.6512C53.1621 13.8819 51.1538 13.8819 49.923 12.6512Z" fill="#25468F"/>
</svg>
