<svg width="202" height="207" viewBox="0 0 202 207" fill="none" xmlns="http://www.w3.org/2000/svg">
<path d="M132.594 145.056C124.152 133.952 116.1 122.303 108.314 111.034C100.537 99.7792 92.4976 88.1491 84.0856 77.0791L86.4502 75.2502C94.8917 86.3539 102.944 98.0033 110.73 109.273C118.511 120.523 126.546 132.157 134.962 143.223L132.594 145.056Z" fill="#634E42"/>
<path d="M140.64 138.093C132.525 128.176 123.053 116.556 113.588 104.936C104.12 93.3194 94.6559 81.7072 86.5381 71.7863L88.846 69.9284C96.9563 79.8494 106.429 91.4695 115.897 103.086C125.361 114.707 134.83 126.323 142.944 136.24L140.64 138.093Z" fill="#4F3E35"/>
<path d="M143.643 136.096C123.71 111.552 105.524 89.4209 88.0501 68.4499L90.336 66.5687C107.822 87.5506 126.012 109.685 145.949 134.234L143.643 136.096Z" fill="#634E42"/>
<path d="M140.697 142.149C131.541 131.857 122.031 119.858 112.839 108.258C103.662 96.6723 94.1773 84.6956 85.0547 74.4487L87.2982 72.5386C96.4541 82.8312 105.964 94.8305 115.157 106.43C124.333 118.016 133.818 129.993 142.944 140.243L140.697 142.149Z" fill="#634E42"/>
<path d="M140.918 141.273L138.571 143.036C132.049 134.166 124.271 124.831 116.031 114.945C104.627 101.255 92.8287 87.097 83.6814 73.2445L86.0907 71.561C95.1749 85.3264 106.939 99.4385 118.31 113.083C126.57 122.996 134.366 132.354 140.918 141.273Z" fill="#4F3E35"/>
<path d="M130.927 138.263L128.558 140.024L83.9879 78.2196L86.3562 76.4585L130.927 138.263Z" fill="#4F3E35"/>
<path d="M136.908 142.284L134.51 143.981C125.146 130.204 115.532 117.025 106.229 104.285C99.4066 94.9365 92.3541 85.2669 85.3891 75.3578L87.7694 73.6372C94.7187 83.5314 101.77 93.1933 108.588 102.53C117.896 115.289 127.523 128.48 136.908 142.284Z" fill="#634E42"/>
<path d="M100.071 80.3485L90.4415 87.191C90.1087 87.431 89.6518 87.3848 89.4205 87.0853C89.1941 86.7904 89.2774 86.3555 89.6146 86.1194L99.2442 79.2772C99.5762 79.0368 100.03 79.0877 100.265 79.3829C100.492 79.6777 100.399 80.1128 100.071 80.3485Z" fill="#CBBBA0"/>
<path d="M102.053 82.3733L92.9699 89.6371C92.6392 89.8989 92.2397 89.9167 92.0771 89.676C91.9113 89.4323 92.05 89.0217 92.3734 88.7614L101.459 81.5004C101.786 81.2362 102.182 81.2223 102.352 81.4616C102.514 81.702 102.379 82.1158 102.053 82.3733Z" fill="#CBBBA0"/>
<path d="M130.409 117.849L119.331 126.097C119.007 126.342 118.581 126.321 118.379 126.048C118.182 125.78 118.281 125.363 118.609 125.122L129.688 116.874C130.008 116.634 130.434 116.655 130.636 116.927C130.837 117.192 130.734 117.612 130.409 117.849Z" fill="#CBBBA0"/>
<path d="M133.056 120.128L121.322 129.064C120.988 129.315 120.562 129.307 120.373 129.042C120.179 128.774 120.294 128.357 120.625 128.101L132.358 119.166C132.693 118.914 133.118 118.923 133.308 119.188C133.497 119.452 133.386 119.873 133.056 120.128Z" fill="#CBBBA0"/>
<path d="M51.877 14.0581C48.2171 9.61427 41.2764 6.50939 41.2764 6.50939L41.2693 6.52597C41.2078 6.70276 39.2929 12.1398 39.2562 17.2931C35.9247 15.9145 32.978 15.2659 32.978 15.2659L32.9755 15.2859C32.9436 15.5046 31.8433 23.529 33.8678 29.1119C32.7475 28.9218 31.6539 28.7781 30.6374 28.6805C27.4417 28.3778 25.0146 28.4667 25.0146 28.4667C25.0146 28.4667 25.9438 36.9143 29.3422 42.6613C27.1249 42.5563 24.8458 42.7633 22.9137 43.058C20.0169 43.4973 17.8893 44.1111 17.8893 44.1111C17.8893 44.1111 17.8985 44.134 17.9027 44.1378C17.995 44.3938 21.9679 55.0268 27.9282 58.0439C29.8939 59.0407 31.6076 59.4501 33.1163 59.4802C33.6223 60.4084 34.1827 61.3336 34.7852 62.2288C33.5865 62.32 32.3944 62.4858 31.2451 62.7046C30.2868 62.8848 29.362 63.1026 28.5082 63.3247C25.5117 64.1099 23.3476 64.9906 23.3476 64.9906C23.3476 64.9906 28.7475 75.97 35.4268 78.5161C37.1212 79.1565 38.6217 79.4713 39.9538 79.5155C39.3321 79.7359 38.9542 79.8837 38.9542 79.8837L38.9678 79.9105C39.1133 80.2069 45.1273 92.4526 52.6243 95.3522C54.8743 96.2221 56.8067 96.5284 58.5076 96.4766C58.1945 96.8027 57.9043 97.1193 57.6369 97.419C57.1356 97.973 56.7208 98.4626 56.3951 98.8527C55.9102 99.4292 55.6421 99.7887 55.6421 99.7887C55.6421 99.7887 66.1648 106.673 73.4245 105.412C78.107 104.599 80.5942 102.53 81.5729 99.9134C84.0952 102.131 87.0008 104.087 89.9157 104.738C97.8957 106.512 101.779 103.004 102.93 97.8635C102.93 97.8555 102.933 97.8517 102.936 97.8393C103.181 96.7462 103.242 95.6675 103.175 94.6238C104.077 94.8658 105.046 94.9574 106.054 94.8972C106.062 94.8964 106.07 94.8959 106.074 94.8996C110.447 94.6266 113.849 91.8661 113.442 85.0137C113.423 84.5836 113.361 84.1524 113.282 83.7139C112.967 82.0791 112.257 80.4111 111.386 78.8232C113.449 78.332 115.569 76.9002 117.616 74.0972C121.977 68.1235 120.539 55.5775 120.539 55.5775C120.539 55.5775 116.142 56.4451 111.67 58.4002C111.951 57.9934 112.23 57.6061 112.499 57.1282C113.545 55.2469 113.994 52.8295 114.117 50.4039C114.396 45.0627 113.089 39.6533 113.089 39.6533C113.089 39.6533 110.831 40.3966 108.042 41.7508C107.864 35.1353 100.733 26.9808 100.733 26.9808C100.733 26.9808 99.5653 28.1807 98.1208 30.033C95.8028 25.0713 91.9887 20.6085 90.6385 19.1154C89.7054 14.2892 86.873 9.49463 86.873 9.49463L86.854 9.50731C86.718 9.61007 82.5853 12.5623 79.7947 16.3244C79.451 15.7822 79.0846 15.2494 78.691 14.7303C77.5151 13.1911 76.1771 11.7758 74.9497 10.6031C73.7187 9.42707 72.5983 8.49363 71.8629 7.90673C71.4968 7.61485 71.2267 7.40852 71.091 7.30149C71.0176 7.25027 70.9809 7.22466 70.9809 7.22466L70.9699 7.24479C70.8791 7.38826 68.6176 11.109 67.1558 15.5203C66.96 14.7961 66.7114 14.0389 66.3492 13.2254C63.7408 7.38649 53.7247 3.14197 53.7247 3.14197C53.7247 3.14197 51.8356 8.76661 51.877 14.0581Z" fill="#699711"/>
<path d="M42.0529 30.0443C42.0431 30.2847 41.7699 40.2071 45.5804 44.5145C49.4355 48.87 53.1715 48.396 56.0211 45.824C56.0289 45.8235 56.0324 45.8196 56.0324 45.8196C56.7482 45.1722 57.3371 44.4555 57.7595 43.6799C57.9702 43.2879 58.1414 42.8834 58.2656 42.4662C58.3859 42.0452 58.4626 41.6084 58.4878 41.1631C58.5343 40.2603 58.3719 39.3133 57.954 38.3098C57.5398 37.3102 56.8703 36.2617 55.9061 35.1669C52.0468 30.8078 42.0565 30.0244 42.0565 30.0244L42.0529 30.0443Z" fill="#82AF2C"/>
<path opacity="0.1" d="M78.623 81.5424C78.6767 81.7272 81.0298 89.2904 85.0542 91.6899C89.1223 94.1139 91.8498 92.9114 93.3617 90.3264C93.3653 90.3224 93.3689 90.3183 93.3684 90.3104C93.7478 89.6653 94.0141 88.9907 94.1354 88.3078C94.1939 87.9646 94.2179 87.6189 94.2043 87.2756C94.1906 86.9313 94.1382 86.5817 94.0367 86.2382C93.841 85.5509 93.4742 84.8673 92.8949 84.2019C92.3193 83.5398 91.5393 82.8951 90.5212 82.2881C86.4461 79.8645 78.6145 81.5274 78.6145 81.5274L78.623 81.5424Z" fill="#1D1D1B"/>
<path d="M66.9478 54.8127C66.9428 54.9832 66.6909 62.0654 69.3922 65.1687C72.1225 68.3062 74.7945 67.9887 76.839 66.168C76.8429 66.1636 76.8429 66.1636 76.8429 66.1636C77.3614 65.7071 77.7864 65.1977 78.0918 64.6406C78.2463 64.3683 78.3731 64.0776 78.4598 63.7823C78.5505 63.4819 78.6087 63.1688 78.6279 62.8501C78.6615 62.2093 78.5552 61.5262 78.2588 60.8094C77.9705 60.0919 77.499 59.3393 76.8134 58.5541C74.0834 55.4171 66.9471 54.7966 66.9471 54.7966L66.9478 54.8127Z" fill="#82AF2C"/>
<path d="M98.5051 47.2697C98.3451 47.3804 91.7131 52.0079 90.8441 56.7873C89.9675 61.6179 92.1895 64.0122 95.3341 64.7684C95.3341 64.7684 95.338 64.7719 95.3458 64.7721C96.1267 64.958 96.8979 65.026 97.6244 64.9452C97.9916 64.9047 98.3396 64.8252 98.6811 64.71C99.0181 64.5914 99.3363 64.4336 99.6464 64.2328C100.255 63.8265 100.798 63.2528 101.24 62.4721C101.683 61.6915 102.026 60.7115 102.243 59.5016C103.123 54.6669 98.5207 47.2612 98.5207 47.2612L98.5051 47.2697Z" fill="#82AF2C"/>
<path d="M46.3024 70.0202C46.3678 70.2167 49.114 78.5815 53.6116 81.2653C58.1572 83.9706 61.1502 82.67 62.7725 79.8299C62.7761 79.8259 62.7798 79.8217 62.7798 79.8217C63.182 79.1088 63.4612 78.3649 63.588 77.6146C63.6491 77.2337 63.6671 76.8579 63.6468 76.4756C63.6257 76.0936 63.5583 75.713 63.4396 75.3303C63.2145 74.5682 62.7907 73.8094 62.1396 73.0773C61.4877 72.3378 60.615 71.6249 59.4726 70.9452C54.926 68.2315 46.2967 70.0003 46.2967 70.0003C46.2967 70.0003 46.3018 70.0121 46.3024 70.0202Z" fill="#82AF2C"/>
<path d="M72.6415 22.2836C72.5648 22.4601 69.3463 29.7306 70.8691 34.2284C72.4072 38.7837 75.3188 39.7089 78.2171 38.7723L78.2249 38.772C78.9522 38.5386 79.6084 38.2051 80.1552 37.773C80.4319 37.5525 80.681 37.3146 80.9008 37.0431C81.1175 36.776 81.3096 36.4793 81.461 36.1534C81.7684 35.5058 81.9381 34.7417 81.9321 33.8555C81.9259 32.9683 81.748 31.9636 81.3659 30.8254C79.8245 26.2664 72.6484 22.2675 72.6484 22.2675L72.6415 22.2836Z" fill="#82AF2C"/>
<path d="M144 170.422H165.824L174.966 85.7659C175.332 82.3802 172.721 79.4219 169.367 79.4219H154.252C151.262 79.4219 148.792 81.7958 148.628 84.8288L144 170.422ZM156.688 90.3486C156.688 87.2757 159.14 84.7847 162.166 84.7847C165.192 84.7847 167.644 87.2757 167.644 90.3486C167.644 93.4209 165.192 95.9118 162.166 95.9118C159.14 95.9118 156.688 93.4209 156.688 90.3486Z" fill="#634E42"/>
<path d="M140 170.422H161.824L170.966 85.7659C171.331 82.3802 168.721 79.4219 165.368 79.4219H150.252C147.262 79.4219 144.792 81.7958 144.628 84.8288L140 170.422ZM152.688 90.3486C152.688 87.2757 155.14 84.7847 158.166 84.7847C161.192 84.7847 163.644 87.2757 163.644 90.3486C163.644 93.4209 161.192 95.9118 158.166 95.9118C155.14 95.9118 152.688 93.4209 152.688 90.3486Z" fill="#A86B10"/>
<path d="M93.3718 84.8288C93.2077 81.7958 90.7382 79.4219 87.7481 79.4219H72.6325C69.2788 79.4219 66.6685 82.3802 67.0342 85.7659L76.1757 170.422H98L93.3718 84.8288ZM79.8341 95.9118C76.8083 95.9118 74.3558 93.4209 74.3558 90.3486C74.3558 87.2757 76.8083 84.7847 79.8341 84.7847C82.8598 84.7847 85.3125 87.2757 85.3125 90.3486C85.3125 93.4209 82.8598 95.9118 79.8341 95.9118Z" fill="#634E42"/>
<path d="M192 99.4219L190.388 110.685L188.928 120.913L184.928 148.932L183.468 159.16L181.856 170.422H56.1438L54.5317 159.16L53.0717 148.932L49.0721 120.913L47.6122 110.685L46 99.4219H192Z" fill="#634E42"/>
<path d="M73 170.422H56.3319L54.6899 159.16L53.2029 148.932L49.1291 120.913L47.6421 110.685L46 99.4219H65.3629L66.5717 110.685L67.6713 120.913L70.6915 148.932L71.7913 159.16L73 170.422Z" fill="#F0A772"/>
<path d="M118 170.422H96.6275L93 99.4219H117.821L118 170.422Z" fill="#F0A772"/>
<path d="M140.578 170.422H120L120.104 99.4219H144L140.578 170.422Z" fill="#F0A772"/>
<path d="M162.879 170.422H142L145.754 99.4219H170L162.879 170.422Z" fill="#F0A772"/>
<path d="M192 99.4219L190.385 110.685L188.922 120.913L184.915 148.932L183.452 159.16L181.837 170.422H165L166.188 159.16L167.254 148.932L170.195 120.913L171.262 110.685L172.45 99.4219H192Z" fill="#F0A772"/>
<path d="M90.5211 84.8288C90.3623 81.7958 87.9732 79.4219 85.0788 79.4219H70.4508C67.2053 79.4219 64.6792 82.3802 65.0331 85.7659L73.8797 170.422H95L90.5211 84.8288ZM77.4201 95.9118C74.4927 95.9118 72.1193 93.4209 72.1193 90.3486C72.1193 87.2757 74.4927 84.7847 77.4201 84.7847C80.3482 84.7847 82.7217 87.2757 82.7217 90.3486C82.7217 93.4209 80.3482 95.9118 77.4201 95.9118Z" fill="#F0A772"/>
<path d="M191 111.422L189.538 121.422H49.4621L48 111.422H191Z" fill="#A86B10"/>
<path d="M185 149.422L183.538 159.422H54.4616L53 149.422H185Z" fill="#A86B10"/>
<path d="M162.577 43.4219L162.197 40.1671C161.713 36.0357 162.125 31.7729 163.391 27.8394C163.625 27.1101 164.339 24.8898 166.199 24.4806C168.044 24.075 169.604 25.8438 169.912 27.5389C170.197 29.1037 169.742 30.5849 169.251 31.9673C168.591 33.8314 167.393 35.4992 166.233 37.1114C165.389 38.287 164.591 39.3971 164.021 40.5367L162.577 43.4219ZM166.727 26.5339C166.682 26.5339 166.634 26.5391 166.587 26.5493C166.075 26.6623 165.618 27.3297 165.232 28.5336C164.373 31.2019 163.941 34.0344 163.949 36.862C164.196 36.5094 164.446 36.1605 164.695 35.8152C165.767 34.3242 166.875 32.7826 167.431 31.2107C167.819 30.1154 168.184 28.9614 167.999 27.9466C167.864 27.207 167.259 26.5339 166.727 26.5339Z" fill="#877C6B"/>
<path d="M164.7 41.4219H164.3C152.924 41.4219 143.222 48.8391 141.379 58.9451L134 99.4219H195L187.621 58.9451C185.779 48.8391 176.076 41.4219 164.7 41.4219Z" fill="#BBBFC2"/>
<path d="M148.073 96.4219L152.053 58.9684C153.063 49.4663 158.364 42.3003 164.384 42.3003H164.616C170.636 42.3003 175.938 49.4663 176.948 58.9684L180.927 96.4219H183L179.001 58.7877C177.869 48.146 171.82 40.4219 164.616 40.4219H164.384C157.181 40.4219 151.132 48.146 150.001 58.7877L146 96.4219H148.073Z" fill="#877C6B"/>
<path opacity="0.1" d="M134.893 94.5372L134 99.4219H195L187.694 59.4219C181.784 80.1381 162.315 90.4029 134.893 94.5372Z" fill="black"/>
<path d="M195.055 99.4219H133.945L127 82.7235C141.793 82.8803 158.334 81.7988 162.754 89.3043C167.667 81.4299 185.015 82.2031 202 82.7235L195.055 99.4219Z" fill="#919BA2"/>
<path opacity="0.2" d="M133 97.2042L133.884 99.4219H195.022L201 84.4219C191.242 94.9254 164.692 97.3089 133 97.2042Z" fill="black"/>
<path d="M191.72 195.422H158.279C154.342 195.422 150.957 192.606 150.27 188.736C145.732 163.232 154.16 135.371 162.876 110.239C163.461 108.549 165.059 107.422 166.849 107.422H183.149C184.941 107.422 186.538 108.549 187.124 110.239C195.839 135.371 204.268 163.232 199.731 188.736C199.042 192.606 195.658 195.422 191.72 195.422Z" fill="#3C92E9"/>
<path d="M158.257 180.362C156.713 161.104 162.364 140.107 168.762 120.885C169.649 118.222 172.14 116.422 174.953 116.422H175.048C177.862 116.422 180.351 118.222 181.238 120.885C187.638 140.106 193.287 161.105 191.743 180.362C191.469 183.77 188.665 186.422 185.237 186.422H164.763C161.335 186.422 158.531 183.77 158.257 180.362Z" fill="#F9E0B3"/>
<path d="M185 104.422H165V97.9248C165 92.6765 169.432 88.4219 174.899 88.4219H175.1C180.568 88.4219 185 92.6765 185 97.9248V104.422Z" fill="#375185"/>
<path d="M166 97.9709V103.422H167.991C167.991 93.7909 170.286 92.4898 174 89.4219C169.523 89.8072 166 93.4919 166 97.9709Z" fill="white"/>
<path d="M183 104.422H167V106.422H183V104.422Z" fill="#2079D1"/>
<path d="M187 164.922C187 174.587 181.404 182.422 174.5 182.422C167.596 182.422 162 174.587 162 164.922C162 155.257 167.596 147.422 174.5 147.422C181.404 147.422 187 155.257 187 164.922Z" fill="#F9B233"/>
<path opacity="0.2" d="M150 184.034C150.179 185.579 150.396 187.118 150.664 188.648C151.346 192.569 154.705 195.422 158.611 195.422H191.793C195.7 195.422 199.057 192.569 199.741 188.648C201.843 176.585 201.139 164.002 198.913 151.422C191.527 172.47 174.765 182.82 150 184.034Z" fill="#1D1D1B"/>
<path d="M152.3 183.718V192.752H135.717V173.151V173.13C134.359 171.679 133.11 170.114 132 168.422V175.247V184.193V198.16C132 201.053 134.356 203.422 137.237 203.422H150.763C153.644 203.422 156 201.053 156 198.16V184.888C154.748 184.542 153.513 184.149 152.3 183.713V183.718Z" fill="#4B3E53"/>
<path d="M156 160.832C156 157.893 153.644 155.489 150.763 155.489H149.22V151.422H138.78V155.489H137.237C134.356 155.489 132 157.893 132 160.832V168.704C133.11 170.422 134.359 172.011 135.717 173.485V165.951H152.3V184.229C153.513 184.672 154.748 185.07 156 185.422V174.641V162.085V160.832Z" fill="#675475"/>
<path d="M136 173.422V193.422H153V184.204C146.503 181.885 140.61 178.318 136 173.422Z" fill="#FFC36C"/>
<path d="M153 183.422V183.418V165.422H136V172.839V172.86C140.61 177.656 146.503 181.15 153 183.422Z" fill="#FFD797"/>
<path d="M148 125.666C148 123.322 146.209 121.422 144.001 121.422C141.791 121.422 140 123.322 140 125.666V143.422H148V125.666Z" fill="white"/>
<path d="M151 143.422H147.534H139.465H136V151.422H138.602H148.804H151V143.422Z" fill="#EEE3FF"/>
<path d="M88.5319 154.359C86.7872 149.42 83.5671 145.184 79.2199 142.109L79.2066 142.099C76.3645 140.117 73.3471 138.747 70.2392 138.027C68.4967 137.624 66.7144 137.422 64.9077 137.422C63.4248 137.422 61.9251 137.558 60.4179 137.83C58.0425 138.252 55.7439 139.038 53.6173 140.144L53.6149 140.144L53.5134 140.202C53.0399 140.452 52.5772 140.72 52.1222 141L30.0189 153.686H35.2804C35.2317 153.73 35.1772 153.766 35.1289 153.81C31.2171 157.4 26.6123 159.649 24.5707 164.954C22.2823 170.901 22.9901 179.179 26.8458 184.637L24.5961 184.754L1 198.296L54.0871 199.422L75.6716 187.034C76.0767 186.813 76.4878 186.606 76.8837 186.364L76.8934 186.358C76.9738 186.308 77.0447 186.25 77.1244 186.2L77.6831 185.879L77.6433 185.846C83.5386 181.952 87.5353 176.359 89.1854 169.582C90.461 164.445 90.235 159.181 88.5319 154.359Z" fill="#CF7EBC"/>
<path d="M66.5434 166.356C64.8125 161.418 61.618 157.182 57.3054 154.108L57.2921 154.098C54.4725 152.117 51.4793 150.747 48.3958 150.027C46.6669 149.624 44.899 149.422 43.1067 149.422C41.6356 149.422 40.1479 149.558 38.6524 149.83C34.8823 150.505 31.3073 152.11 28.3134 154.471C25.3675 156.795 22.9592 159.867 21.3484 163.358C20.0871 166.071 19.3992 168.997 19.304 172.058C19.2123 175.005 19.6723 177.916 20.6716 180.712C21.6434 183.43 23.0718 185.884 24.9174 188.005C26.8558 190.233 29.1665 191.988 31.7899 193.224C35.7861 195.096 40.3645 195.667 44.6819 194.831C49.1774 193.96 53.1218 191.69 56.0906 188.262C58.77 185.158 60.4124 181.38 60.8403 177.335C61.272 173.255 60.4338 169.201 58.417 165.615C55.9754 161.264 51.8249 158.101 47.0296 156.938C45.6775 156.61 44.3177 156.448 42.9701 156.448C39.663 156.448 36.4328 157.425 33.5963 159.322C30.5534 161.341 28.3234 164.224 27.1479 167.662C25.9963 171.029 25.9851 174.736 27.1159 178.101C28.3482 181.841 31.1229 184.983 34.7295 186.721C38.196 188.392 41.9978 188.589 45.4355 187.275C47.6831 186.431 49.6626 184.978 51.1606 183.075C52.7281 181.083 53.6442 178.747 53.8093 176.318L53.8103 176.305C54.0794 172.03 52.309 168.059 49.0743 165.681L49.0515 165.665C45.3741 163.028 40.6886 163.037 37.1151 165.688L37.1058 165.694C35.0964 167.2 33.8724 169.545 33.748 172.127C33.6188 174.807 34.6525 177.358 36.584 179.125L36.5974 179.137C37.568 180.012 38.7634 180.563 40.0545 180.732C41.3813 180.906 42.6815 180.658 43.8186 180.015C45.8937 178.929 47.047 176.525 46.6924 174.01L46.6841 173.955C46.4249 172.379 45.2262 171.215 43.7914 171.109C43.7871 171.108 43.7826 171.108 43.7781 171.107C43.1152 171.018 41.7363 170.833 40.6048 171.741C39.9614 172.257 39.5607 173.013 39.4762 173.869C39.406 174.581 39.6471 175.251 40.0873 175.741C39.9778 175.681 39.8735 175.609 39.778 175.523C38.9322 174.746 38.4623 173.565 38.5202 172.363C38.5521 171.703 38.7792 170.466 39.9416 169.592C41.8546 168.177 44.2819 168.184 46.2809 169.61C48.201 171.027 49.2072 173.352 49.0423 175.992C48.8399 178.919 46.7223 181.628 43.7707 182.736L43.7562 182.742C41.5434 183.589 39.0664 183.449 36.7816 182.348C34.34 181.171 32.468 179.062 31.6459 176.562L31.6406 176.545C29.9972 171.664 31.8786 166.247 36.2156 163.373L36.225 163.367C39.1028 161.44 42.5449 160.829 45.9173 161.648C49.4315 162.5 52.4738 164.819 54.2649 168.011C57.37 173.533 56.6753 180.23 52.4974 185.07C47.9557 190.314 40.2649 191.859 33.7992 188.83C29.8103 186.951 26.7435 183.482 25.1637 179.062C23.5517 174.552 23.7365 169.581 25.6703 165.423L25.6737 165.416C28.3394 159.635 33.3743 155.692 39.487 154.599L39.4945 154.597C44.8253 153.626 49.8951 154.795 54.563 158.073C61.6444 163.126 64.7066 171.683 62.5549 180.407L62.552 180.419C61.1509 186.222 57.78 191.173 52.5003 194.218C45.8131 198.075 36.4955 197.538 36.5046 197.549H2.38003C1.06552 197.549 0 198.629 0 199.961V200.01C0 201.342 1.06552 202.422 2.38003 202.422H38.9004C39.0386 202.422 39.1722 202.404 39.3039 202.381C41.5994 202.335 44.5513 202.183 45.9609 201.904C49.1515 201.272 52.1886 200.077 54.9878 198.353L54.9974 198.347C61.2677 194.441 65.4844 188.642 67.1918 181.575C68.4574 176.438 68.2331 171.176 66.5434 166.356Z" fill="#B2559C"/>
<path d="M108 183.13C108 187.991 108 192.853 108 197.714C108 200.804 105.047 204.196 101.355 204.937C90.5385 206.917 79.4613 206.917 68.6451 204.937C64.9528 204.196 61.9998 200.804 62 197.714C62 192.853 62 187.991 62 183.13C62.0001 180.04 64.9527 176.648 68.6451 175.906C79.4613 173.927 90.5385 173.927 101.355 175.906C105.047 176.647 108 180.039 108 183.13Z" fill="#FF5E4B"/>
<path opacity="0.1" d="M85 199.422C81.5079 199.422 75.8337 198.813 72.0116 198.342C69.7203 198.059 68 196.049 68 193.664V187.18C68 184.795 69.7202 182.785 72.0114 182.503C75.8337 182.031 81.5084 181.422 85 181.422C88.4923 181.422 94.1664 182.03 97.9884 182.502C100.28 182.785 102 184.794 102 187.179V193.664C102 196.049 100.28 198.058 97.9886 198.341C94.1663 198.813 88.4916 199.422 85 199.422Z" fill="black"/>
<path fill-rule="evenodd" clip-rule="evenodd" d="M65.106 181.215C64.7494 180.73 65.1676 179.283 68.3133 177.767C71.3898 176.219 76.5387 176.109 76.9671 176.919C77.4309 177.669 72.8845 178.628 69.7562 179.904C66.5769 181.184 65.5804 181.764 65.106 181.215Z" fill="white"/>
<path d="M95 190.922C95 192.303 93.921 193.422 92.5901 193.422H78.41C77.079 193.422 76 192.303 76 190.922C76 189.541 77.079 188.422 78.41 188.422H92.5901C93.921 188.422 95 189.541 95 190.922Z" fill="#FF5E4B"/>
</svg>
