<svg width="224" height="216" viewBox="0 0 224 216" fill="none" xmlns="http://www.w3.org/2000/svg">
<path d="M22.5419 57.8952C23.1316 49.3195 30.2356 42.5469 38.9123 42.5469C46.9827 42.5469 53.6923 48.4059 55.0654 56.1252C56.6728 54.8486 58.7029 54.0867 60.91 54.0867C66.1227 54.0867 70.3483 58.3366 70.3483 63.579C70.3483 63.7934 70.3413 64.0061 70.3274 64.2169H71.4172C78.3665 64.2169 84 69.8826 84 76.8716C84 83.8607 78.3665 89.5264 71.4172 89.5264H17.5828C10.6335 89.5264 5 83.8607 5 76.8716C5 72.4339 7.27125 68.5297 10.7084 66.2707C11.1122 61.4025 15.1689 57.5781 20.1137 57.5781C20.9532 57.5781 21.7671 57.6883 22.5419 57.8952Z" fill="white"/>
<path opacity="0.6" d="M62.5849 28.445L52 20.5586L59.5862 29.466L60.5288 41.1696C60.5813 41.8224 61.2844 42.2086 61.8636 41.9028L71.4557 36.8379L82 40.0799L71.4557 33.5662L63.6602 36.8379L62.5849 28.445Z" fill="#332C30"/>
<path d="M94 51.5469H90V65.5408H94V51.5469Z" fill="#707776"/>
<path d="M142 51.5469H138V65.5408H142V51.5469Z" fill="#707776"/>
<path d="M174.437 166.495H74.5636C68.7284 166.495 64 162.139 64 156.764V76.2692C64 70.8964 68.7284 66.5391 74.5636 66.5391H174.437C180.272 66.5391 185 70.8964 185 76.2692V156.764C185 162.139 180.272 166.495 174.437 166.495Z" fill="#EF8062"/>
<mask id="mask0_1199_41638" style="mask-type:alpha" maskUnits="userSpaceOnUse" x="64" y="66" width="121" height="100">
<path d="M174.437 165.496H74.5636C68.7284 165.496 64 161.183 64 155.862V76.1719C64 70.8529 68.7284 66.5391 74.5636 66.5391H174.437C180.272 66.5391 185 70.8529 185 76.1719V155.862C185 161.183 180.272 165.496 174.437 165.496Z" fill="#EF8062"/>
</mask>
<g mask="url(#mask0_1199_41638)">
<path d="M98 66.5391H89V166.495H98V66.5391Z" fill="#D36041"/>
<path d="M160 66.5391H151V166.495H160V66.5391Z" fill="#D36041"/>
<g style="mix-blend-mode:multiply" opacity="0.4">
<path d="M216.998 111.086C210.95 120.599 180.146 111.999 148.192 91.8741C116.239 71.7508 95.2381 47.725 101.286 38.2113C101.388 38.0513 101.497 37.8956 101.613 37.7446C96.8796 47.069 86.2808 -61.9264 227.798 4.03588C259.214 23.8212 210.843 118.842 217.281 110.591C226.917 94.0756 217.1 110.926 216.998 111.086Z" fill="#451D00"/>
</g>
</g>
<path d="M63.9592 164.497H64V77.5352H63.9592C61.7732 77.5352 60 84.0755 60 92.1521V149.874C60 157.947 61.7732 164.497 63.9592 164.497Z" fill="#D36041"/>
<path d="M186 164.496H186.041C188.227 164.496 190 159.151 190 152.563V105.456C190 98.8649 188.227 93.5273 186.041 93.5273H186V164.496Z" fill="#D36041"/>
<path d="M156 175.492V178.952C156 182.009 158.687 184.488 162 184.488C165.313 184.488 168 182.009 168 178.952V175.492H156Z" fill="#919B9A"/>
<path d="M168 175.492H156V179.492H168V175.492Z" fill="#626867"/>
<path d="M128 51.0004V56.1565C128 56.9209 127.371 57.5425 126.596 57.5425H88.4021C87.6275 57.5425 87 56.9209 87 56.1565V51.0004C87 49.0871 88.7704 47.5469 90.9673 47.5469H124.031C126.228 47.5469 128 49.0871 128 51.0004Z" fill="#919B9A"/>
<path d="M119 57.543H95C95.656 55.7769 97.5245 54.543 99.7204 54.543H114.28C116.475 54.543 118.343 55.7769 119 57.543Z" fill="#707776"/>
<path d="M119 47.5469C118.343 49.3106 116.475 50.5469 114.28 50.5469H99.7204C97.5245 50.5469 95.656 49.3106 95 47.5469H119Z" fill="#707776"/>
<path d="M83.6393 82.1121L86.6787 83.4084L94.5385 65.9323L90.3479 65.9404L83.6393 82.1121Z" fill="white"/>
<path d="M70.5474 108.789L75.379 84.5848L88.1578 77.0094L97.0914 88.7089L92.2562 112.911L70.5474 108.789Z" fill="white"/>
<path d="M71.6122 105.997L75.1515 84.2453L88.1394 77.0165L96.2782 86.6049L91.3225 110.057L71.6122 105.997Z" fill="#6BB0F6"/>
<path d="M138 166.496V169.956C138 173.013 140.687 175.492 144 175.492C147.313 175.492 150 173.013 150 169.956V166.496H138Z" fill="#919B9A"/>
<path d="M150 166.496H138V170.496H150V166.496Z" fill="#626867"/>
<path d="M202 158.5H143V190.486H202V158.5Z" fill="#3C92E9"/>
<path d="M202 165.496H143V158.767C143 156.963 144.491 155.5 146.331 155.5H198.669C200.509 155.5 202 156.963 202 158.767V165.496Z" fill="#25468F"/>
<path d="M198.669 193.486H146.331C144.491 193.486 143 192.023 143 190.219V188.488H202V190.219C202 192.023 200.509 193.486 198.669 193.486Z" fill="#25468F"/>
<path d="M172 186.488C177.523 186.488 182 182.236 182 176.992C182 171.748 177.523 167.496 172 167.496C166.477 167.496 162 171.748 162 176.992C162 182.236 166.477 186.488 172 186.488Z" fill="#1D3F59"/>
<path d="M172 184.49C175.866 184.49 179 181.357 179 177.493C179 173.629 175.866 170.496 172 170.496C168.134 170.496 165 173.629 165 177.493C165 181.357 168.134 184.49 172 184.49Z" fill="#7E8892"/>
<path d="M176.878 176.817C177.405 174.108 175.61 171.636 172.87 171.296C170.13 170.956 167.481 172.877 166.954 175.586C166.427 178.296 168.222 180.768 170.962 181.108C173.702 181.448 176.351 179.527 176.878 176.817Z" fill="#1D3F59"/>
<path d="M167.994 177.493H166C166 174.187 168.692 171.496 172 171.496V173.489C169.791 173.489 167.994 175.285 167.994 177.493Z" fill="white"/>
<path d="M174.726 181.49L174 179.83C175.329 179.25 176.187 177.94 176.187 176.492H178C178 178.66 176.715 180.622 174.726 181.49Z" fill="white"/>
<path d="M177.478 149.504H167.362C165.224 149.504 163.277 150.729 162.36 152.65L161 155.501H184L182.372 152.438C181.413 150.633 179.53 149.504 177.478 149.504Z" fill="#1D3F59"/>
<path d="M157 152.504H149V155.504H157V152.504Z" fill="#1D3F59"/>
<path d="M196 152.504H188V155.504H196V152.504Z" fill="#1D3F59"/>
<path d="M201.995 158.607C201.944 156.883 200.432 155.5 198.57 155.5H185V193.483H198.57C200.264 193.483 201.668 192.338 201.946 190.833H202V190.287V188.593V165.28V158.697V158.607H201.995Z" fill="#173685"/>
<path d="M143.005 158.607C143.056 156.883 144.568 155.5 146.43 155.5H160V193.483H146.43C144.736 193.483 143.332 192.338 143.054 190.833H143V190.287V188.593V165.28V158.697V158.607H143.005Z" fill="#173685"/>
<rect x="185" y="165.496" width="17" height="23.9895" fill="#2571D9"/>
<rect width="17" height="23.9895" transform="matrix(-1 0 0 1 160 165.496)" fill="#2571D9"/>
<path d="M96 168.492V171.952C96 175.009 98.6865 177.488 102 177.488C105.313 177.488 108 175.009 108 171.952V168.492H96Z" fill="#919B9A"/>
<path d="M108 166.496H96V170.496H108V166.496Z" fill="#626867"/>
<path d="M217.293 103.499C211.987 111.954 184.985 104.587 156.98 87.0428C128.976 69.4996 110.575 48.4237 115.881 39.9686C115.97 39.8264 116.066 39.688 116.168 39.5536C112.014 47.8314 130.491 68.134 158.022 85.3814C185.556 102.63 211.893 110.402 217.542 103.06C217.465 103.211 217.382 103.357 217.293 103.499Z" fill="#E79B63"/>
<path d="M217.102 102.763C217.02 102.895 216.931 103.023 216.836 103.148C211.303 110.376 185.135 102.441 157.702 85.1021C130.27 67.7639 111.784 47.4762 115.829 39.3067C115.898 39.1662 115.974 39.0299 116.057 38.8974C120.807 31.2608 145.914 38.443 172.845 54.9335C173.714 55.465 174.585 56.0068 175.457 56.5579C176.329 57.1092 177.193 57.6637 178.046 58.2206C204.504 75.4746 221.853 95.1258 217.102 102.763Z" fill="#F7B686"/>
<path d="M185.435 81.0722C185.435 81.0722 183.144 84.7508 164.761 73.1441C162.477 71.7018 160.523 70.3698 158.851 69.145C148.451 61.5245 148.99 58.0617 148.99 58.0617C148.99 58.0617 150.221 56.4388 152.181 54.1135C157.376 47.9565 167.694 36.8752 173.846 37.9939C178.36 38.8121 177.882 43.7576 181.552 46.5361C185.452 49.4863 191.308 47.0696 193.537 51.4295C194.522 53.3569 194.463 56.2562 193.832 59.5011C192.711 65.2556 189.792 72.0936 187.71 76.5033C186.408 79.2624 185.435 81.0722 185.435 81.0722Z" fill="#B2559C"/>
<path d="M187.146 76.5153C181.067 74.6588 174.506 71.6774 168.034 67.6459C161.612 63.6454 156.087 59.1129 151.772 54.5215C157.075 48.2637 167.593 36.9877 173.756 38.0252C178.279 38.784 177.73 43.7586 181.378 46.4984C185.253 49.4073 191.169 46.8976 193.347 51.246C196.016 56.5774 190.512 69.5431 187.146 76.5153Z" fill="#E69B63"/>
<path opacity="0.24" d="M192.036 62.3744C185.717 72.4767 171.404 75.1134 158.749 69.0423C148.432 61.5051 148.985 58.0558 148.985 58.0558C148.985 58.0558 150.217 56.4347 152.179 54.111C157.378 47.9581 167.699 36.88 173.817 37.9649C178.307 38.7585 177.808 43.6834 181.448 46.4321C185.316 49.3506 191.157 46.9179 193.355 51.2473C194.326 53.1613 194.254 56.0476 193.611 59.2804C193.182 60.3435 192.659 61.3782 192.036 62.3744Z" fill="white"/>
<path d="M176.513 44.126C177.784 43.3757 179.383 47.0936 180.549 47.8957C182.307 49.1063 188.294 49.178 187.917 50.915C187.63 52.2407 180.563 51.9015 178.499 50.648C175.123 48.5979 174.999 45.0198 176.513 44.126Z" fill="#E69B63"/>
<path d="M82.0477 167.748C92.1339 158.338 91.3294 141.324 80.2508 129.745C69.1722 118.167 52.0148 116.408 41.9287 125.818C31.8425 135.227 32.647 152.242 43.7255 163.82C54.8041 175.399 71.9615 177.157 82.0477 167.748Z" fill="#D06145"/>
<path d="M97.6811 187.857L101.457 184.483C102.41 183.631 102.467 182.199 101.585 181.283L85.0621 164.14C84.5344 163.593 80.6653 160.471 80.0955 160.98L74.9316 165.595C74.3619 166.104 77.3073 170.052 77.8348 170.599L94.3575 187.742C95.2401 188.657 96.7281 188.709 97.6811 187.857Z" fill="#D06145"/>
<path d="M89.2032 151.982L65.4314 173.612C57.6982 173.384 49.5906 169.868 43.3972 163.325C32.2748 151.574 31.5378 134.515 41.7512 125.221C51.9646 115.928 69.2606 117.92 80.3829 129.671C86.5764 136.214 89.5478 144.404 89.2032 151.982Z" fill="#699711"/>
<path d="M71.6455 182C78.9456 170.3 73.5601 153.964 59.6166 145.513C45.6731 137.063 28.4518 139.697 21.1517 151.397C13.8515 163.097 19.237 179.433 33.1805 187.884C47.124 196.335 64.3453 193.701 71.6455 182Z" fill="#FF9533"/>
<path d="M91.4903 197.758L94.2389 193.526C94.9327 192.458 94.6074 191.061 93.5124 190.405L73.0102 178.135C72.3555 177.744 67.7913 175.731 67.3765 176.369L63.6174 182.157C63.2027 182.795 67.0944 185.843 67.7491 186.235L88.2513 198.505C89.3464 199.16 90.7966 198.826 91.4903 197.758Z" fill="#F97352"/>
<path d="M73.9484 165.081L56.7463 192.095C49.2209 193.874 40.4609 192.577 32.7446 187.865C18.8872 179.401 13.645 163.132 21.0357 151.525C28.4265 139.919 45.6514 137.37 59.5087 145.834C67.2251 150.547 72.2684 157.68 73.9484 165.081Z" fill="#82AF2C"/>
<path d="M39.2027 174.599C42.4315 173.854 44.4401 170.635 43.689 167.409C42.938 164.183 39.7117 162.171 36.4829 162.917C33.2542 163.662 31.2456 166.881 31.9966 170.107C32.7476 173.333 35.9739 175.344 39.2027 174.599Z" fill="#EDEEEF"/>
</svg>
