<svg width="1110" height="657" viewBox="0 0 1110 657" fill="none" xmlns="http://www.w3.org/2000/svg">
<g opacity="0.1">
<path d="M1058 584.991C1057.33 588.485 1055.16 592.391 1052.32 594.812C1050.28 596.57 1043.77 600.133 1043.02 595.086C1042.82 593.693 1044.28 587.183 1044.84 585.836C1046.44 581.908 1048.15 584.466 1050.74 584.991C1053.38 585.516 1055.89 583.004 1058 584.991Z" fill="#3C92E9"/>
<path d="M1039.74 186.717C1040.67 190.01 1041.29 193.259 1042 196.35C1039.5 200.114 1034.56 198.725 1030.91 200.742C1029.19 201.705 1028.72 205.178 1027.06 205.693C1025.73 206.118 1024.69 204.281 1023.45 204.326C1020.2 204.393 1018.61 210.935 1014.62 209.277C1012.34 210.935 1014.71 217.276 1011.9 217.813C1009.91 218.194 1008.8 215.058 1007.61 213.131C1006.15 210.801 1004.05 209.524 1004 207.62C1003.93 205.67 1007.25 202.377 1008.29 201.01C1009.58 199.33 1012.1 196.216 1013.72 195.768C1016.73 194.961 1019.8 196.126 1022.08 194.939C1024.05 193.908 1024.18 190.122 1025.25 189.159C1026.15 188.352 1027.19 188.576 1027.97 188.061C1030.07 186.672 1032.33 181.922 1031.13 177.061C1030.38 173.992 1026.2 170.631 1028.88 166.867C1032.88 167.382 1038.17 172.199 1038.84 177.061C1039.1 178.965 1038.24 180.847 1038.37 182.841C1038.48 184.006 1039.34 185.216 1039.74 186.717Z" fill="#3C92E9"/>
<path d="M1041 156.278C1040.49 157.652 1039.46 157.368 1038.5 158.153C1037.57 158.917 1036.47 161.381 1035.32 161.643C1033.49 162.057 1031.44 159.527 1029.61 160.051C1027.47 160.64 1028.72 162.581 1028.03 164.871C1026.15 164.413 1023.08 161.948 1023.01 159.506C1022.97 157.979 1024.66 157.019 1025.06 155.231C1025.73 152.177 1023.99 150.629 1023.01 147.728C1022.94 147.292 1023.23 147.27 1023.23 146.921C1025.46 146.376 1029.83 151.305 1034.85 152.286C1038.08 152.897 1040.8 152.548 1041 156.278Z" fill="#3C92E9"/>
<path d="M1031.99 434.939C1032.19 437.405 1029.29 437.115 1029 435.519C1029.04 433.609 1031.62 433.005 1031.99 434.939Z" fill="#3C92E9"/>
<path d="M1016.17 133.883C1018.26 135.371 1023.32 138.764 1019.77 141.879C1017.6 140.787 1015.35 137.091 1016.17 133.883Z" fill="#3C92E9"/>
<path d="M1006.22 422.801C1008.76 421.104 1011.54 417.4 1016 419.274C1015.02 422.647 1011.67 422.581 1009.57 424.146C1007.41 425.733 1005.61 428.445 1002.89 428.753C1002.67 428.268 1002.39 427.916 1002 427.673C1001.98 424.653 1004.46 423.97 1006.22 422.801Z" fill="#3C92E9"/>
<path d="M999.952 371.873C1002.63 371.873 1005.15 370.911 1007 372.135C1006.64 378.845 997.81 373.752 991.967 374.823C990.718 375.042 990.361 376.178 989 375.632C989.067 373.359 991.164 371.064 993.327 370.802C995 370.605 997.498 371.873 999.952 371.873Z" fill="#3C92E9"/>
<path d="M1001.99 379.593C1002.25 383.44 998.015 383.87 996.829 386.834C998.695 390.364 999.42 395.297 1001.55 398.488C1001.46 400.615 1001.9 403.376 1000.87 404.326C996.346 405.39 993.931 395.343 992.109 391.835C988.662 392.627 991.801 406.318 987.169 404.62C984.908 403.783 987.191 399.868 986.708 396.836C986.291 394.166 984.183 393.623 984.007 391.541C983.876 389.821 985.522 388.011 986.027 386.269C986.73 383.757 986.291 378.892 988.728 378.778C989.935 378.711 991.538 381.901 992.328 382.105C995.007 382.806 998.19 378.711 1001.99 379.593Z" fill="#3C92E9"/>
<path d="M994 420.71C993.143 422.596 988.406 421.684 988 419.96C988.812 417.992 993.594 418.58 994 420.71Z" fill="#3C92E9"/>
<path d="M989 426.738C988.733 427.113 988.422 427.466 988.089 427.758C986.356 427.133 984.511 426.676 984 424.698C985.289 422.596 988.956 424.345 989 426.738Z" fill="#3C92E9"/>
<path d="M983 419.941C981.825 421.8 977.757 419.794 976.311 421.758C973.915 421.694 971.497 421.652 971 419.435C971.701 417.534 973.893 418.843 975.61 418.653C978.412 418.378 982.254 416.161 983 419.941Z" fill="#3C92E9"/>
<path d="M950.958 525.709C950.936 523.304 949.686 521.167 949.351 518.606C949.24 517.671 949.463 516.491 949.351 515.311C949.195 513.619 948.503 512.216 948.66 511.214C948.972 509.411 950.735 509.211 951.181 507.652C951.895 505.092 950.311 504.691 950.266 501.641C950.244 499.481 951.627 498.434 952.542 495.629C952.966 494.338 952.989 491.911 953.457 490.976C954.06 489.818 956.581 488.816 957.563 488.26C961.066 486.211 963.856 482.382 967.381 481.691C968.274 481.513 969.479 481.825 970.126 481.691C972.201 481.268 974.789 479.176 977.646 478.419C980.413 477.662 982.867 477.951 984.942 476.504C987.241 474.923 990.476 470.782 991.324 468.31C992.373 465.305 992.06 462.767 994.069 461.742C995.051 461.253 996.01 461.787 997.036 461.475C998.085 461.141 1000.36 459.85 1001.14 459.004C1002.73 457.289 1002.99 454.506 1004.78 452.703C1006.03 451.478 1008.37 449.564 1010.02 448.606C1011.01 448.027 1012.81 447.404 1013.66 447.515C1016.87 447.849 1018.37 453.237 1021.87 452.169C1023.12 451.79 1024.39 448.606 1025.53 446.692C1027.18 443.908 1028.37 440.146 1031.22 439.3C1033.52 438.632 1036.11 440.368 1037.38 437.942C1037.67 436.205 1036.31 435.181 1037.38 434.112C1040.04 434.312 1044.54 438.609 1048.56 438.765C1050.72 438.854 1054.74 435.938 1055.19 439.856C1055.39 441.593 1053.56 442.996 1053.13 444.777C1052.82 446.024 1053.58 446.714 1052.91 448.05C1051.06 448.918 1049.1 449.386 1049.03 451.879C1048.96 454.996 1052.71 456.466 1054.96 458.18C1056.5 459.338 1057.8 461.141 1058.62 461.72C1059.32 462.21 1060.43 462.455 1060.9 462.811C1062.37 463.969 1063.42 466.574 1065.47 466.641C1067.79 466.707 1070.12 463.167 1071.41 459.805C1072.93 455.865 1073.02 451.1 1073.69 446.959C1073.91 445.578 1074.73 444.22 1075.05 442.862C1075.92 439.122 1077.12 434.068 1079.82 432.754C1082.54 436.205 1083.48 442.929 1083.01 448.629C1084.84 450.276 1088.03 449.742 1088.48 453.549C1088.64 454.863 1087.94 456.555 1088.03 457.913C1088.19 460.228 1089.62 462.232 1089.86 464.214C1090.31 467.865 1089.35 470.871 1090.78 473.52C1092.56 476.86 1096.04 476.749 1098.3 480.356C1098.25 482.604 1098.99 483.495 1099.44 485.254C1099.66 486.1 1099.46 487.458 1099.66 487.992C1100.4 489.818 1102.36 489.996 1103.07 491.532C1103.43 492.289 1103.32 493.714 1103.76 495.095C1104.39 497.099 1105.88 498.613 1106.96 500.572C1107.98 502.464 1109.68 504.535 1109.92 506.049C1110.37 508.765 1108.74 510.635 1108.32 512.884C1107.83 515.6 1108.32 519.118 1107.4 521.901C1106.35 525.196 1103.74 528.425 1101.69 532.566C1100.02 535.973 1097.74 539.802 1095.31 542.14C1093.86 543.52 1092.16 544.322 1090.76 545.702C1088.57 547.84 1086.78 550.6 1084.82 553.094C1082.77 555.699 1080.27 557.681 1078.66 559.929C1076.32 563.18 1075.16 568.434 1071.14 568.946C1068.8 569.258 1066.68 569.013 1064.51 570.037C1061.14 571.64 1058.89 574.602 1057.22 574.691C1055.45 574.757 1053.83 572.219 1052.2 571.952C1050.37 571.663 1048.94 573.622 1046.26 573.6C1045.17 573.6 1044.63 572.82 1043.07 572.242C1039.81 571.017 1036.22 571.062 1035.77 566.787C1035.51 564.449 1037 563.403 1036.91 561.31C1036.82 559.217 1035.1 558.705 1034.39 556.946C1034.84 555.053 1034.9 552.693 1033.25 551.469C1033.19 549.777 1033.56 548.552 1034.17 547.639C1032.85 548.307 1031.09 548.73 1029.59 549.843C1027.94 551.046 1026.74 553.806 1024.82 553.383C1023.01 552.626 1024.39 550.467 1024.13 548.73C1023.92 547.394 1021.4 541.739 1020.24 540.804C1018.93 539.713 1014.11 537.553 1012.5 537.242C1005.45 535.928 1000.96 540.448 995.385 541.093C993.957 541.249 992.395 540.804 991.056 541.093C986.482 542.051 981.372 546.415 978.516 549.287C973.808 549.843 969.01 548.129 964.146 549.843C959.303 551.536 956.537 556.367 949.106 555.031C947.633 553.517 945 552.76 945 550.111C944.978 548.018 947.566 546.682 948.414 545.19C949.307 543.587 950.846 539.847 950.913 537.531C950.958 535.705 949.887 533.546 949.998 531.252C950.132 529.404 950.98 527.49 950.958 525.709Z" fill="#3C92E9"/>
<path d="M947.603 411.059C948.845 410.855 949.754 409.722 950.995 409.677C953.634 409.541 956.25 412.078 959.376 411.625C960.063 412.531 959.597 413.278 959.62 414.706C962.28 416.45 966.625 416.133 968 419.417C966.005 422 963.056 420.142 960.529 419.689C958.223 419.281 955.784 419.485 953.279 419.146C950.109 418.692 947.249 416.54 944.211 416.087C942.371 415.816 940.487 416.405 938.758 416.087C936.718 415.702 929.113 412.168 929.003 409.699C928.892 407.14 932.417 406.415 935.565 406.913C939.666 407.547 942.393 411.942 947.603 411.059Z" fill="#3C92E9"/>
<path d="M953.461 392.416C951.746 391.835 950.12 392.148 949.385 391.589C947.826 390.428 948.049 387.146 947.559 385.27C947.068 383.372 945.175 382.367 944.15 379.777C942.658 376.048 942.034 367.675 945.977 366.893C947.559 366.58 949.207 368.032 950.298 367.719C952.504 367.072 952.103 363.655 953.951 362.226C954.976 361.445 956.825 361.757 958.273 361.132C959.765 360.462 960.879 358.765 961.903 357.291C962.861 355.929 963.596 353.629 964.866 352.624C966.292 351.508 967.584 351.463 968.742 350.436C971.727 347.69 971.816 343.871 974.199 340.566C976.226 337.775 979.411 343.268 979.679 345.501C980.815 347.243 983.042 347.667 984 349.61C982.664 354.433 978.877 354.857 979.679 361.668C979.812 362.784 980.436 364.839 981.037 366.335C981.683 367.942 983.621 369.662 983.532 370.711C983.376 372.766 979.946 372.676 979.211 374.82C978.52 376.807 979.255 376.941 978.988 380.023C978.03 382.256 975.469 382.792 974.667 385.516C973.709 388.776 974.801 392.996 972.618 395.385C971.103 395.296 969.455 396.971 967.606 396.748C965.601 396.524 963.708 393.22 960.545 393.175C959.342 393.153 957.916 394.113 956.669 394.001C955.689 393.956 954.887 392.885 953.461 392.416Z" fill="#3C92E9"/>
<path d="M938.5 385.773C944.5 385.773 944.5 396.769 938.5 396.769C932.5 396.769 932.5 385.773 938.5 385.773Z" fill="#3C92E9"/>
<path d="M929.84 384.786C930.547 384.898 933.044 389.141 932.999 390.309C932.911 392.262 930.525 392.15 929.84 394.709C928.779 398.661 930.326 403.151 928.492 405.194C927.475 405.958 925.619 405.733 923.984 405.733C919.896 402.208 916.648 398.032 913.135 393.317C911.853 391.611 910.306 390.129 909.511 388.355C908.34 385.729 907.92 382.832 906.572 380.363C905.379 378.207 903.213 376.658 902.042 374.301C901.092 372.37 901.004 369.81 900.009 367.947C899.081 366.218 897.49 365.477 896.385 364.085C895.656 363.187 895.258 361.773 894.573 360.785C891.723 356.631 886.265 354.476 886 348.369C887.149 346.753 888.342 348.975 890.508 349.469C891.9 349.784 893.557 349.335 894.573 349.739C896.628 350.569 898.043 354.498 900.23 356.631C901.446 357.821 903.036 358.652 904.296 359.932C905.644 361.301 906.616 363.277 907.677 364.063C909.157 365.163 911.19 365.881 913.09 367.386C915.698 369.406 920.36 371.517 921.001 375.67C921.156 376.703 920.603 378.432 920.78 379.24C921.089 380.677 922.592 381.306 923.498 382.541C924.603 384.067 924.846 386.38 926.437 386.672C928.028 387.255 928.116 384.516 929.84 384.786Z" fill="#3C92E9"/>
<path d="M822.848 327.797C824.868 328.59 831.616 338.317 829.642 343.668C829.091 345.187 826.75 347.159 824.478 346.728C819.841 345.844 820.713 333.578 822.136 328.636C822.274 328.228 822.504 327.933 822.848 327.797Z" fill="#3C92E9"/>
<path d="M671.098 466.195C671.297 463.972 672.602 460.335 674.039 459.01C676.118 457.124 678.948 457.326 681.049 455.979C682.796 454.879 685.184 453.038 686.467 451.017C687.55 449.288 687.616 447.335 688.501 446.055C689.098 445.18 690.469 444.933 691.199 443.855C691.862 442.89 691.707 441.071 692.791 439.993C695.931 438.354 696.837 445.359 697.324 450.186C697.457 451.691 698.098 453.307 697.987 454.048C697.656 456.248 695.665 456.697 695.046 458.202C694.892 464.241 692.946 469.495 691.199 474.457C689.695 478.745 688.833 483.46 687.594 487.142C687.152 488.489 686.201 489.545 685.781 490.712C684.145 495.405 683.548 502.769 680.585 504.79C679.523 505.508 675.388 506.743 674.26 506.72C671.496 506.676 669.086 504.139 668.378 501.22C668.003 499.648 668.378 498.009 668.157 496.258C667.892 494.035 666.808 492.149 667.03 489.635C667.538 484.022 672.005 481.305 672.226 476.68C672.403 473.177 670.789 469.72 671.098 466.195Z" fill="#3C92E9"/>
<path d="M561.495 76.1089C561.763 80.7009 555.654 80.1214 554.874 84.0446C554.518 85.828 555.588 88.1909 555.342 89.7958C554.874 92.6714 552.556 91.8244 549.635 93.3625C548.142 94.1427 546.693 96.996 545.088 97.1966C543.594 97.3972 542.68 96.1489 541.677 96.3718C540.183 96.7062 540.674 98.9131 538.489 99.3812C536.728 99.7378 533.673 97.5087 533.473 100.206C533.339 101.945 536.215 102.881 538.021 102.658C539.447 102.502 540.495 101.321 541.9 101.298C544.597 101.276 546.358 103.706 548.053 103.773C551.976 103.906 555.811 99.4258 559.912 99.9385C561.763 100.161 562.855 101.744 564.237 101.588C566.444 101.343 568.295 98.2889 569.944 97.1966C569.253 92.5823 570.011 86.4967 573.6 86.2515C576.053 86.0732 579.753 91.3117 580.199 86.2515C580.4 84.0446 578.26 82.1053 576.788 82.1499C575.473 82.1945 573.756 85.2707 572.686 82.7072C572.686 80.1882 575.027 80.857 576.342 80.2328C577.301 79.7647 577.992 78.4941 579.085 78.0482C584.502 75.7522 592.014 80.2997 594.132 74.7714C589.317 69.845 581.135 76.577 575.674 76.1312C573.333 75.9528 570.279 73.8797 569.521 71.2048C569.276 70.3577 569.476 69.2208 569.298 67.6604C569.097 65.9217 568.339 64.0715 568.384 63.0015C568.607 58.0528 578.862 57.1165 578.862 50.9641C576.9 48.7127 571.17 49.0916 569.298 51.4991C568.629 52.3685 568.651 54.1295 567.715 55.8905C565.664 59.6355 559.065 60.0813 557.014 64.6511C556.546 65.6765 555.744 68.4406 556.1 70.1348C556.568 72.676 561.339 73.3893 561.495 76.1089ZM507.278 343.874C500.702 342.715 493.992 345.903 489.511 348.243C486.925 349.603 484.272 351.676 481.998 351.81C479.836 351.944 477.696 350.428 475.622 350.183C472.902 349.848 469.425 350.16 466.727 350.718C464.119 351.275 461.734 353.526 459.437 353.727C455.023 354.128 450.81 348.934 448.046 346.326C446.351 344.743 444.613 343.428 443.03 341.957C441.335 340.352 439.106 339.394 437.791 337.855C435.985 335.76 435.985 332.149 435.049 329.362C433.934 326.108 430.568 323.7 427.982 320.602C426.042 318.284 421.628 314.828 421.138 311.841C420.893 310.325 421.673 308.564 421.584 306.915C421.472 304.507 419.956 303.148 420.001 301.431C420.046 299.024 422.409 297.173 422.966 295.123C423.256 294.075 423.122 292.626 423.412 291.289C424.058 288.502 425.574 286.875 425.24 282.795C425.106 281.168 423.947 279.697 423.88 277.602C423.835 276.153 424.66 275.372 424.571 274.035C424.393 271.694 421.874 271.248 421.606 268.551C421.339 265.787 423.813 263.491 425.262 260.348C425.909 258.944 426.265 256.781 426.845 255.689C428.116 253.348 430.211 252.234 431.17 249.938C431.883 248.244 432.106 245.725 432.775 244.454C433.622 242.827 435.294 241.935 436.877 239.795C438.17 238.056 438.705 235.939 439.619 235.136C440.756 234.133 442.472 233.888 443.721 233.219C447.934 230.901 451.033 227.936 453.062 223.077C452.437 218.663 453.374 216.813 454.89 213.781C456.272 210.972 457.297 208.275 459.683 206.67C462.536 204.731 465.211 204.552 467.195 200.919C468.199 199.091 469.692 195.97 469.715 194.075C469.737 191.356 467.396 187.901 465.39 187.499C463.339 187.098 460.173 189.372 459.014 186.675C458.635 185.805 459.148 183.799 459.014 182.84C458.746 181.057 457.476 179.787 457.431 178.471C457.32 175.908 459.527 173.233 460.173 170.268C461.02 166.233 460.195 163.135 459.95 158.498C463.138 152.457 470.227 155.444 477.272 156.024C478.32 156.113 479.546 155.712 480.683 155.756C484.874 155.868 488.151 157.384 489.578 153.014C490.113 151.365 490.581 145.257 490.269 143.697C489.89 141.869 486.903 137.121 485.476 136.028C483.224 134.29 479.925 135.048 478.632 131.927C479.68 126.51 484.718 131.013 487.75 129.742C489.288 129.096 489.11 125.886 490.492 125.351C491.428 124.994 492.61 126.488 493.903 126.443C495.017 126.421 499.008 123.991 500.055 123.144C501.505 121.962 501.95 119.51 503.243 118.485C504.113 117.794 505.25 117.883 506.208 117.393C508.148 116.39 510.6 114.361 511.915 112.466C513.788 109.747 514.635 106.403 516.931 105.89C519.986 105.222 526.896 106.626 527.409 102.591C527.9 98.757 524.6 95.77 525.804 91.646C526.763 88.3915 529.193 88.9711 532.648 86.9871C534.32 88.4138 533.83 92.4485 534.008 94.9229C536.126 94.9452 540.428 94.165 540.852 91.9135C541.365 89.0825 537.775 86.2292 536.973 84.5128C536.126 82.6626 535.947 79.4303 534.231 79.0291C530.753 78.2266 527.387 84.7803 523.062 84.7803C520.231 84.7803 517.199 82.1499 516.463 79.5864C516.04 78.1151 516.419 76.733 516.24 75.1949C515.973 72.9658 514.858 70.6252 515.326 67.5267C517.065 63.9377 521.1 63.3582 523.976 61.508C525.068 60.8169 525.96 59.3234 527.164 58.7661C529.215 57.8522 532.224 58.7661 534.231 57.4063C535.502 56.537 535.145 55.0434 536.059 53.3047C536.638 52.2124 538.021 51.566 538.801 50.2954C539.336 49.426 539.403 48.0885 539.938 47.286C541.922 44.3212 545.533 43.229 547.005 40.175C547.651 38.8152 545.89 38.3248 546.336 36.3409C547.072 34.4238 549.925 35.8282 551.575 35.5161C553.849 35.0926 555.944 31.7934 558.419 31.147C561.005 30.4782 563.769 30.8795 566.177 29.7872C567.604 29.1185 568.919 27.558 570.279 27.3128C570.747 27.2237 572.107 27.6249 572.776 27.5803C573.645 27.5358 574.581 26.8893 575.741 26.7556C577.413 26.5549 579.486 27.246 581.671 27.2906C585.282 27.3797 588.693 25.9976 591.702 27.558C593.263 28.3828 593.085 30.5228 595.113 31.3922C596.139 31.838 597.476 31.2139 598.992 31.3922C601.222 31.6374 603.562 33.5099 606.505 33.8665C607.553 34.0003 608.645 33.7105 609.693 33.8665C612.948 34.3347 616.537 36.4078 619.725 37.7007C622.4 38.793 628.062 40.1304 628.152 43.1844C628.285 46.7956 623.225 47.8433 621.085 47.8433C617.496 47.8433 612.747 45.3244 609.002 46.751C609.069 52.948 614.62 57.6292 619.703 56.8713C620.148 53.9512 616.827 55.5784 617.183 52.7697C619.457 50.7189 622.177 54.1518 625.387 53.5945C626.636 53.1932 626.435 51.0087 626.747 49.4929C629.467 47.5089 632.855 44.611 637.002 46.751C637.203 46.2606 637.515 45.9039 637.916 45.6587C638.184 42.6494 635.174 41.089 636.779 38.258C637.582 36.3186 641.817 36.9873 642.486 38.5255C642.82 40.3756 641.438 40.175 641.572 41.8023C642.375 43.9869 644.247 44.3212 645.228 44.2767C647.457 44.1429 647.903 41.7354 650.021 40.4425C650.868 39.9298 652.117 39.8629 653.209 39.3502C654.502 38.7261 655.594 37.5 656.62 37.1657C657.378 36.9205 658.515 37.1657 659.585 36.8982C660.923 36.5638 662.349 35.2486 663.464 35.2709C664.846 35.2709 665.827 37.188 667.566 37.4555C668.524 37.6115 669.594 36.809 670.977 36.6307C672.091 36.4746 673.251 36.7867 674.165 36.6307C676.349 36.2517 677.843 34.8697 679.626 34.9811C680.897 35.0703 683.082 37.1211 683.951 36.0734C685.423 34.3124 681.989 33.0195 683.037 31.4145C686.537 31.7266 690.238 31.6374 693.738 32.2393C698.955 33.1309 703.837 36.2294 708.541 36.3409C708.095 32.529 704.461 33.6213 702.834 31.9718C702.343 31.4591 700.292 27.4466 700.337 26.2206C700.359 25.5964 702.923 20.3356 703.525 19.6446C705.531 17.3708 712.13 17.3931 714.002 20.4694C715.295 22.5648 714.872 25.7301 716.744 25.6633C718.349 25.6187 719.219 20.8483 721.069 20.7369C722.607 20.6477 723.388 23.7908 724.948 23.7462C726.843 23.7016 728.158 19.4662 730.655 19.3548C731.993 19.2879 732.461 20.1796 734.534 20.4471C735.961 19.3548 734.066 17.9058 734.757 16.3454C737.299 14.1163 743.117 15.8104 746.372 14.4284C747.286 13.1355 745.213 12.1992 746.149 10.8617C748.958 8.49883 753.684 8.29821 758.455 7.31739C761.375 6.71552 764.14 4.28575 766.413 4.01825C768.799 3.77304 771.095 5.7124 773.257 5.66782C774.573 5.64552 776.089 5.15511 777.359 4.57553C778.652 3.97366 779.522 2.48014 780.792 2.10118C782.799 1.5216 785.318 2.39097 787.636 2.10118C790.089 1.81139 792.251 0.652235 794.012 1.0089C795.662 1.32098 797 3.43867 798.56 3.75075C803.353 4.64241 808.324 2.88138 812.694 4.28575C813.474 4.55324 814.254 5.51178 815.213 5.93531C818.133 7.22822 820.14 6.82697 820.697 11.1292C822.993 12.1101 824.353 14.6513 827.073 15.5206C828.901 16.1002 830.729 15.2532 832.78 15.2532C835.477 15.2532 838.911 15.3869 841.207 15.7881C842.522 16.0334 843.592 17.1925 844.863 17.4377C845.777 17.616 847.003 17.3263 848.051 17.4377C849.478 17.5938 850.771 18.3071 851.93 18.2625C854.315 18.1733 856.121 15.6098 858.083 15.2532C859.13 15.0525 860.535 15.699 861.494 15.7881C865.328 16.1671 869.764 15.1863 872.885 16.0556C874.557 16.5238 877.411 18.7306 879.261 20.4248C880.599 21.6508 881.424 23.6125 882.672 24.5264C883.876 25.3958 886.908 26.9562 888.156 26.711C889.605 26.4435 889.672 24.4818 891.121 23.7016C895.647 22.4979 903.672 25.4404 907.306 23.4341C908.71 22.6539 908.443 20.8706 909.58 19.8675C916.424 19.4662 923.223 20.2019 929.643 20.4025C931.895 20.4694 934.214 19.7114 936.265 20.135C938.516 20.6031 940.166 23.3227 942.417 24.2366C943.911 24.8385 946.542 24.5264 948.793 25.0614C950.309 25.4181 951.535 26.5103 952.672 26.711C955.102 27.1345 957.443 26.3766 959.739 26.176C964.956 25.6633 971.688 25.3289 976.838 27.8255C979.58 29.1407 980.717 31.8157 983.66 32.1947C987.873 32.752 994.383 31.7711 998.708 32.1947C999.733 32.3061 1000.69 32.8188 1001.45 32.7297C1002.9 32.5959 1003.77 31.1247 1005.55 31.1024C1007.8 31.0355 1011.39 35.3155 1014.67 34.669C1016.07 33.5322 1013.53 31.9272 1014.89 30.8349C1016.19 29.5643 1017.92 30.8126 1019.91 30.8349C1020.98 30.8572 1022.32 30.1884 1023.32 30.2776C1025.82 30.5451 1028.2 33.2424 1031.3 34.1117C1033.75 34.8028 1037.14 35.048 1040.2 34.669C1042.38 34.3792 1044.25 33.4876 1046.35 33.8442C1047.35 34.0003 1048.24 34.8919 1049.31 35.204C1050.29 35.4938 1051.23 35.2263 1052.05 35.4715C1052.81 35.7167 1053.57 36.5861 1054.33 36.8313C1058.56 38.2802 1064.2 39.0159 1068.69 40.6654C1071.32 41.6463 1074.01 43.6079 1076.2 43.6748C1077.27 43.7194 1078.23 43.1175 1079.61 43.1175C1086.5 43.1844 1094.59 46.6173 1093.97 54.3524C1085.92 56.4701 1079.16 47.6873 1070.71 50.2508C1069.38 50.652 1067.86 52.4353 1067.99 54.0849C1068.31 58.8553 1078.32 58.454 1079.16 63.113C1077.51 64.5842 1075.73 63.2021 1074.39 63.3805C1072.34 63.6702 1068.86 66.2783 1067.55 67.7496C1066.01 69.4883 1064.65 73.9243 1063 74.3256C1060.97 74.7937 1057.85 71.9181 1054.8 72.676C1053.68 72.9658 1052.59 74.6376 1051.61 74.8606C1049.09 75.4401 1045.9 73.211 1044.32 76.7776C1045.14 79.2743 1044.63 82.774 1046.37 84.1784C1047.48 85.0923 1048.87 84.379 1050.25 85.0032C1051.85 85.7165 1052.75 88.0571 1054.11 89.3946C1055.24 90.4646 1056.45 90.4869 1057.07 91.8467C1057.2 93.8752 1056.4 94.0758 1056.6 95.4133C1056.96 97.7093 1059.95 98.222 1060.01 99.7824C1060.12 101.766 1058.14 101.343 1057.74 103.349C1057.61 104.62 1058.97 104.954 1059.1 106.626C1059.19 107.74 1058.34 108.922 1058.43 110.193C1058.52 112.02 1059.72 113.224 1059.57 114.851C1059.43 116.234 1058.43 117.304 1057.52 117.861C1053.15 114.495 1049.22 109.858 1044.52 105.534C1039.7 101.098 1032.1 95.6808 1031.3 86.363C1031.28 84.9363 1033.82 83.8217 1034.27 81.704C1034.44 80.8347 1033.98 79.6086 1034.04 78.4272C1034.2 75.2172 1036.41 72.1187 1036.32 70.2239C1036.2 68.1285 1032.95 64.2275 1031.3 63.6479C1029.98 64.495 1031.28 66.1446 1031.08 67.4821C1030.81 69.1317 1029.14 71.1602 1027.67 71.3162C1023.36 71.762 1022.87 64.6511 1016.05 66.6573C1014.29 67.1923 1011.79 70.38 1012.42 74.3256C1012.6 75.5293 1015.34 76.7999 1015.16 78.4272C1014.96 80.0099 1008.94 80.478 1007.65 80.3443C1003.97 79.9876 1002.07 76.6885 998.752 76.7776C997.125 76.8222 995.698 78.4049 994.427 78.6947C987.249 80.2774 976.593 74.4593 974.163 81.9715C973.806 83.0415 974.007 84.4236 973.695 85.5382C973.249 87.1209 972.201 88.3692 971.867 89.3723C971.599 90.2194 971.644 91.8912 971.176 93.2064C970.752 94.4102 966.449 99.0691 970.262 100.317C971.176 100.607 971.599 99.8493 972.781 100.05C974.742 100.362 977.997 104.152 980.293 104.152C981.676 104.152 983.57 102.301 984.618 102.234C986.736 102.101 988.252 103.75 989.857 104.687C991.395 105.601 993.736 107.495 994.873 107.428C997.036 107.295 995.988 105.511 998.061 104.687C1002.01 106.091 1003.86 111.106 1007.62 115.097C1009.01 116.523 1011.01 117.772 1012.86 119.756C1013.89 120.87 1017.05 123.835 1017.19 125.239C1017.3 126.554 1016.3 127.112 1016.05 128.249C1015.67 129.921 1016.54 131.147 1015.61 132.35C1011.97 130.723 1011.15 126.421 1008.54 122.765C1007.58 121.405 1006.6 119.778 1005.13 117.839C1004.46 116.969 1002.05 113.871 1000.56 114.562C997.682 115.877 1002.12 121.093 1002.83 122.23C1004.35 124.637 1006.35 127.892 1006.49 130.433C1006.58 132.06 1005.6 135.025 1005.57 137.834C1005.55 139.729 1005.98 141.445 1005.8 143.028C1005.62 144.633 1004.68 146.461 1004.19 148.244C1003.66 150.25 1003.55 152.658 1003.05 153.995C1002.16 156.47 999.198 159.368 997.125 159.479C995.23 159.568 994.427 157.718 992.577 157.829C989.768 157.985 989.255 161.084 987.561 163.581C987.695 166.278 988.408 167.214 988.007 169.064C987.383 171.962 984.039 172.475 984.128 175.373C984.217 178.048 987.204 178.561 988.676 179.764C990.704 181.392 994.271 185.003 996.211 187.968C997.481 189.907 999.309 193.563 999.176 195.636C998.997 198.355 992.51 202.123 989.813 201.119C987.271 200.161 988.141 197.241 987.539 194.543C987.07 192.47 985.711 191.579 985.042 189.885C984.685 188.993 984.841 187.589 984.351 186.608C982.969 183.821 980.583 185.337 977.73 183.598C975.879 182.462 976.414 180.032 975.679 177.847C974.698 174.905 970.574 173.523 967.252 174.303C964.822 174.86 964.064 177.334 961.768 177.847C958.424 175.462 962.459 169.599 958.357 169.087C955.214 168.685 953.14 174.503 951.29 176.198C950.042 177.334 947.79 177.58 947.656 179.207C947.389 182.239 950.309 181.614 952.672 182.774C954.812 183.821 955.058 186.719 956.997 186.875C958.625 187.009 959.717 184.847 961.322 184.691C964.131 184.401 966.405 185.917 968.166 187.165C967.029 190.486 960.898 192.916 960.876 197.285C960.876 199.827 963.328 200.25 965.201 201.944C966.784 203.371 968.879 207.361 971.131 210.148C972.09 211.351 973.672 212.154 974.096 212.889C975.144 214.695 974.988 216.902 976.147 218.106C976.348 219.599 975.567 219.978 975.701 221.382C976.258 223.344 978.778 222.987 979.357 224.949C978.889 229.675 980.516 234.111 977.306 235.894C975.812 244.365 974.141 250.986 969.325 255.6C965 259.746 959.271 260.972 954.054 263.001C952.695 263.536 951.625 265.23 950.421 265.742C947.389 266.991 941.994 266.233 941.771 270.669C941.637 272.853 944.089 274.191 944.268 276.42C944.558 279.853 941.994 283.308 940.166 283.531C938.851 283.709 935.997 282.595 935.841 279.697C935.663 276.442 939.207 275.105 939.497 273.121C939.987 269.643 937 266.233 933.567 266.545C930.558 266.812 923.714 274.079 923.535 278.047C923.401 281.012 928.417 287.187 930.134 288.992C936.532 295.769 943.331 299.826 942.217 316.366C940.612 320.557 936.532 321.449 933.344 323.767C930.914 325.528 929.688 330.967 925.586 331.435C923.936 330.767 924.895 327.668 924.449 326.242C923.825 324.28 920.57 323.321 918.519 321.315C916.847 319.666 916.156 317.08 914.863 315.564C913.258 313.669 910.895 313.29 908.933 311.997C907.707 311.195 906.749 308.364 905.522 308.453C903.516 308.542 904.207 310.883 903.694 314.739C903.182 318.551 900.863 321.471 901.643 325.974C901.955 327.824 903.873 329.296 904.831 331.168C906.414 334.267 906.637 337.9 908.242 339.661C909.312 340.82 911.14 341.088 912.344 342.113C914.752 344.186 919.01 348.689 919.857 351.141C920.838 354.017 919.879 357.427 920.548 360.459C921.306 363.959 925.118 366.478 922.822 370.044C920.637 369.554 918.742 367.837 916.892 366.478C913.771 364.159 912.322 362.131 910.293 358.274C909.691 357.138 908.799 356.045 908.465 354.998C907.662 352.545 907.841 349.759 907.105 346.794C906.459 344.231 903.984 340.174 902.089 338.034C900.484 336.228 897.653 335.158 897.541 332.55C897.385 328.872 898.567 324.547 898.455 320.223C898.433 319.287 897.898 318.35 897.787 317.214C897.541 315.118 897.965 312.532 897.541 310.638C897.162 308.899 896.115 307.316 895.491 305.711C894.889 304.128 894.264 302.546 893.662 300.495C892.726 297.329 891.701 291.222 889.561 290.91C887.287 290.575 885.013 296.059 882.048 296.126C880.51 296.148 878.481 294.677 878.169 292.827C877.879 291.155 878.882 289.461 878.86 287.633C878.771 283.955 876.608 282.55 874.981 279.964C874.334 278.917 874.156 277.445 873.599 276.688C872.573 275.194 870.589 274.369 869.274 272.853C868.025 271.405 866.666 269.309 866.086 267.927C865.216 265.787 864.927 263.001 863.589 262.711C862.296 262.443 860.825 264.65 859.487 265.185C858.105 265.742 854.694 266.434 853.334 266.545C848.764 266.924 845.041 265.453 845.599 272.029C844.885 274.971 842.299 275.016 840.583 276.398C838.398 278.181 836.815 281.748 834.43 284.601C833.27 286.005 831.598 286.875 830.551 288.168C829.681 289.238 829.414 290.976 828.5 292.002C826.07 294.766 822.414 294.989 820.764 298.845C820.675 303.393 822.547 306.848 822.124 311.15C821.923 313.112 820.697 314.873 820.519 316.901C820.385 318.64 821.121 320.513 820.764 322.385C820.563 323.388 819.649 323.901 818.936 325.127C818.312 326.219 818.044 327.668 817.576 328.404C816.796 329.585 815.547 330.41 814.834 331.413C813.675 333.063 813.43 334.244 812.337 334.423C807.344 335.292 806.117 323.879 803.91 319.086C802.885 316.879 800.812 314.895 799.809 312.243C798.649 309.166 798.293 305.332 796.621 301.832C795.216 298.868 793.254 295.881 792.296 292.804C791.493 290.196 790.78 286.942 790.022 284.044C789.219 280.99 788.328 277.133 788.194 274.748C787.993 271.204 788.773 268.997 786.366 267.637C784.159 268.261 783.2 270.914 780.659 270.914C778.229 270.914 771.697 265.854 773.592 261.329C772.009 258.609 767.996 257.138 764.92 253.928C763.159 252.1 761.576 247.731 758.544 247.352C757.697 247.241 756.604 247.82 755.802 247.887C753.862 248.088 750.452 247.686 748.289 247.887C745.547 248.154 742.181 248.89 738.725 248.422C736.496 248.132 733.732 247.619 731.436 247.33C728.515 246.973 724.636 246.148 723.009 244.32C722.006 243.206 721.582 239.617 719.821 239.126C717.703 238.547 716.544 240.509 714.582 241.044C710.413 242.203 706.913 240.018 704.104 237.767C702.098 236.162 700.27 235.337 698.865 234.2C695.41 231.414 694.786 223.032 689.525 222.965C687.697 222.943 684.776 224.325 684.509 226.799C684.33 228.538 686.247 231.77 687.028 233.108C689.591 237.432 694.273 239.06 695.677 244.878C696.614 245.323 698.553 243.875 699.556 245.145C700.448 247.642 699.534 252.278 701.607 253.348C711.082 255.221 713.779 249.002 718.015 244.588C720.467 246.527 719.665 248.199 720.512 250.339C721.381 252.524 722.764 254.24 724.391 254.998C725.528 255.533 726.999 255.043 728.716 255.823C729.786 256.313 734.289 261.418 734.423 263.224C734.534 264.829 731.48 270.312 730.544 271.717C729.63 273.076 728.248 273.767 727.802 274.993C727.49 275.93 727.579 277.958 727.356 278.56C726.932 279.652 724.881 281.079 723.7 282.394C722.451 283.799 721.002 284.869 719.821 285.961C718.372 287.298 717.48 289.104 715.942 289.795C712.91 291.132 710.034 290.553 707.515 292.537C705.865 293.83 705.865 296.728 703.881 298.288C701.808 299.915 698.241 299.915 695.209 301.587C693.27 302.635 692.111 304.708 690.439 305.421C689.747 305.711 688.9 305.466 688.165 305.689C686.649 306.157 685.244 307.45 683.84 307.873C682.725 308.208 681.521 308.052 680.429 308.431C676.929 309.657 673.696 313.937 670.174 311.44C668.502 306.826 668.235 301.03 666.295 296.928C665.314 294.833 663.352 294.186 662.661 292.002C662.572 290.241 664.333 290.731 664.489 289.26C663.91 286.295 661.591 284.913 660.165 282.417C659.473 281.19 659.139 279.452 658.337 278.047C655.617 273.299 650.266 270.825 649.219 264.895C648.929 263.29 649.263 262.02 648.996 260.794C648.55 258.765 647.413 256.648 646.254 255.043C645.384 253.817 643.601 252.992 642.62 251.208C641.951 250.027 641.817 248.355 641.26 247.107C638.986 242.024 635.709 237.544 632.142 233.955C630.292 234.289 628.285 234.423 627.371 235.872C628.308 239.461 629.712 242.448 631.25 245.457C632.633 248.199 634.617 251.142 635.575 254.218C635.932 255.355 635.865 256.848 636.266 258.052C637.693 262.399 642.196 263.736 643.11 268.73C643.712 272.073 642.977 274.414 643.801 277.758C644.582 280.99 648.55 282.885 650.177 285.961C651.515 288.48 651.515 292.046 652.451 294.454C653.811 297.976 657.623 299.492 660.432 301.855C662.951 303.972 664.735 307.249 666.808 309.523C668.034 310.86 669.706 311.083 669.996 312.532C670.375 314.383 669.349 315.007 669.082 316.634C670.843 318.819 672.537 322.876 675.458 323.21C676.661 323.344 678.177 321.895 680.005 321.56C680.942 321.404 681.967 321.739 682.747 321.56C683.951 321.293 685.021 320 686.404 319.643C688.722 319.041 691.419 319.287 694.384 318.818C697.171 318.373 699.088 315.564 701.228 316.366C703.569 319.465 701.897 322.965 701.228 325.952C701.005 326.999 701.006 328.092 700.783 328.961C699.556 333.843 696.324 337.454 694.853 341.823C694.407 343.161 694.474 344.81 693.939 346.192C692.244 350.584 688.7 354.908 685.958 358.52C684.419 360.548 683.037 362.376 681.41 364.003C679.783 365.631 677.776 366.5 675.926 368.105C672.27 371.315 668.48 375.907 665.894 380.165C664.891 381.814 664.423 383.709 663.375 385.091C661.881 387.075 659.585 388.056 658.359 390.017C657.378 391.556 656.731 394.364 655.617 397.128C654.368 400.249 651.738 402.367 652.206 406.714C652.384 408.363 653.61 409.411 654.034 411.105C654.747 414.025 654.19 416.477 653.811 419.598C655.104 423.343 656.018 427.534 658.359 430.008C658.649 435.559 657.98 440.931 658.359 445.612C658.604 448.599 659.563 450.806 658.582 453.548C657.712 455.978 654.413 460.236 652.429 461.751C650.266 463.423 646.989 463.847 644.671 465.875C643.066 467.28 641.728 469.71 640.123 471.359C637.448 474.056 633.747 476.575 633.524 479.295C633.391 480.855 634.55 483.24 634.884 484.756C635.776 488.791 636.645 494.609 635.107 499C633.457 503.749 625.097 502.745 624.161 507.761C623.871 509.277 624.719 510.503 624.607 512.152C624.518 513.557 623.002 518.572 622.333 520.088C621.33 522.362 619.034 523.365 617.562 525.304C615.69 527.734 614.753 531.234 612.769 533.797C610.094 537.275 606.46 540.931 602.96 543.918C599.929 546.548 594.489 549.268 589.741 549.669C586.976 549.914 584.011 548.889 581.091 549.402C580.021 549.58 578.862 550.761 577.435 551.051C576.61 551.207 575.763 550.873 574.938 551.051C573.511 551.341 572.174 552.701 570.836 552.701C567.893 552.656 564.081 548.421 563.992 544.208C563.948 542.58 565.151 541.042 565.129 539.549C565.107 537.81 563.323 535.603 561.941 532.438C560.604 529.384 560.091 525.929 558.753 523.41C557.349 520.735 555.476 519.486 554.428 517.369C552.333 513.156 552.177 508.185 551.463 503.124C551.24 501.475 550.304 499.692 550.104 497.641C549.858 495.122 550.349 492.335 549.881 490.24C549.502 488.635 548.03 487.008 547.139 485.046C545.533 481.502 544.396 476.865 543.037 474.101C541.744 471.515 539.158 468.818 538.935 465.898C538.779 463.914 539.135 460.191 539.381 458.229C539.626 456.312 540.807 454.774 541.209 452.768C541.476 451.43 541.164 449.87 541.431 448.377C542.591 442.113 548.342 439.839 547.584 432.215C547.272 428.983 545.355 427.4 545.065 423.722C544.932 422.006 545.779 420.512 545.756 418.796C545.712 416.477 544.084 413.045 543.237 410.86C540.919 404.819 539.514 399.291 536.17 394.699C534.342 392.202 531.979 390.441 530.463 388.123C529.237 386.25 527.744 382.728 527.721 381.279C527.699 379.719 528.724 378.738 529.081 377.178C529.549 375.149 529.594 371.337 530.218 368.15C530.508 366.678 531.823 363.134 531.578 360.749C531.355 358.453 528.501 354.061 526.094 353.348C522.906 352.389 519.629 354.574 515.616 354.173C512.005 351.632 512.272 344.743 507.278 343.874ZM633.279 441.89C634.327 439.884 635.664 434.221 633.279 432.862C633.123 432.862 632.967 432.862 632.833 432.862C631.808 435.113 630.738 440.619 633.279 441.89ZM630.091 384.668C630.871 382.773 632.677 380.767 632.365 378.381C631.719 373.098 623.492 375.706 622.578 379.474C621.954 382.015 622.957 384.021 622.11 386.585C623.002 388.613 625.254 389.014 628.04 388.769C629.578 387.967 629.378 386.406 630.091 384.668ZM616.203 412.866C617.117 410.86 614.753 409.545 614.375 407.383C613.929 404.864 614.887 401.899 612.992 400.539C612.769 400.539 612.546 400.539 612.324 400.539C610.674 405.02 613.015 412.443 616.203 412.866ZM771.608 140.999C770.761 138.926 768.286 141.601 769.334 143.474C770.872 143.585 771.429 142.515 771.608 140.999ZM718.506 152.212C722.206 151.365 718.55 144.254 715.764 145.101C712.152 146.193 715.986 152.814 718.506 152.212ZM701.652 187.544C702.789 178.048 696.636 177.334 695.499 170.58C696.034 170.669 695.744 169.8 696.19 169.755C697.684 168.886 699.958 171.137 700.738 168.931C700.76 165.676 697.327 163.269 693.894 164.829C692.913 164.004 692.779 162.176 692.534 160.438C689.948 158.587 683.55 154.553 683.639 150.852C683.706 147.821 686.983 146.104 690.706 146.193C692.267 144.767 691.263 140.375 689.792 139.35C683.907 137.812 680.763 138.837 677.018 142.092C675.235 143.652 673.228 144.722 672.225 145.658C671.311 146.505 670.063 148.868 670.174 150.027C670.308 151.722 672.337 152.725 673.139 154.954C673.54 156.113 673.451 157.562 673.83 158.52C674.833 161.151 677.375 162.867 679.292 165.096C680.652 166.657 684.464 170.067 684.531 171.94C684.598 173.5 683.372 173.857 682.948 175.507C682.525 177.134 682.012 180.946 682.257 182.35C682.747 185.359 685.356 185.471 687.719 186.741C690.082 187.99 692.333 190.219 694.786 190.286C697.416 190.353 700.203 189.35 701.652 187.544ZM648.104 167.816C654.279 166.479 651.47 160.215 648.327 157.963C645.964 156.269 643.11 154.775 640.346 152.747C638.741 151.566 632.633 149.359 632.61 146.996C632.566 144.432 637.158 143.585 635.352 139.06C632.231 138.146 624.808 139.595 625.32 143.719C625.61 146.104 627.973 144.789 628.508 147.286C626.279 148.244 623.559 150.741 621.219 150.295C618.432 149.76 617.719 145.658 616.203 143.184C614.04 143.273 612.613 140.665 610.05 140.999C607.374 141.356 605.948 146.015 604.588 148.4C603.852 149.648 602.715 150.295 602.314 151.409C602.069 152.078 602.336 153.171 602.091 154.151C601.311 157.183 599.126 158.298 599.349 160.995C599.572 163.358 601.712 164.428 601.868 166.479C601.712 168.574 598.903 167.482 599.126 170.045C603.206 174.08 603.429 168.128 605.502 167.303C607.174 166.635 610.451 167.861 612.569 167.303C614.285 166.857 615.623 164.896 617.585 164.026C618.789 163.491 620.26 163.001 621.91 162.934C629.155 162.578 633.836 168.24 640.145 168.418C642.196 168.418 645.942 168.306 648.104 167.816ZM633.502 200.139C633.636 197.196 632.566 194.989 632.365 190.843C628.152 187.789 625.008 193.674 620.75 193.028C618.12 192.626 616.247 188.971 613.46 189.483C611.922 189.751 611.164 192.136 609.582 192.493C606.327 193.206 604.833 189.372 601.378 190.865C596.495 186.407 594.311 179.118 593.174 170.87C590.521 166.679 586.464 170.09 584.524 172.787C583.32 172.765 581.827 171.985 581.559 173.612C580.667 178.672 587.511 179.207 587.489 182.64C587.467 184.869 584.814 184.668 583.61 186.184C582.339 187.811 583.186 189.26 581.559 190.286C577.056 190.932 575.585 187.99 575.629 183.175C573.69 179.63 571.237 177.067 569.476 174.147C568.83 173.077 567.849 171.383 567.648 169.755C567.492 168.485 568.161 166.857 567.871 165.386C567.381 162.778 563.323 160.794 560.804 159.368C558.107 157.829 554.74 156.358 552.823 154.441C551.463 153.081 550.839 150.696 549.635 149.782C548.61 149.024 547.361 149.18 546.447 148.422C545.199 147.375 545.4 145.614 543.705 145.123C542.858 144.744 541.521 146.149 540.963 147.04C539.849 153.014 543.906 153.416 545.734 156.068C547.005 157.896 547.629 160.616 548.922 161.82C550.304 163.09 552.177 162.867 553.938 163.737C555.164 164.339 555.944 166.166 557.126 167.014C559.311 168.596 562.788 168.886 563.056 171.94C561.696 173.055 558.642 170.335 557.594 173.032C557.326 174.816 558.775 175.729 558.731 177.401C558.664 180.099 556.19 183.041 553.938 182.618C553.715 181.013 555.119 179.697 555.075 177.959C554.986 174.481 549.145 169.154 546.18 167.549C544.798 166.791 543.103 166.746 541.855 165.899C539.626 164.383 535.702 160.66 534.342 158.498C532.715 155.912 531.31 151.097 527.744 151.387C526.272 151.499 525.068 153.104 523.865 153.862C522.772 154.53 521.568 155.154 520.454 156.046C519.116 157.094 518.046 158.186 516.798 158.231C513.944 158.387 511.514 155.689 509.062 156.314C508.237 156.537 507.546 157.428 506.543 158.498C506.498 160.103 506.944 161.129 506.766 162.867C506.03 164.405 503.823 164.316 502.218 165.342C499.855 166.835 497.759 169.911 495.842 172.185C494.616 173.656 493.479 174.86 493.323 176.019C493.212 176.933 493.969 178.65 493.791 179.853C493.59 181.169 491.517 183.91 490.135 185.047C489.333 185.716 488.262 185.805 487.393 186.407C485.587 187.678 484.785 189.35 483.291 189.684C479.301 190.576 472.078 188.725 472.122 193.786C472.167 197.174 475.957 197.196 478.275 197.062C481.508 196.906 484.227 197.887 486.011 197.33C487.237 196.951 488.597 195.301 489.89 194.588C490.715 194.142 491.562 194.142 492.164 193.763C493.524 192.939 494.304 191.601 495.352 191.021C497.425 189.885 501.304 188.993 503.555 188.837C506.632 188.614 509.842 189.216 513.81 188.837C515.215 188.703 516.619 187.611 518.135 187.477C520.61 187.232 523.887 188.659 525.871 188.569C527.253 188.525 528.814 186.898 530.419 186.92C532.247 186.964 534.186 188.525 534.521 189.929C534.721 190.732 534.142 192.002 534.298 193.206C534.565 195.19 535.992 196.015 535.903 197.308C535.791 199.024 532.224 201.32 532.715 203.326C533.027 204.619 535.591 205.979 536.817 206.893C538.11 207.852 540.295 209.144 541.833 209.345C543.126 209.523 544.263 208.922 545.489 209.078C547.451 209.323 550.639 210.772 551.865 211.819C554.005 213.625 553.715 216.523 556.189 217.571C557.237 218.016 559.154 217.771 560.514 218.128C563.836 218.997 566.288 222.296 568.718 221.962C572.53 221.427 570.791 217.102 571.237 214.026C572.218 207.027 583.565 207.361 585.817 212.109C587.489 212.644 588.938 212.198 590.833 212.934C591.925 213.357 592.75 214.806 593.798 215.119C594.601 215.364 595.738 214.985 596.763 215.119C601.132 215.72 605.101 219.621 608.846 218.953C611.231 218.529 612.948 215.832 615.222 215.676C619.591 215.341 622.378 219.577 627.082 217.593C630.537 216.144 629.779 211.819 630.961 207.473C631.83 204.485 633.413 202.412 633.502 200.139ZM879.172 106.782C880.086 103.304 878.682 99.7824 876.898 97.4864C874.267 98.0437 876.162 101.321 875.984 103.238C875.717 105.957 873.331 107.852 873.465 110.638C872.595 111.864 871.102 112.355 870.968 114.473C872.417 115.676 873.041 113.536 874.156 112.288C875.895 110.282 878.57 109.123 879.172 106.782ZM819.449 11.7757C816.952 11.7757 815.993 12.9571 814.433 13.9602C813.563 14.4952 811.824 14.8073 812.382 16.4123C814.589 16.1002 818.936 14.9188 819.449 11.7757ZM723.299 45.4581C728.649 46.9516 731.168 39.6846 727.623 35.6053C726.799 34.6467 723.99 34.2678 722.853 32.0609C721.448 29.386 721.649 25.8193 718.283 26.5772C718.238 26.8893 718.327 27.3574 718.06 27.402C717.748 33.3984 724.993 34.8919 724.904 39.7292C724.837 42.2258 722.607 42.4933 723.299 45.4581Z" fill="#3C92E9"/>
<path d="M648.059 35.0483C647.46 31.9263 651.651 32.4427 650.912 35.33C650.254 36.1986 648.478 36.1281 648.059 35.0483Z" fill="#3C92E9"/>
<path d="M620 199.315C620.106 196.825 624.191 195.888 625 198.107C624.723 200.548 620.83 202.225 620 199.315Z" fill="#3C92E9"/>
<path d="M542 184.041C544.397 181.89 549.707 183.359 553 183.276C552.373 185.22 552.283 187.744 550.939 188.861C547.175 188.116 543.658 187.103 542 184.041Z" fill="#3C92E9"/>
<path d="M525.257 169.786C528.525 165.909 531.98 167.958 530.743 175.47C529.949 177.717 526.541 180.713 525 177.364C525.537 174.743 525.327 172.804 525.257 169.786Z" fill="#3C92E9"/>
<path d="M529.95 160.68C530.209 163.048 529.43 164.095 528.412 164.869C525.467 164.232 527.697 157.607 529.95 160.68Z" fill="#3C92E9"/>
<path d="M485.459 105.442C485.729 103.89 484.696 101.96 483.394 101.073C482.631 100.563 481.486 100.807 480.633 100.252C478.388 98.7884 477.579 95.7498 476.277 95.0844C476.434 92.0902 475.581 89.9388 476.277 88.0092C476.704 86.8337 479.712 83.5068 481.329 82.8415C483.327 81.9986 485.437 82.7527 486.604 80.934C487.121 80.8453 487.48 80.9784 487.749 81.2002C487.749 82.9302 486.515 83.1963 486.38 84.7489C486.672 87.233 490.331 85.6804 490.735 88.0092C490.398 90.5599 488.468 91.0478 488.445 92.9109C488.445 94.53 491.229 97.5907 492.576 99.7199C493.586 101.295 495.338 102.47 496.258 104.089C497.044 105.509 497.223 107.172 497.852 107.904C499.064 109.257 501.781 109.479 501.983 111.453C502.252 114.048 499.266 115.068 499.693 117.996C496.55 120.923 491.274 119.415 486.155 120.169C483.821 120.524 481.261 123.274 478.814 120.99C478.253 119.171 480.857 118.905 481.104 117.175C480.924 115.556 479.218 115.8 478.814 114.447C479.488 112.318 481.553 111.896 481.351 108.725C482.608 107.061 485.055 107.682 485.459 105.442Z" fill="#3C92E9"/>
<path d="M469.105 98.9183C472.239 96.7105 477.684 98.3885 477.981 101.082C478.21 103.113 476.311 103.4 475.648 105.696C475.03 107.772 475.762 110.244 474.961 111.657C474.252 112.894 472.308 112.827 470.981 113.269C468.03 114.285 462.356 118.303 460 113.799C460.343 111.392 462.356 110.907 463.043 108.92C463.088 107.352 461.647 106.513 461.876 104.857C462.15 102.804 463.477 103.511 465.376 102.694C466.749 102.12 467.32 100.177 469.105 98.9183Z" fill="#3C92E9"/>
<path d="M313.975 39.2378C314.466 41.6037 307.685 44.7076 307.03 41.6471C306.539 39.1944 312.244 36.1339 313.975 39.2378Z" fill="#3C92E9"/>
<path d="M305 656.991C304 656.991 303 656.991 302 656.991C302.529 656.545 304.451 656.545 305 656.991Z" fill="#3C92E9"/>
<path d="M295 20.1327C295.213 19.8672 295.787 19.8672 296 20.1327C295.836 20.5857 295.705 21.0699 295 20.8981C295 20.6482 295 20.3827 295 20.1327Z" fill="#3C92E9"/>
<path d="M275 63.4587C275.044 64.9816 270.511 67.49 270.025 64.5561C269.937 64.041 270.047 63.0107 270.932 62.3613C272.148 61.4654 274.955 61.9581 275 63.4587Z" fill="#3C92E9"/>
<path d="M181 317.763C180.857 318.146 180.572 318.422 180.43 318.805C177.323 318.698 180.116 315.149 181 317.763Z" fill="#3C92E9"/>
<path d="M88.0237 126.119C89.3403 125.108 90.5838 127.654 89.706 128.846C88.2615 129.21 87.8957 127.028 88.0237 126.119Z" fill="#3C92E9"/>
<path d="M336 136.425C334.931 136.113 333.483 136.18 332.125 135.89C330.967 135.645 329.586 135.221 328.495 135.065C325.689 134.664 322.639 135.645 320.991 133.705C323.707 129.378 327.293 125.096 330.789 121.371C331.813 120.256 334.04 119.498 333.528 117.268C331.591 115.216 329.208 117.401 327.382 118.628C325.467 119.922 323.173 121.795 321.013 122.196C317.249 122.865 312.261 120.858 309.188 123.289C308.765 125.363 312.684 124.56 312.15 127.683C310.636 127.973 309.21 128.129 308.052 126.858C307.006 125.72 307.607 123.981 306.917 123.289C305.759 122.13 301.372 121.817 299.412 122.196C297.029 122.665 294.914 124.382 294.624 126.858C297.497 128.486 302.24 125.185 303.264 129.333C301.683 132.746 297.987 134.619 298.477 139.191C298.677 140.953 300.414 143.317 301.661 143.585C302.93 143.852 303.621 142.336 304.846 142.492C306.137 142.648 305.848 144.41 307.362 144.142C309.544 143.005 310.769 139.303 313.286 139.481C316.292 143.875 310.569 146.016 307.362 147.421C303.71 149.004 298.989 149.852 296.205 151.257C294.758 151.993 289.235 158.394 288.478 153.442C287.921 149.874 291.195 150.9 291.885 147.956C288.367 147.131 285.071 149.785 281.864 151.257C277.299 153.331 269.527 154.669 268.436 160.847C268.213 162.073 268.881 164.393 268.213 165.218C267.656 165.887 264.405 165.999 262.98 166.579C260.775 167.493 258.86 169.411 257.524 169.857C256.5 170.192 254.985 170.102 254.34 170.415C252.536 171.262 251.868 174.206 249.797 176.169C248.951 176.972 247.058 177.551 246.39 178.354C245.209 179.759 245.053 183.306 242.982 183.841C241.669 183.975 240.577 182.636 239.33 183.573C239.174 187.075 240.355 191.825 239.108 195.349C236.413 197.981 233.451 199.876 230 202.196C228.084 203.489 226.392 203.824 224.076 205.207C222.45 206.188 220.958 208.53 219.066 209.868C214.723 212.946 209.468 216.581 209.512 224.387C209.512 226.082 210.247 227.889 210.425 229.873C210.537 231.033 210.314 232.171 210.425 233.442C210.692 236.297 212.429 239.954 210.425 241.939C207.352 240.423 203.455 239.91 201.317 237.278C200.738 234.579 202.497 232.349 202.23 229.873C202.008 227.889 199.692 224.365 198.355 224.119C196.975 223.852 195.683 225.636 194.258 225.48C192.566 225.324 190.984 222.491 188.802 222.201C185.595 221.755 183.235 223.071 179.694 222.469C176.265 224.677 175.263 228.602 171.054 228.223C169.562 228.089 168.203 226.729 166.511 226.305C164.662 225.837 161.834 225.056 159.897 225.212C156.022 225.524 153.216 228.87 149.876 230.966C146.936 232.795 142.772 235.092 141.904 238.906C141.436 240.958 141.837 243.857 141.213 245.753C140.812 247.002 139.922 248.117 139.387 249.299C136.826 254.897 134.711 262.324 136.648 270.397C136.938 271.602 139.476 278.337 140.523 279.697C141.703 281.214 145.155 283.489 147.115 283.534C148.785 283.578 150.744 282.508 152.348 282.173C154.218 281.772 156.557 281.727 158.271 281.08C163.193 279.184 162.213 271.178 167.157 268.479C169.317 267.32 171.789 267.074 175.574 266.829C176.777 268.056 177.334 270.174 177.178 272.025C177.044 273.43 175.953 274.679 175.352 276.687C174.839 278.426 174.728 280.478 174.216 281.905C173.548 283.757 172.034 285.095 171.477 286.834C171.12 287.972 171.321 289.377 171.031 290.38C170.519 292.187 168.493 293.458 169.428 295.309C174.305 297.651 180.206 294.64 184.46 295.577C186.263 295.978 189.96 298.543 189.915 301.889C189.893 304.386 188.312 306.015 188.089 308.735C187.822 312.17 186.62 316.363 186.508 319.128C186.308 323.678 192.053 331.506 196.062 331.462C200.382 331.395 202.921 326.288 208.132 329.009C209.868 329.901 211.695 333.291 213.587 333.112C215.169 332.978 217.551 329.655 218.598 327.358C219.89 324.548 219.979 322.206 222.228 320.779C224.677 319.262 226.615 319.998 229.732 318.593C231.135 317.969 232.338 316.898 233.607 315.85C234.721 314.936 235.879 312.549 237.259 314.2C239.085 316.385 235.032 317.612 236.569 319.954C239.731 321.961 241.335 316.207 243.628 316.118C244.363 316.095 246.88 317.835 248.171 318.861C249.953 320.266 250.554 322.229 252.491 322.697C253.738 322.987 255.743 322.117 257.502 322.429C259.818 322.831 261.198 325.239 262.958 325.173C265.095 325.106 266.12 322.295 267.968 321.894C271.977 321.002 273.491 322.429 275.25 325.462C277.232 325.886 277.299 322.697 279.125 323.834C278.123 326.221 279.459 327.314 280.261 329.321C280.773 330.592 280.684 331.506 281.174 332.064C282.265 333.313 284.358 333.313 285.939 334.517C287.609 335.789 288.567 338.153 290.482 340.829C292.464 343.55 295.804 346.382 298.454 346.583C300.949 346.784 302.997 345.736 305.068 346.048C309.767 346.739 312.707 349.572 316.002 352.627C317.851 354.322 319.499 355.504 320.1 357.556C320.523 358.983 320.323 360.879 320.79 362.485C321.792 365.897 325.934 367.547 324.442 373.435C325.133 375.153 326.669 375.777 328.317 377.004C329.631 377.985 330.744 380.015 332.192 380.282C333.127 380.461 334.129 379.948 334.931 380.015C337.514 380.238 339.296 381.442 341.545 382.49C342.926 383.137 344.707 383.382 345.642 384.141C346.8 385.077 346.956 388.222 348.381 389.069C349.317 389.605 351.388 388.869 352.924 389.069C355.374 389.404 358.692 391.211 360.897 391.277C362.233 391.3 363.346 390.608 364.526 390.72C370.094 391.233 373.256 399.262 378.645 401.67C380.315 402.429 382.965 401.893 384.101 402.496C386.127 403.544 387.82 410.971 387.976 414.271C388.443 424.218 382.074 427.43 378.422 434.009C377.665 435.392 377.242 437.555 376.151 439.496C373.968 443.354 371.541 444.157 371.831 451.271C371.92 453.234 372.744 455.13 372.744 457.293C372.744 459.947 372.543 463.404 372.053 465.79C371.675 467.597 370.428 469.069 370.227 470.719C370.027 472.392 370.628 473.686 370.45 475.113C370.25 476.696 368.936 478.927 367.934 481.135C365.84 485.818 365.373 491.305 361.097 493.178C358.581 494.293 355.196 493.669 352.457 494.828C351.343 495.297 349.94 496.523 348.582 497.282C344.618 499.512 338.984 502.501 337.893 507.407C336.913 511.801 339.251 515.28 338.583 520.276C337.87 521.77 336.913 523.242 335.844 524.937C334.864 526.498 334.374 528.327 333.328 529.866C331.969 531.918 329.831 532.832 329.007 535.62C328.718 536.557 328.896 537.672 328.562 539.166C328.428 539.724 327.582 540.571 327.204 541.619C326.847 542.601 326.847 543.85 326.513 544.63C325.467 547.15 322.371 552.905 320.144 553.663C315.423 555.246 310.435 551.254 307.162 552.012C307.629 554.756 309.299 554.466 310.346 556.406C310.97 557.543 311.304 559.038 312.172 560.242C313.196 561.669 314.087 562.182 314.221 563.81C314.488 567.178 312.306 570.591 310.814 571.75C309.455 572.821 306.627 573.445 304.2 573.936C302.507 574.27 298.165 574.293 297.363 575.586C296.183 577.482 297.987 582.188 297.141 584.084C295.448 588.098 290.861 583.972 288.5 585.176C288.3 587.25 288.923 589.414 290.326 590.373C291.751 591.376 293.934 590.061 294.869 592.023C294.401 594.744 291.974 595.101 291.462 597.777C291.529 600.387 292.197 601.078 291.907 602.706C291.306 606.23 286.763 606.074 286.897 609.821C287.097 615.441 295.849 613.144 296.005 618.586C296.094 621.886 293.488 621.931 292.598 625.143C292.108 626.86 292.887 627.261 292.598 628.711C292.219 630.651 290.326 631.209 290.326 633.372C290.326 636.004 293.511 638.881 295.092 641.044C296.651 643.163 298.655 646.196 300.793 647.624C303.999 649.742 308.743 649.274 310.123 653.11C309.678 655.407 307.852 656.032 306.026 656.656C305.87 656.656 305.714 656.656 305.58 656.656C304.957 656.21 302.775 656.21 302.173 656.656C301.104 656.656 300.035 656.656 298.989 656.656C295.938 654.961 292.241 653.868 288.522 652.285C287.186 651.705 285.65 650.345 284.202 649.564C283.111 648.962 281.864 648.717 281.018 648.181C279.058 646.955 276.854 642.94 274.872 641.334C273.669 640.353 271.776 639.84 270.997 638.859C270.24 637.922 269.839 635.893 269.171 634.755C268.436 633.506 267.077 632.569 266.209 631.187C264.316 628.154 261.911 624.094 261.889 621.864C261.867 619.678 263.626 618.184 263.025 616.132C262.468 614.192 258.972 614.616 258.482 612.296C258.17 610.891 259.484 608.549 259.395 606.542C259.35 605.383 257.546 603.821 258.259 602.149C259.083 600.231 260.619 602.305 261.911 601.323C260.953 597.376 261.978 590.997 258.727 589.815C257.056 591.51 260.441 595.346 257.591 596.395C254.829 594.923 255.475 590.551 254.852 587.362C254.451 585.243 253.582 583.348 253.493 581.05C253.449 579.846 253.894 578.463 253.716 577.214C253.226 573.512 249.819 570.501 249.619 566.799C249.529 565.015 250.532 563.498 250.754 561.602C250.91 560.309 250.598 558.859 250.754 557.499C250.955 555.759 251.756 554.153 251.89 552.57C252.157 549.559 251.89 544.407 251.445 541.887C250.888 538.72 248.795 536.044 248.483 532.587C248.372 531.338 248.839 529.264 248.706 527.658C248.594 526.164 247.926 524.692 247.793 522.997C247.681 521.436 248.104 519.941 248.238 518.068C248.483 514.633 247.681 510.797 247.793 507.385C247.815 506.381 248.26 505.623 248.238 504.642C248.216 501.809 247.436 498.954 247.325 496.144C247.147 490.948 247.793 487.246 247.102 482.451C246.568 478.815 245.922 473.24 244.831 470.942C243.606 468.4 238.818 464.051 236.413 462.445C234.81 461.375 232.917 461.018 231.18 459.992C227.461 457.806 220.29 453.19 218.665 448.774C218.197 447.502 218.264 445.807 217.752 444.38C216.772 441.57 214.679 439.139 213.209 436.44C210.403 431.266 208.132 424.798 205.237 419.468C203.767 416.747 202.52 413.692 200.916 411.528C199.981 410.257 196.975 409.075 196.596 407.135C196.084 404.614 194.525 401.135 194.77 399.195C195.104 396.563 199.335 394.444 199.313 392.08C199.313 390.051 197.064 388.869 196.574 387.151C195.416 382.959 197.242 380.505 198.623 377.004C199.068 375.866 199.513 374.015 199.981 373.168C200.805 371.651 202.52 371.227 203.611 369.599C204.234 368.685 204.613 366.789 205.437 365.496C207.174 362.73 209.958 361.682 210.67 359.184C211.249 357.154 211.583 346.984 210.893 343.572C210.492 341.61 208.978 339.959 208.399 338.086C207.374 334.785 207.129 331.172 204.301 331.239C202.564 331.283 201.317 333.603 200.204 335.075C199.937 337.015 200.07 339.134 198.378 339.736C195.795 340.651 194.792 336.458 191.786 335.365C190.584 334.919 188.668 334.941 187.911 334.54C185.707 333.358 184.994 329.477 182.678 327.96C180.741 326.711 179.071 327.135 177.89 325.217C177.4 323.901 177.779 321.515 177.668 319.731C175.173 317.969 173.058 311.434 170.163 309.873C168.248 308.847 165.286 308.936 162.881 307.955C161.745 307.487 160.877 306.907 159.697 306.594C158.227 306.193 156.735 306.171 155.599 305.502C151.101 302.803 148.651 294.083 143.084 294.283C140.701 294.35 138.407 297.027 136.247 297.027C134.109 297.004 130.502 294.975 127.83 293.458C125.046 291.897 121.951 291.049 119.635 289.622C117.764 288.485 116.472 286.388 114.847 285.496C113.6 284.827 111.774 284.716 110.749 284.136C109.302 283.31 107.788 281.526 105.962 280.01C104.247 278.582 102.376 276.397 102.309 274.546C102.243 272.405 103.957 270.576 104.135 268.524C104.714 262.012 100.728 257.306 98.2119 253.47C96.3413 250.615 94.159 248.184 92.2884 245.53C92.3997 243.768 92.3997 243.456 92.2884 241.694C90.8632 240.043 89.6829 237.59 88.1909 235.115C86.8325 232.884 84.2048 230.498 83.8707 228C83.4476 224.922 84.8506 222.224 83.8707 219.235C82.2451 214.284 76.522 216.514 77.2569 223.071C77.4573 224.878 79.5728 227.309 80.2186 229.093C80.8644 230.922 80.7531 233.197 81.3543 235.404C81.9333 237.523 83.7149 239.33 84.3161 241.716C85.2737 245.463 85.2514 249.5 86.1422 251.841C86.9216 253.916 89.7943 255.901 88.1909 258.421C86.0308 258.956 85.2069 256.369 83.8707 254.852C83.1136 254.005 80.419 252.421 79.9959 250.481C79.6396 248.875 80.8421 246.69 80.4413 244.727C79.6619 240.869 73.1816 240.757 73.1594 236.787C73.1371 234.289 75.8762 233.999 75.8985 231.568C75.9207 228.937 72.9144 226.684 72.2463 224.454C71.6451 222.402 71.556 219.124 71.3333 216.247C71.1106 213.526 71.4001 210.403 70.8657 208.307C70.398 206.433 68.0598 203.846 66.5455 202.82C64.5413 201.482 62.9602 202.04 62.0026 200.077C61.1564 198.36 60.5997 194.791 60.3993 192.963C60.0652 189.662 60.3324 186.071 60.1766 182.547C60.0207 179.023 59.7312 175.656 60.1766 171.864C61.3123 169.21 63.361 167.917 64.4967 165.285C65.2984 163.456 65.4098 161.204 66.3228 159.263C67.993 155.695 71.6228 152.372 74.0724 148.848C76.7001 145.057 79.1274 141.421 80.664 137.072C81.2207 135.533 82.6905 132.121 82.4901 130.225C82.2006 127.594 78.0585 125.408 78.3926 122.286C78.593 120.345 80.909 120.368 81.577 118.45C81.9333 117.468 82.2451 114.703 82.2674 113.521C82.3119 110.889 81.1317 108.123 81.577 105.313C81.9556 102.905 84.9396 101.923 83.4031 99.2916C81.8888 96.6822 79.1497 100.697 77.4795 99.024C75.943 97.4628 77.7913 95.5894 77.9249 92.7123C77.9917 91.5749 77.3682 90.2814 77.4795 89.4339C77.6132 88.2072 79.5951 86.1554 79.0829 85.3302C77.8581 83.4568 76.4774 78.7063 73.8497 77.1228C70.5094 75.0933 66.9018 76.4761 62.2476 75.4724C59.3971 74.8703 58.0387 71.6587 55.411 71.9263C53.7854 72.0824 52.8501 74.3127 50.6232 75.4724C48.4185 76.6322 45.5236 76.2307 43.3412 76.8329C41.1589 77.4351 40.1122 79.2416 37.8631 79.0185C35.9925 78.8401 35.9702 76.8106 33.7656 76.5653C32.8971 76.4538 31.2715 77.212 29.8908 77.3904C26.3723 77.8365 20.0256 78.0372 16.4626 77.1228C13.1445 76.1415 11.1403 74.8926 7.53274 72.8853C4.81593 71.3687 -0.194585 69.5176 0.00583588 67.1313C0.13945 65.5924 4.77139 63.9643 6.59745 63.2952C9.55922 62.2024 11.3853 60.4628 13.6567 60.2844C14.5252 60.2174 15.6832 60.9311 16.8412 60.8419C17.9992 60.7304 19.4466 59.4369 20.9387 59.1915C24.1231 58.6563 28.5992 59.3922 28.2206 55.6231C25.8156 53.3259 15.9504 57.3181 15.7055 52.3446C15.5496 49.3338 19.4466 48.4194 22.3193 47.6834C24.9248 47.0143 28.8887 45.8992 31.2046 46.033C33.8101 46.1891 37.2173 49.6906 38.7093 45.7653C39.4442 42.9775 37.8185 40.6357 37.3509 38.3609C39.2883 35.1493 42.8513 35.5508 45.5459 35.0824C48.6412 34.5248 51.1576 33.8781 54.1862 32.3392C56.8585 31.001 59.6866 30.1089 62.8266 29.596C65.922 29.1053 68.9283 27.7002 71.7119 27.4103C74.0056 27.165 76.0989 27.388 78.3035 26.875C80.2632 26.429 82.3119 25.1131 84.4497 25.2246C85.8749 25.2915 87.0997 26.5628 88.5472 26.875C89.9056 27.165 91.4422 26.7858 92.8674 27.1427C93.9586 27.4103 94.9607 28.3024 96.0519 28.5031C97.7666 28.8154 99.6372 28.2132 101.285 28.5031C102.822 28.7708 104.113 29.9082 105.605 30.1535C109.101 30.7111 113.132 29.9305 116.539 30.7111C117.831 31.001 118.989 31.7593 120.414 32.0715C121.75 32.3615 123.22 32.0269 124.512 32.3392C126.315 32.7852 127.83 34.8371 129.745 35.0824C133.263 35.5285 137.227 33.2313 140.902 32.8967C143.552 32.6514 146.313 33.0306 149.096 32.3615C151.635 31.737 154.107 30.555 156.378 30.4435C157.626 30.3765 158.65 30.8895 159.786 30.7111C160.966 30.5104 162.369 28.8154 163.66 29.0607C165.353 29.3952 165.063 31.96 166.845 32.6291C168.827 31.3802 170.809 32.7183 172.991 32.6291C175.129 32.5399 177.022 31.3579 179.36 31.8039C183.502 32.5845 189.292 37.4688 192.566 34.8148C193.389 34.1457 193.189 32.986 193.924 31.2463C194.926 28.8823 196.908 26.1167 196.44 22.749C191.875 22.8383 187.51 25.5146 182.322 25.7599C177.066 21.8123 183.725 19.3591 187.555 17.5525C190.717 16.0583 193.211 12.7352 197.131 12.0661C200.315 11.5085 203.811 12.9136 207.597 13.4266C209.802 13.7388 212.006 13.2481 213.298 13.6942C215.525 14.4971 216.683 17.1734 218.531 17.7979C219.333 18.0655 220.647 18.0432 221.716 18.3554C223.764 18.913 225.59 20.2289 227.639 18.3554C229.242 18.69 229.443 20.7641 231.046 21.0987C232.561 20.1173 233.719 17.6194 236.057 16.995C237.059 16.7273 238.128 17.1957 239.241 16.995C241.09 16.6381 243.561 13.605 244.697 16.4374C244.229 18.4223 241.758 18.7123 240.377 20.2735C239.152 21.6562 237.259 24.8455 237.415 26.2952C237.682 28.9046 240.934 27.901 241.045 31.224C240.555 33.1421 238.707 32.2723 237.17 33.1421C235.767 33.9227 235.255 35.5508 233.763 35.8853C229.621 36.822 226.192 34.6363 222.606 34.7925C222.45 36.6659 224.388 37.7364 225.345 38.3386C228.597 40.3904 231.247 40.1005 235.812 39.989C238.15 39.9221 240.845 40.8365 242.871 39.1638C244.14 38.1156 244.074 35.7961 245.143 34.5025C246.434 32.9636 249.396 31.3802 251.289 31.7593C252.313 31.96 253.783 33.4543 253.805 34.5025C253.85 37.0004 250.888 36.1975 250.843 38.8961C252.758 40.2789 257.858 37.3796 258.125 35.0601C258.326 33.3651 256.477 32.4061 256.522 30.6888C256.633 27.8117 259.862 27.8563 259.484 24.9347C257.925 23.4627 256.277 25.2469 254.696 24.9347C252.469 24.4887 250.443 21.2548 249.463 19.1806C250.443 17.7087 252.514 18.69 254.006 18.913C255.676 16.1252 258.793 15.0323 263.114 14.5194C264.65 14.341 266.699 13.605 267.434 15.3446C267.812 17.9317 264.249 19.4929 264.917 22.4591C267.99 23.3735 268.993 18.4 271.531 16.4374C272.645 15.5676 274.248 14.9877 275.851 14.2518C277.254 13.605 278.791 12.0215 279.949 12.0661C281.218 12.1107 281.441 13.3596 282.688 13.9841C283.801 14.5417 285.271 13.605 285.65 15.3446C283.022 20.8533 273.179 17.6864 270.618 23.2843C271.197 27.0312 269.082 30.6219 270.841 33.1421C272.11 34.9486 274.961 33.7219 275.629 35.5954C276.519 38.1156 272.867 38.1156 273.803 41.0818C276.208 42.8214 279.08 39.4314 281.307 38.0709C283.69 36.6213 286.719 34.8817 287.008 31.4917C285.806 28.7038 281.33 30.8672 280.639 27.9456C280.261 26.3621 282.02 22.7937 282.465 22.1915C284.848 18.9799 293.132 14.4302 299.078 15.077C300.214 15.2108 301.349 16.036 302.485 16.1698C306.404 16.6604 311.014 14.1402 314.087 16.1698C316.559 14.4302 319.521 16.4151 322.973 15.9021C325.623 17.7756 324.888 21.79 328.896 23.5742C329.987 24.0649 331.346 23.7081 332.771 24.1095C333.818 24.4217 334.976 25.916 336.178 26.5851C337.893 27.5218 339.229 27.3211 339.585 28.7708C339.941 30.1981 338.338 31.1348 338.449 32.6068C339.429 33.5881 338.605 35.0601 339.14 36.4429C340.12 38.9854 342.591 38.7846 345.063 40.0113C346.778 40.8588 350.475 43.4682 350.297 45.4977C350.185 46.8582 346.845 49.2223 345.754 49.8913C344.974 50.3374 341.144 52.59 339.83 52.3446C337.67 51.9655 336.846 46.7244 333.907 46.8582C332.637 46.9251 331.435 47.8395 331.39 49.869C331.346 53.4598 334.731 53.5936 334.797 56.7159C334.886 60.4405 333.105 60.6858 330.477 63.0053C328.584 62.0909 327.003 60.7973 324.554 60.552C323.106 62.6261 326.936 63.3844 325.689 66.0384C322.037 66.9751 319.254 64.7895 315.913 63.5851C314.867 63.206 313.352 63.3621 312.506 62.7599C311.215 61.8678 310.836 59.1915 309.767 57.8311C308.542 56.2476 306.093 53.995 304.066 53.995C301.26 53.995 297.185 58.2102 294.958 54.2626C296.495 47.9956 303.799 52.6346 308.609 50.4266C310.413 49.6014 311.014 47.3265 312.484 46.3229C315.423 44.2934 320.211 44.0257 319.766 40.0336C319.543 38.0263 317.205 38.0486 315.891 37.0227C314.11 35.6177 312.751 30.6888 310.19 30.4435C308.876 30.3096 307.941 31.6478 306.538 31.8039C303.599 32.1385 300.325 30.3765 297.653 31.8039C296.428 32.6514 297.252 34.0119 296.294 35.64C295.493 36.9781 293.622 37.335 292.887 38.6508C292.019 40.1897 292.197 42.1077 291.061 43.3121C289.191 45.297 285.249 45.6315 282.866 46.5905C281.819 47.0366 280.483 48.5309 279.459 48.5086C277.588 48.4863 276.764 45.4754 274.671 46.5905C274.493 49.5122 277.254 50.7165 278.991 52.077C280.884 53.549 282.866 54.9986 283.534 57.5634C281.686 62.2916 278.724 57.3181 275.807 57.2958C272.578 57.2735 267.857 64.7003 265.118 58.6563C265.808 55.467 268.725 54.954 269.438 51.8094C266.231 52.4561 263.425 55.7346 259.64 56.7382C258.059 57.162 256.5 57.0505 255.097 57.5634C252.38 58.5224 250.465 60.9534 247.592 62.2247C246.456 62.7153 245.12 62.5815 243.94 63.0499C241.201 64.165 237.905 66.1276 235.055 67.9788C232.16 69.8745 228.886 71.8594 227.082 73.7328C226.103 74.7364 223.586 78.3495 223.675 79.4869C223.787 81.115 226.348 81.6503 226.414 83.323C226.348 84.3266 224.945 86.5122 225.969 87.9842C226.904 89.3224 228.775 88.2295 230.757 88.5195C234.231 89.0324 236.502 92.4893 239.174 94.2735C241.201 95.6117 244.185 97.2175 246.456 97.552C249.574 98.0204 253.093 96.4592 253.516 99.47C253.939 102.369 250.576 103.395 250.331 105.224C252.024 107.9 249.195 109.172 249.195 111.536C249.195 113.431 251.133 116.286 252.825 116.465C255.119 116.71 258.482 113.744 259.439 110.978C260.575 107.7 260.085 103.239 262.178 100.853C272.778 101.21 281.753 95.0541 281.062 81.9625C280.996 80.6689 280.394 78.9962 280.617 77.5689C280.951 75.4501 283.98 73.6659 283.579 70.9896C286.54 69.8968 286.429 64.165 289.502 63.3175C292.086 62.6261 295.003 65.5032 298.388 65.2355C299.501 65.1463 300.926 63.9643 302.04 64.1427C304.267 64.5219 305.603 67.8226 307.273 69.3392C308.743 70.6997 310.301 70.2759 310.68 72.0824C310.235 75.1602 308.453 75.2271 308.631 78.1041C308.809 80.6243 310.97 82.5201 312.038 82.7654C313.709 83.1445 316.069 82.074 317.739 81.115C320.79 79.3754 323.396 74.1566 325.934 74.8034C327.939 75.3386 329.52 83.0107 329.809 85.7539C330.121 88.7202 329.475 90.9727 329.586 93.6937C329.876 98.3103 334.708 97.842 337.091 100.273C337.804 101.009 338.093 102.882 338.694 103.841C339.852 105.692 341.255 105.692 341.434 107.677C341.857 112.406 337.87 112.807 338.249 118.093C337.425 120.145 335.354 120.011 335.51 122.754C335.777 127.081 340.944 123.758 342.346 127.148C343.104 128.954 342.213 130.315 341.656 132.902C343.415 135.444 343.415 139.481 340.298 139.481C338.427 139.436 337.915 136.983 336 136.425ZM89.9279 129.311C90.9968 127.973 89.4825 125.185 87.8791 126.3C87.7233 127.304 88.1686 129.712 89.9279 129.311ZM248.817 154.223C247.859 153.108 244.786 153.42 242.671 153.665C241.179 153.844 239.419 154.223 239.264 155.583C241.624 156.899 248.082 157.858 248.817 154.223ZM236.97 149.584C238.751 147.889 237.972 144.432 236.057 143.83C235.3 143.585 234.32 144.499 233.095 144.388C231.803 144.276 230.512 142.849 229.465 142.737C227.639 142.559 225.813 143.629 225.145 144.655C225.078 146.283 226.147 146.551 226.058 148.224C223.853 150.119 225.011 156.498 227.194 156.721C229.51 156.966 230.69 149.696 233.785 149.049C234.921 148.803 235.478 149.807 236.97 149.584ZM233.785 160.535C230.556 159.152 227.55 161.471 224.9 161.895C223.319 162.14 220.446 161.516 220.803 164.348C221.092 166.668 224.076 165.82 225.813 165.174C229.421 163.813 231.692 162.653 233.785 160.535ZM223.787 139.704C228.329 137.384 222.896 130.225 220.825 129.579C217.128 128.419 211.895 132.835 207.619 134.24C205.214 135.02 202.921 135.087 202.386 137.541C204.546 141.823 208.8 136.604 211.939 137.273C213.543 137.608 214.456 140.239 216.037 140.551C217.106 140.752 223.341 139.927 223.787 139.704ZM220.58 144.098C219.645 142.759 214.523 144.254 213.075 145.458C212.073 146.306 211.383 148.335 210.336 149.852C209.267 151.413 208.065 152.617 207.152 153.955C206.328 155.182 201.718 163.166 205.326 164.081C206.862 164.46 210.024 160.624 210.336 159.152C211.361 154.134 213.253 150.543 216.482 148.201C218.353 146.841 220.29 147.019 220.58 144.098ZM192.142 113.409C194.681 113.298 196.396 104.265 192.142 105.469C189.27 106.272 188.602 113.565 192.142 113.409ZM179.85 318.861C179.961 318.459 180.184 318.169 180.295 317.768C179.605 315.025 177.423 318.749 179.85 318.861ZM83.559 89.59C83.6035 89.077 83.2917 88.9878 83.3363 88.4972C82.6459 88.4972 81.8443 88.341 81.9779 89.3224C82.2896 90.103 83.1581 90.2368 83.559 89.59ZM322.794 46.5905C323.908 46.7467 324.554 46.3229 324.398 44.9625C323.373 44.0927 321.904 45.2078 322.794 46.5905ZM296.628 19.7382C296.339 19.3591 295.559 19.3591 295.27 19.7382C295.27 20.095 295.27 20.4742 295.27 20.831C296.205 21.0764 296.383 20.385 296.628 19.7382ZM210.113 40.8365C210.871 40.2566 212.029 39.4537 211.472 38.0933C208.955 36.6659 204.702 37.7587 201.005 37.2681C198.912 33.6996 195.394 33.1421 195.082 38.9184C199.335 43.0444 205.749 36.9781 210.113 40.8365ZM169.361 69.0493C170.653 68.514 172.457 68.7816 172.768 67.1313C171.699 66.1053 170.608 64.7226 169.361 64.678C167.713 64.6111 166.912 66.373 165.264 67.4212C163.349 68.6478 160.676 68.9378 160.476 70.9896C164.017 71.7925 167.201 69.9414 169.361 69.0493ZM168.226 49.3115C169.673 49.0215 171.165 49.8021 172.1 48.2186C171.009 42.1969 164.084 45.8769 160.031 46.3006C159.184 48.0179 158.049 49.3784 157.759 51.7871C160.899 52.7461 164.685 50.0475 168.226 49.3115ZM236.524 329.276C238.328 328.919 237.794 323.946 235.611 325.15C233.964 326.065 234.81 329.588 236.524 329.276Z" fill="#3C92E9"/>
<path d="M83.7201 88.9266C83.6652 89.5708 84.0495 89.6879 83.9946 90.3614C83.5279 91.2106 82.4299 91.0349 82.0181 90.01C81.8534 88.7216 82.8417 88.8973 83.7201 88.9266Z" fill="#3C92E9"/>
<path d="M76 105.272C75.5464 107.244 74.3299 108.132 73.0515 108.896C72.6392 108.452 72.2887 107.959 72 107.392C72.0825 104.508 74.9278 102.387 76 105.272Z" fill="#3C92E9"/>
</g>
</svg>
